<?xml version="1.0" standalone="no"?>
<!DOCTYPE svg PUBLIC "-//W3C//DTD SVG 1.1//EN" "http://www.w3.org/Graphics/SVG/1.1/DTD/svg11.dtd" >
<svg xmlns="http://www.w3.org/2000/svg">
<metadata>Generated by IcoMoon</metadata>
<defs>
<font id="concertgebouw" horiz-adv-x="1024">
<font-face units-per-em="1024" ascent="960" descent="-64" />
<missing-glyph horiz-adv-x="1024" />
<glyph unicode="&#x20;" d="" horiz-adv-x="512" />
<glyph unicode="&#xe600;" d="M281.6 576h-153.6v-256h153.6l128-102.4v460.8zM870.4 601.6l-51.2 51.2-153.6-148.48-153.6 148.48-51.2-51.2 148.48-153.6-148.48-153.6 51.2-51.2 153.6 148.48 153.6-148.48 51.2 51.2-148.48 153.6z" />
<glyph unicode="&#xe601;" d="M281.6 576h-153.6v-256h153.6l128-102.4v460.8zM542.72 611.84l-51.2-51.2c61.44-61.44 61.44-163.84 0-225.28l51.2-51.2c92.16 92.16 92.16 235.52 0 327.68zM645.12 709.12l-51.2-51.2c117.76-117.76 117.76-307.2 0-424.96l51.2-51.2c148.48 148.48 148.48 384 0 527.36zM742.4 806.4l-51.2-51.2c174.080-168.96 174.080-445.44 0-619.52l51.2-51.2c204.8 204.8 204.8 522.24 0 721.92z" />
<glyph unicode="&#xe602;" d="M512 960c-281.6 0-512-230.4-512-512s230.4-512 512-512 512 230.4 512 512c0 281.6-230.4 512-512 512zM824.32 335.36c-5.12-40.96-35.84-97.28-81.92-102.4-143.36-10.24-317.44-10.24-465.92 0-46.080 5.12-76.8 61.44-81.92 102.4-5.12 87.040-5.12 138.24 0 230.4 5.12 40.96 35.84 97.28 81.92 102.4 148.48 10.24 322.56 10.24 465.92 0 51.2 0 76.8-56.32 81.92-97.28 10.24-92.16 10.24-148.48 0-235.52zM450.56 320l194.56 128-194.56 128v-256z" />
<glyph unicode="&#xe603;" d="M1008.64 872.96l-71.68 71.68-424.96-424.96-424.96 424.96-71.68-71.68 424.96-424.96-424.96-424.96 71.68-71.68 424.96 424.96 424.96-424.96 71.68 71.68-424.96 424.96z" />
<glyph unicode="&#xe604;" d="M896 780.8l-51.2 51.2-332.8-327.68-332.8 327.68-51.2-51.2 327.68-332.8-327.68-332.8 51.2-51.2 332.8 327.68 332.8-327.68 51.2 51.2-327.68 332.8z" />
<glyph unicode="&#xe605;" d="M512 960c-281.6 0-512-230.4-512-512s230.4-512 512-512 512 230.4 512 512c0 281.6-230.4 512-512 512zM814.080 586.24c-35.84-194.56-225.28-358.4-281.6-394.24-56.32-35.84-112.64 15.36-128 56.32-20.48 46.080-87.040 291.84-102.4 312.32-20.48 15.36-71.68-25.6-71.68-25.6l-25.6 35.84c0 0 102.4 122.88 184.32 138.24 81.92 15.36 81.92-128 102.4-209.92 20.48-76.8 30.72-122.88 51.2-122.88s51.2 46.080 87.040 112.64c35.84 66.56 0 128-71.68 81.92 25.6 168.96 291.84 209.92 256 15.36z" />
<glyph unicode="&#xe606;" d="M512 960c-281.6 0-512-230.4-512-512s230.4-512 512-512 512 230.4 512 512-230.4 512-512 512zM768 560.64c0-5.12 0-10.24 0-20.48 0-163.84-128-358.4-358.4-358.4-71.68 0-133.12 20.48-194.56 56.32 10.24 0 20.48 0 30.72 0 56.32 0 112.64 20.48 153.6 51.2-56.32 0-102.4 40.96-112.64 92.16 5.12 0 10.24 0 25.6 0 5.12 0 20.48 0 25.6 0-56.32 10.24-102.4 61.44-102.4 128v0c20.48-10.24 40.96-10.24 61.44-15.36-30.72 25.6-56.32 61.44-56.32 102.4 0 25.6 5.12 46.080 20.48 61.44 66.56-76.8 153.6-128 261.12-133.12-5.12 20.48-10.24 25.6-10.24 35.84 0 71.68 56.32 128 128 128 40.96 0 71.68-10.24 92.16-35.84 25.6 5.12 56.32 20.48 81.92 30.72-5.12-30.72-30.72-51.2-56.32-71.68 25.6 0 51.2 10.24 71.68 20.48-15.36-30.72-35.84-51.2-61.44-71.68z" />
<glyph unicode="&#xe607;" d="M512 960c-281.6 0-512-230.4-512-512s230.4-512 512-512 512 230.4 512 512c0 281.6-230.4 512-512 512zM701.44 488.96h-153.6v-138.24c0-35.84 0-56.32 5.12-66.56s15.36-20.48 25.6-25.6c15.36-10.24 30.72-10.24 46.080-10.24 30.72 0 51.2 5.12 81.92 25.6v-92.16c-25.6-10.24-51.2-20.48-71.68-25.6-20.48-15.36-46.080-15.36-71.68-15.36-25.6 0-46.080 5.12-66.56 10.24s-40.96 15.36-56.32 30.72c-15.36 15.36-25.6 25.6-30.72 40.96-5.12 15.36-10.24 35.84-10.24 66.56v215.040h-76.8v87.040c25.6 10.24 51.2 20.48 66.56 35.84s30.72 30.72 40.96 51.2c10.24 20.48 15.36 46.080 20.48 76.8h97.28v-153.6h153.6v-112.64z" />
<glyph unicode="&#xe608;" d="M450.56 627.2c-61.44 0-117.76-5.12-174.080-20.48-20.48-5.12-30.72-25.6-25.6-46.080 5.12-15.36 25.6-30.72 40.96-25.6 51.2 10.24 102.4 20.48 158.72 20.48 102.4 0 199.68-20.48 291.84-66.56 5.12 0 10.24-5.12 15.36-5.12 15.36 0 25.6 10.24 30.72 25.6 10.24 15.36 0 40.96-15.36 46.080-97.28 46.080-209.92 71.68-322.56 71.68zM450.56 330.24c-46.080 0-92.16-5.12-138.24-20.48-15.36-5.12-20.48-35.84-15.36-46.080 0-15.36 15.36-20.48 30.72-20.48 40.96 10.24 81.92 20.48 122.88 20.48 71.68 0 138.24-15.36 199.68-51.2 5.12 0 10.24-5.12 10.24-5.12 10.24 0 20.48 5.12 25.6 15.36 5.12 10.24 0 46.080-10.24 51.2-66.56 35.84-143.36 56.32-225.28 56.32zM727.040 407.040c-81.92 46.080-179.2 66.56-271.36 66.56-51.2 0-107.52-5.12-158.72-20.48-15.36-5.12-25.6-30.72-20.48-51.2 5.12-15.36 20.48-25.6 35.84-20.48 46.080 15.36 92.16 20.48 138.24 20.48 87.040 0 168.96-20.48 245.76-61.44 5.12 0 10.24-5.12 15.36-5.12 10.24 0 20.48 15.36 25.6 25.6 10.24 20.48 5.12 40.96-10.24 46.080zM512 960c-281.6 0-512-230.4-512-512s230.4-512 512-512 512 230.4 512 512c0 281.6-230.4 512-512 512zM512 64c-209.92 0-384 174.080-384 384s174.080 384 384 384 384-174.080 384-384-174.080-384-384-384z" />
<glyph unicode="&#xe609;" d="M512 960c-281.6 0-512-230.4-512-512s230.4-512 512-512 512 230.4 512 512c0 281.6-230.4 512-512 512zM276.48 130.56c-46.080 0-81.92 35.84-81.92 81.92 0 46.080 35.84 81.92 81.92 81.92 46.080 0 81.92-35.84 81.92-81.92 0-46.080-35.84-81.92-81.92-81.92zM486.4 130.56c0 76.8-30.72 153.6-87.040 209.92s-128 87.040-204.8 87.040v112.64c230.4 0 414.72-184.32 414.72-414.72h-122.88zM696.32 130.56c0 281.6-225.28 506.88-506.88 506.88v117.76c348.16 0 629.76-281.6 629.76-624.64h-122.88z" />
<glyph unicode="&#xe60a;" d="M317.44 832l389.12-384-389.12-384z" />
<glyph unicode="&#xe60b;" d="M240.64 555.52h66.56c10.24 0 20.48 0 30.72-5.12 5.12 0 10.24 0 20.48-5.12 5.12-5.12 10.24-10.24 15.36-20.48 5.12-5.12 5.12-15.36 5.12-25.6 0-10.24 0-20.48-5.12-30.72-5.12-10.24-10.24-15.36-15.36-20.48-5.12-5.12-15.36-10.24-25.6-10.24-10.24 0-15.36-5.12-25.6-5.12h-40.96v-97.28h-25.6v220.16zM266.24 463.36h40.96c15.36 0 25.6 5.12 30.72 10.24 10.24 0 15.36 10.24 15.36 25.6 0 10.24-5.12 20.48-10.24 25.6-10.24 5.12-20.48 10.24-35.84 10.24h-40.96v-71.68zM419.84 555.52h81.92c5.12 0 15.36 0 20.48 0 10.24 0 15.36-5.12 25.6-10.24 10.24-5.12 15.36-10.24 20.48-15.36 5.12-5.12 15.36-10.24 20.48-20.48 5.12-10.24 10.24-15.36 15.36-25.6 5.12-10.24 5.12-20.48 5.12-35.84 0-15.36 0-25.6-5.12-35.84-5.12-10.24-5.12-20.48-15.36-25.6-5.12-10.24-10.24-15.36-20.48-20.48-5.12-5.12-15.36-10.24-20.48-15.36-10.24-5.12-15.36-5.12-25.6-10.24-10.24 0-15.36 0-20.48 0h-81.92v215.040zM445.44 360.96h51.2c10.24 0 25.6 0 35.84 5.12s20.48 10.24 25.6 15.36c10.24 5.12 15.36 15.36 20.48 25.6 5.12 10.24 5.12 25.6 5.12 40.96 0 15.36 0 25.6-5.12 40.96-10.24 10.24-15.36 15.36-25.6 25.6-10.24 5.12-15.36 10.24-25.6 15.36-10.24 5.12-20.48 5.12-35.84 5.12h-51.2v-174.080zM650.24 555.52h133.12v-25.6h-107.52v-71.68h102.4v-25.6h-102.4v-97.28h-25.6v220.16zM844.8 908.8v-921.6h-665.6v762.88l158.72 158.72h506.88zM896 960h-578.56l-189.44-189.44v-834.56h768v1024z" />
<glyph unicode="&#xe60c;" d="M680.96 335.36c56.32 61.44 87.040 148.48 87.040 240.64 0 209.92-174.080 384-384 384-92.16 0-179.2-30.72-240.64-87.040-20.48-15.36-40.96-35.84-56.32-56.32-56.32-61.44-87.040-148.48-87.040-240.64 0-209.92 174.080-384 384-384 92.16 0 179.2 30.72 240.64 87.040l317.44-317.44 56.32 56.32-317.44 317.44zM384 268.8c-168.96 0-307.2 138.24-307.2 307.2 0 71.68 25.6 138.24 66.56 189.44 15.36 20.48 35.84 40.96 56.32 56.32 51.2 40.96 117.76 66.56 189.44 66.56 168.96 0 307.2-138.24 307.2-307.2 0-71.68-25.6-138.24-66.56-189.44-15.36-20.48-35.84-40.96-56.32-56.32-51.2-40.96-117.76-66.56-189.44-66.56z" />
<glyph unicode="&#xe60d;" d="M512 960c-281.6 0-512-230.4-512-512s230.4-512 512-512 512 230.4 512 512c0 281.6-230.4 512-512 512zM384 202.24h-128v445.44h128v-445.44zM322.56 673.28c-30.72 0-56.32 30.72-56.32 61.44s25.6 61.44 61.44 61.44c30.72 0 61.44-25.6 61.44-61.44-5.12-30.72-30.72-61.44-66.56-61.44zM829.44 202.24h-128v276.48c0 30.72-10.24 56.32-51.2 56.32-66.56 0-76.8-56.32-76.8-56.32v-276.48h-122.88v445.44h128v-40.96c20.48 15.36 61.44 40.96 128 40.96 40.96 0 128-25.6 128-174.080v-271.36z" />
<glyph unicode="&#xe60e;" d="M839.68 724.48c-76.8 76.8-204.8 76.8-281.6 0l-46.080-46.080-46.080 46.080c-76.8 76.8-204.8 76.8-281.6 0-76.8-76.8-76.8-204.8 0-281.6l327.68-327.68 327.68 327.68c76.8 76.8 76.8 199.68 0 281.6z" />
<glyph unicode="&#xe60f;" d="M512 806.4c199.68 0 358.4-158.72 358.4-358.4s-158.72-358.4-358.4-358.4-358.4 158.72-358.4 358.4 158.72 358.4 358.4 358.4zM512 857.6c-225.28 0-409.6-184.32-409.6-409.6s184.32-409.6 409.6-409.6 409.6 184.32 409.6 409.6-184.32 409.6-409.6 409.6v0zM409.6 181.76l-40.96 40.96 230.4 225.28-230.4 225.28 40.96 40.96 261.12-266.24z" />
<glyph unicode="&#xe610;" d="M512 960c-281.6 0-512-230.4-512-512s230.4-512 512-512 512 230.4 512 512c0 281.6-230.4 512-512 512zM645.12 448h-81.92v-307.2h-117.76v307.2h-76.8v107.52h76.8v61.44c0 87.040 25.6 138.24 122.88 138.24h87.040v-107.52h-51.2c-40.96 0-40.96-15.36-40.96-40.96v-51.2h97.28l-15.36-107.52z" />
<glyph unicode="&#xe611;" d="M768 448c0-141.385-114.615-256-256-256s-256 114.615-256 256c0 141.385 114.615 256 256 256 141.385 0 256-114.615 256-256z" />
<glyph unicode="&#xe612;" d="M936.96 181.76l-424.96 424.96-424.96-424.96-71.68 71.68 496.64 496.64 496.64-496.64z" />
<glyph unicode="&#xe613;" d="M317.44-48.64l-71.68 71.68 424.96 424.96-424.96 424.96 71.68 71.68 496.64-496.64z" />
<glyph unicode="&#xe614;" d="M706.56-48.64l-496.64 496.64 496.64 496.64 71.68-71.68-424.96-424.96 424.96-424.96z" />
<glyph unicode="&#xe615;" d="M512 145.92l-496.64 496.64 71.68 71.68 424.96-424.96 424.96 424.96 71.68-71.68z" />
<glyph unicode="&#xe616;" d="M798.72 273.92l-286.72 291.84-286.72-291.84-40.96 40.96 327.68 322.56 327.68-322.56z" />
<glyph unicode="&#xe617;" d="M378.88 120.32l-40.96 40.96 291.84 286.72-291.84 286.72 40.96 40.96 322.56-327.68z" />
<glyph unicode="&#xe618;" d="M645.12 120.32l-322.56 327.68 322.56 327.68 40.96-40.96-291.84-286.72 291.84-286.72z" />
<glyph unicode="&#xe619;" d="M512 258.56l-327.68 322.56 40.96 40.96 286.72-291.84 286.72 291.84 40.96-40.96z" />
<glyph unicode="&#xe61a;" d="M435.2 115.2c0-40.96-35.84-76.8-76.8-76.8s-76.8 35.84-76.8 76.8c0 40.96 35.84 76.8 76.8 76.8s76.8-35.84 76.8-76.8zM896 115.2c0-40.96-35.84-76.8-76.8-76.8s-76.8 35.84-76.8 76.8c0 40.96 35.84 76.8 76.8 76.8 40.96 0 76.8-35.84 76.8-76.8zM291.84 652.8l-76.8 204.8h-163.84v-102.4h92.16l184.32-512h542.72l102.4 409.6z" />
<glyph unicode="&#xe61b;" d="M512 960c-281.6 0-512-230.4-512-512s230.4-512 512-512 512 230.4 512 512c0 281.6-230.4 512-512 512z" />
<glyph unicode="&#xe61c;" d="M896 960h-578.56l-189.44-189.44v-834.56h768v1024z" />
</font>
</defs>
</svg>
