<?xml version="1.0" standalone="no"?>
<!DOCTYPE svg PUBLIC "-//W3C//DTD SVG 1.1//EN" "http://www.w3.org/Graphics/SVG/1.1/DTD/svg11.dtd" >
<svg xmlns="http://www.w3.org/2000/svg">
<metadata></metadata>
<defs>
<font id="century_schoolbook_probold" horiz-adv-x="1251" >
<font-face units-per-em="2048" ascent="1536" descent="-512" />
<missing-glyph horiz-adv-x="587" />
<glyph unicode="&#xfb01;" horiz-adv-x="1402" d="M74 0v92h88q44 0 68 22.5t24 61.5v651h-168v109h168q6 203 67.5 323t188.5 189q125 70 291 70q155 0 248.5 -70.5t93.5 -173.5q0 -67 -39.5 -109.5t-102.5 -42.5q-61 0 -102 37.5t-41 89.5q0 26 11 46t49 61q16 16 16 26q0 18 -29 31q-44 23 -106 23q-136 0 -208.5 -99.5 t-72.5 -320.5v-80h301q166 0 371 27v-787q0 -38 22.5 -61t59.5 -23h63v-92h-565v92h49q109 0 109 84v547q0 48 -26 76t-64 28h-320v-651q0 -41 21.5 -62.5t58.5 -21.5h72v-92h-596z" />
<glyph unicode="&#xfb02;" horiz-adv-x="1402" d="M80 0v92h63q64 0 90.5 23t26.5 69v643h-168v109h168q15 302 148 432q150 150 407 150q47 0 117 -13q37 -6 51 -6q61 0 211 21v-1346q0 -39 24 -60.5t68 -21.5h53v-92h-563v92h55q55 0 79 22t24 70v643h-408v-643q0 -92 92 -92h60v-92h-598zM526 936h408v203 q-70 43 -70 114q0 47 54 95q20 17 20 30q0 25 -31.5 40.5t-95.5 15.5q-135 0 -210 -91t-75 -266v-141z" />
<glyph unicode="&#xfb03;" horiz-adv-x="2076" d="M76 0v92h96q44 0 62 16.5t18 53.5v665h-162v109h162v39q0 274 116 408.5t332 134.5q130 0 205 -63.5t86 -164.5q2 -16 -2 -41l6 13q63 119 190 187.5t290 68.5q155 0 248.5 -70.5t93.5 -173.5q0 -67 -39.5 -109.5t-102.5 -42.5q-61 0 -102 37.5t-41 89.5q0 27 10.5 47 t48.5 60q17 17 17 26q0 18 -29 31q-44 23 -106 23q-136 0 -208.5 -99.5t-72.5 -320.5v-80h301q165 0 371 27v-787q0 -38 22.5 -61t59.5 -23h63v-92h-565v92h49q109 0 109 84v547q0 48 -26.5 76t-64.5 28h-319v-651q0 -41 21.5 -62.5t58.5 -21.5h71v-92h-575v92h88 q27 0 49.5 24t22.5 60v651h-410v-665q0 -38 16 -54t54 -16h86v-92h-598zM518 936h410q3 150 37 250q-12 -17 -21 -23q-52 -49 -117 -49q-60 0 -99.5 38.5t-39.5 94.5q0 58 62 105q28 22 28 37q0 14 -14 22q-22 14 -62 14q-52 0 -93.5 -30.5t-61.5 -85.5q-29 -89 -29 -176 v-197z" />
<glyph unicode="&#xfb04;" horiz-adv-x="2076" d="M80 0v92h96q44 0 62 16.5t18 53.5v665h-162v109h162v39q0 274 116.5 408.5t332.5 134.5q132 0 208 -64t76 -164q3 -39 -6 -73q40 97 94 151q150 150 408 150q47 0 117 -13q37 -6 51 -6q61 0 211 21v-1346q0 -39 24 -60.5t68 -21.5h53v-92h-563v92h55q55 0 79 22t24 70 v643h-408v-643q0 -92 92 -92h60v-92h-574v92h39q64 0 90.5 23t26.5 69v643h-408v-665q0 -36 14 -53t35 -17h107v-92h-598zM522 936h408q9 144 45 258q-6 -14 -19 -31q-40 -49 -120 -49q-60 0 -100 38.5t-40 94.5q0 58 62 105q28 22 28 37q-3 13 -18 22q-22 14 -61 14 q-52 0 -94 -30.5t-62 -85.5q-29 -89 -29 -176v-197zM1196 936h408v203q-70 43 -70 114q0 48 53 95q21 18 21 30q0 25 -31.5 40.5t-95.5 15.5q-135 0 -210 -91t-75 -266v-141z" />
<glyph horiz-adv-x="2048" />
<glyph horiz-adv-x="2048" />
<glyph unicode="&#xd;" horiz-adv-x="2048" />
<glyph unicode=" "  horiz-adv-x="587" />
<glyph unicode="&#x09;" horiz-adv-x="587" />
<glyph unicode="&#xa0;" horiz-adv-x="587" />
<glyph unicode="!" horiz-adv-x="606" d="M137 1311q0 95 48.5 151t125.5 56q75 0 123.5 -56t48.5 -147q0 -66 -51 -285q-55 -247 -72 -360q-12 -102 -12 -238h-74q0 146 -14 244q-14 97 -74 356q-49 206 -49 279zM141 143q0 72 50.5 123t119.5 51q73 0 122.5 -50.5t49.5 -123.5q0 -72 -49 -123t-121 -51t-122 51 t-50 123z" />
<glyph unicode="&#x22;" horiz-adv-x="681" d="M2 1266q0 77 36.5 118t100.5 41t102 -39.5t38 -107.5q0 -40 -23 -137l-92 -389h-45l-99 389q-18 71 -18 125zM406 1266q0 77 36.5 118t100.5 41t101.5 -39.5t37.5 -107.5q0 -40 -23 -137l-92 -389h-45l-98 389q-18 71 -18 125z" />
<glyph unicode="#" horiz-adv-x="1175" d="M-23 414v170h218l69 329h-287v168h320l86 398h166l-84 -398h301l84 398h168l-84 -398h182v-168h-215l-70 -329h285v-170h-315l-86 -394h-166l84 394h-305l-82 -394h-168l82 394h-183zM362 584h304l67 329h-303z" />
<glyph unicode="$" horiz-adv-x="1175" d="M150 289q0 81 44 130.5t111 49.5q65 0 105.5 -40.5t40.5 -104.5q0 -87 -68 -134q-26 -18 -32.5 -26t-6.5 -19q0 -27 39 -47q59 -32 168 -35v525q-180 82 -248 137q-60 48 -100 131q-35 81 -35 174q0 157 104 264q108 111 279 129v97h104v-97q76 0 164 -32 q97 -31 158 -107q61 -73 61 -151q0 -71 -44 -121.5t-105 -50.5q-54 0 -90.5 37.5t-36.5 93.5q0 36 31 90q28 48 28 65q0 33 -44.5 59t-121.5 27v-497q227 -103 314 -187q112 -112 112 -262q0 -160 -113 -271.5t-313 -140.5v-243h-104v243q-169 0 -287 86q-114 85 -114 228z M334 1120q0 -145 217 -239v450q-97 -10 -157 -70t-60 -141zM655 70q106 13 174 77t68 144q0 68 -47 127q-45 56 -195 133v-481z" />
<glyph unicode="%" horiz-adv-x="1705" d="M133 1061q0 158 84 262q85 102 207 102q124 0 205 -100q86 -100 86 -264t-86 -264q-85 -99 -207 -99q-123 0 -205 101q-84 104 -84 262zM311 0l983 1395h84l-983 -1395h-84zM330 1008q0 -150 30 -209q20 -45 66 -45q44 0 68 55q24 59 24 287q0 169 -31 229q-20 45 -63 45 q-48 0 -68 -51q-26 -62 -26 -311zM989 334q0 160 84 264q85 102 207 102q126 0 207 -100q84 -104 84 -266q0 -161 -86 -264q-83 -99 -207 -99q-120 0 -205 101q-84 104 -84 262zM1186 281q0 -147 31 -207q20 -45 63 -45q46 0 70 55q24 56 24 287q0 166 -28 227 q-20 45 -66 45q-47 0 -68 -49q-26 -65 -26 -313z" />
<glyph unicode="&#x26;" horiz-adv-x="1744" d="M113 373q0 291 385 461q-70 144 -90 210q-21 73 -21 140q0 140 111 235q111 99 288 99q176 0 274.5 -75.5t98.5 -195.5q0 -105 -86 -198.5t-289 -182.5q167 -285 349 -501q137 177 137 276q0 111 -189 119v90h568v-90q-104 0 -156 -37q-53 -38 -135 -184 q-72 -124 -154 -240q75 -80 124 -108.5t97 -28.5q66 0 107 50.5t47 152.5h86q0 -193 -80 -285q-89 -111 -254 -111q-82 0 -156.5 30.5t-177.5 109.5q-128 -79 -222.5 -109.5t-205.5 -30.5q-204 0 -331 115q-125 116 -125 289zM395 494q0 -132 94 -254q95 -121 236 -121 q96 0 199 65q-141 177 -211 277q-54 81 -172 280q-80 -59 -113 -116t-33 -131zM633 1249q0 -115 108 -303q114 53 158.5 116.5t44.5 164.5q0 97 -41.5 147.5t-114.5 50.5q-69 0 -112 -47.5t-43 -128.5z" />
<glyph unicode="'" horiz-adv-x="493" d="M109 1253q0 77 36.5 118.5t100.5 41.5t101.5 -39.5t37.5 -107.5q0 -41 -23 -138l-92 -389h-45l-98 389q-18 70 -18 125z" />
<glyph unicode="(" horiz-adv-x="796" d="M143 563q0 187 56 338q62 158 198 322q141 169 322 295l35 -60q-163 -180 -224 -358q-77 -233 -77 -545q0 -313 82 -543q66 -187 219 -346l-35 -61q-315 234 -453 475q-123 212 -123 483z" />
<glyph unicode=")" horiz-adv-x="796" d="M53 -336q108 112 167 229t95 285q37 167 37 383q0 341 -94 586q-64 168 -205 309l35 62q304 -219 449 -471q125 -213 125 -486q0 -315 -168 -553t-406 -405z" />
<glyph unicode="*" horiz-adv-x="1024" d="M43 1128q0 61 37 99.5t94 38.5q36 0 80 -23q24 -15 88 -76q64 -64 88 -82q37 -20 68 -32q0 46 -6 67q-7 30 -39 86q-39 76 -51.5 111t-12.5 63q0 61 37 99.5t94 38.5q61 0 97 -35.5t36 -93.5q0 -26 -10 -64q-11 -41 -47 -115q-33 -64 -41 -90.5t-8 -66.5q41 13 78 39 q18 13 73 71q58 61 92 81t74 20q60 0 97.5 -37t37.5 -97q0 -61 -40 -97t-111 -36q-12 0 -105 11q-92 10 -110 10t-70 -10q24 -31 41 -43q8 -6 107 -58q82 -44 96 -55q49 -40 49 -109q0 -60 -39.5 -98.5t-99.5 -38.5q-63 0 -99 51q-27 39 -47 156q-16 96 -24 115 q-11 29 -27 53q-26 -50 -37 -121q-18 -121 -39 -164q-18 -41 -53 -65q-36 -25 -74 -25q-51 0 -89 40t-38 97q0 45 23 77t88 67q108 60 135 78q24 17 47 43q-41 12 -69 12q-33 0 -142 -16q-61 -7 -69 -7q-75 0 -117.5 35.5t-42.5 95.5z" />
<glyph unicode="+" horiz-adv-x="1241" d="M59 600v186h467v467h187v-467h469v-186h-469v-465h-187v465h-467z" />
<glyph unicode="," horiz-adv-x="569" d="M96 162q0 68 52.5 118t125.5 50q89 0 152 -72.5t63 -181.5q0 -123 -84 -238t-243 -192l-33 59q115 67 170 135t55 123q0 31 -24 31l-19 -4q-28 -4 -41 -4q-72 0 -123 51t-51 125z" />
<glyph unicode="-" horiz-adv-x="681" d="M31 377v188h626v-188h-626z" />
<glyph unicode="." horiz-adv-x="569" d="M117 141q0 69 49.5 119.5t118.5 50.5t118.5 -50.5t49.5 -119.5q0 -72 -49.5 -122t-118.5 -50t-118.5 50t-49.5 122z" />
<glyph unicode="/" horiz-adv-x="569" d="M-37 0l455 1479h188l-452 -1479h-191z" />
<glyph unicode="0" horiz-adv-x="1175" d="M106 690q0 231 67 404t177 254q109 77 244 77q276 0 405 -325q70 -174 70 -404q0 -226 -67 -397.5t-179 -251.5q-110 -78 -237 -78q-196 0 -322 172q-158 214 -158 549zM412 639q0 -343 61 -483q40 -88 113 -88q53 0 88.5 44t58.5 164q33 168 33 383q0 442 -57 576 q-43 98 -119 98q-89 0 -135 -143q-43 -139 -43 -551z" />
<glyph unicode="1" horiz-adv-x="1175" d="M201 1171v91q146 8 264 38q96 27 219 93h72v-1225q0 -36 20 -56t55 -20h187v-92h-776v92h145q55 0 78.5 25t23.5 82v907q0 65 -77 65h-211z" />
<glyph unicode="2" horiz-adv-x="1175" d="M123 6v86q69 113 289 359q186 209 247 319q76 143 76 293q0 126 -55.5 192t-155.5 66q-99 0 -164 -53t-65 -111q0 -23 14 -37q14 -11 72 -26q121 -35 121 -136q0 -67 -47.5 -112t-116.5 -45q-75 0 -121.5 62.5t-46.5 172.5q0 157 100 260q126 129 340 129q195 0 310 -106 q118 -106 118 -264q0 -81 -28 -154q-40 -92 -105 -170q-64 -72 -219 -186q-132 -94 -231 -174q-58 -50 -115 -113h461q66 0 100 43q38 45 62 186h98l-31 -481h-907z" />
<glyph unicode="3" horiz-adv-x="1175" d="M143 313q0 90 45.5 142.5t118.5 52.5q66 0 108 -40.5t42 -102.5q0 -84 -86 -134q-35 -20 -43.5 -29t-8.5 -26q0 -34 48 -65q70 -43 155 -43q115 0 178.5 77.5t63.5 233.5q0 153 -57.5 231t-153.5 78q-23 0 -57 -6q-35 -6 -54 -6q-59 0 -59 59q0 62 68 62q23 0 41 -2 q40 -4 51 -4q89 0 141 61q49 61 49 205q0 270 -213 270q-65 0 -104 -22.5t-39 -49.5q0 -14 5.5 -21.5t29.5 -25.5q46 -37 61.5 -65t15.5 -66q0 -60 -40 -99.5t-101 -39.5q-63 0 -107 50t-44 124q0 111 82 199q105 114 303 114t314 -99t116 -247q0 -216 -277 -327 q163 -44 247.5 -142t84.5 -237q0 -183 -131 -293.5t-361 -110.5q-200 0 -316 96t-116 248z" />
<glyph unicode="4" horiz-adv-x="1175" d="M100 344v135l682 942h95v-966h198v-111h-198v-170q0 -82 96 -82h53v-92h-623v92h103q58 0 80 25q28 28 28 88v139h-514zM201 455h413v571z" />
<glyph unicode="5" horiz-adv-x="1175" d="M133 299q0 87 49 141t123 54q65 0 107.5 -41.5t42.5 -102.5q0 -45 -23 -76t-84 -61q-45 -20 -45 -43q0 -34 43 -61q62 -39 154 -39q239 0 239 395q0 176 -60 263t-163 87q-92 0 -209 -67q0 -75 -17 -105.5t-54 -30.5q-29 0 -46.5 16.5t-17.5 41.5q0 39 53 116l43 641 q218 -45 402 -45q136 0 227 31q37 12 43 12q12 0 12 -18q0 -70 -52 -144.5t-134 -111.5q-81 -37 -209 -37q-97 0 -217 21l-23 -277q145 68 267 68q191 0 327 -127q138 -126 138 -338q0 -216 -142 -355q-137 -137 -368 -137q-181 0 -295 97q-111 94 -111 233z" />
<glyph unicode="6" horiz-adv-x="1175" d="M131 637q0 367 180 590q158 198 396 198q154 0 241 -75q92 -74 92 -174q0 -72 -43.5 -118t-109.5 -46q-57 0 -96 39.5t-39 99.5q0 45 24 88q17 31 17 41q0 57 -86 57q-125 0 -189 -141q-77 -174 -74 -471q132 135 281 135q144 0 256 -100q115 -103 115 -303 q0 -220 -129 -355q-130 -133 -338 -133q-218 0 -348 160q-150 185 -150 508zM442 412q0 -176 64 -277q47 -72 121 -72q83 0 131.5 84t48.5 261q0 173 -44.5 247t-125.5 74q-80 0 -137.5 -85t-57.5 -232z" />
<glyph unicode="7" horiz-adv-x="1175" d="M162 915l67 500h41q50 -20 129 -20h688v-86q-128 -253 -186 -408q-53 -142 -78 -266q-25 -122 -47 -377q-12 -140 -31 -190q-15 -45 -55 -72t-92 -27q-69 0 -106 40t-37 118q0 43 12 98q14 80 51 178q54 134 135 289l252 453h-491q-70 0 -97 -41q-25 -38 -63 -189h-92z " />
<glyph unicode="8" horiz-adv-x="1175" d="M135 334q0 120 72 200.5t248 141.5q-148 70 -206.5 151.5t-58.5 202.5q0 164 121 279q122 116 310 116q181 0 297 -90q112 -87 112 -205q0 -92 -54.5 -164t-189.5 -141q178 -77 246 -168q68 -92 68 -231q0 -203 -133 -330t-361 -127q-218 0 -344.5 101t-126.5 264z M354 348q0 -134 74.5 -210.5t198.5 -76.5q128 0 208 71.5t80 184.5q0 107 -77 172q-76 64 -297 148q-97 -41 -142 -110t-45 -179zM387 1130q0 -84 59 -143q59 -60 265 -133q78 59 107.5 113t29.5 133q0 106 -65 171.5t-173 65.5q-98 0 -160.5 -58t-62.5 -149z" />
<glyph unicode="9" horiz-adv-x="1175" d="M127 936q0 222 130 355.5t343 133.5q216 0 342 -153q150 -188 150 -500q0 -367 -183 -600q-159 -203 -393 -203q-145 0 -246 78q-96 81 -96 174q0 74 44.5 122t111.5 48q60 0 99.5 -40.5t39.5 -102.5q0 -32 -27 -84q-14 -28 -14 -49q0 -22 16 -35q28 -19 68 -19 q42 0 79.5 18t72 62.5t59.5 112.5t40.5 173.5t16.5 240.5l-14 -15q-130 -112 -270 -112q-132 0 -236 84q-133 112 -133 311zM412 981q0 -309 172 -309q89 0 145.5 89.5t56.5 256.5q0 176 -65 256q-52 61 -121 61q-91 0 -139.5 -83t-48.5 -271z" />
<glyph unicode=":" horiz-adv-x="569" d="M123 141q0 71 50.5 121.5t119.5 50.5q72 0 121 -50t49 -122t-49 -122t-121 -50q-69 0 -119.5 50.5t-50.5 121.5zM123 799q0 70 49.5 120t120.5 50t120.5 -50t49.5 -120q0 -72 -49 -121t-121 -49t-121 49t-49 121z" />
<glyph unicode=";" horiz-adv-x="569" d="M94 160q0 69 52.5 119.5t125.5 50.5q89 0 152 -72.5t63 -181.5q0 -123 -83 -238.5t-244 -191.5l-35 61q113 62 162 121q63 78 63 139q0 25 -22 25q-15 0 -29 -2q-28 -4 -35 -4q-68 0 -119 51.5t-51 122.5zM121 801q0 70 50 121t122 51q69 0 120.5 -51.5t51.5 -120.5 q0 -71 -51 -121.5t-121 -50.5q-72 0 -122 50t-50 122z" />
<glyph unicode="&#x3c;" horiz-adv-x="1241" d="M61 608v170l1119 469v-205l-865 -348l865 -350v-205z" />
<glyph unicode="=" horiz-adv-x="1241" d="M61 360v189h1119v-189h-1119zM61 842v188h1119v-188h-1119z" />
<glyph unicode="&#x3e;" horiz-adv-x="1241" d="M61 139v205l865 350l-865 348v205l1119 -469v-170z" />
<glyph unicode="?" horiz-adv-x="1024" d="M111 1186q0 134 108 233q111 99 289 99q175 0 285 -107q112 -106 112 -256q0 -61 -20.5 -122t-55.5 -105q-38 -51 -124 -123q-94 -79 -127 -123q-33 -45 -52 -109q-18 -59 -18 -143h-74l-2 72q0 106 19 180q19 77 67 166q67 123 84 182q23 80 23 150q0 118 -50.5 181.5 t-132.5 63.5q-60 0 -103.5 -31t-43.5 -65q0 -25 31 -47q55 -33 69 -53q25 -36 25 -80q0 -62 -44 -107t-104 -45q-67 0 -114 53t-47 136zM301 143q0 72 50 122t122 50t122 -50t50 -122t-50 -123t-122 -51t-122 51t-50 123z" />
<glyph unicode="@" horiz-adv-x="1529" d="M27 705q0 349 233 579q237 234 594 234q284 0 450 -161.5t166 -428.5q0 -275 -174 -449q-147 -147 -335 -147q-85 0 -131 41.5t-46 115.5q0 43 21 113q-99 -165 -168 -221q-64 -49 -129 -49q-63 0 -103 51.5t-40 142.5q0 154 75 310q74 159 181 239q106 80 188 80 q100 0 121 -133l28 100l209 8l-157 -536q-25 -92 -25 -127t19.5 -54.5t52.5 -19.5q64 0 155 70q95 73 152 196q59 127 59 265q0 238 -151 389t-398 151q-214 0 -384 -99.5t-273 -285.5q-100 -181 -100 -403q0 -297 188 -488q188 -188 481 -188q240 0 431 129 q192 131 272 344h53q-102 -250 -299.5 -384t-458.5 -134q-330 0 -544 211q-213 213 -213 539zM586 573q0 -86 51 -86q25 0 70 45q76 76 129 203q55 128 55 242q0 117 -60 117q-30 0 -65 -35q-65 -68 -125 -221q-55 -149 -55 -265z" />
<glyph unicode="A" horiz-adv-x="1554" d="M-27 0v92h31q55 0 96 35q54 43 90 123l531 1266h113l555 -1328q23 -54 51 -75t73 -21h56v-92h-695v92h64q74 0 104.5 16.5t30.5 47.5q0 18 -10 51l-117 272h-551l-53 -125q-35 -78 -35 -114q0 -67 48 -107.5t132 -40.5h48v-92h-562zM436 578h469l-233 563z" />
<glyph unicode="B" horiz-adv-x="1593" d="M86 0v92h135q33 0 53 23q25 28 25 67v1145q0 59 -98 59h-115v93h897q209 0 328 -101q121 -100 121 -245q0 -262 -381 -361q246 -42 355.5 -136.5t109.5 -246.5q0 -130 -76 -221q-58 -70 -195 -119t-311 -49h-848zM616 178q0 -41 17.5 -63.5t48.5 -22.5h192 q143 0 223.5 78.5t80.5 224.5q0 158 -86 240t-250 82h-226v-539zM616 809h166q172 0 247 71.5t75 237.5q0 145 -72 205q-70 61 -270 61q-91 0 -118.5 -15.5t-27.5 -61.5v-498z" />
<glyph unicode="C" horiz-adv-x="1593" d="M160 733q0 375 235 594q203 191 473 191q109 0 200.5 -34.5t195.5 -115.5l69 148h74l25 -594h-93q-41 248 -157.5 375.5t-276.5 127.5q-167 0 -278 -159q-109 -160 -109 -504q0 -366 121 -543q95 -139 287 -139q187 0 317 139q92 102 129 297h90q-30 -254 -192 -399 q-165 -148 -396 -148q-303 0 -509 215q-205 214 -205 549z" />
<glyph unicode="D" horiz-adv-x="1705" d="M78 0v92h123q44 0 67 24.5t23 69.5v1114q0 45 -24.5 65.5t-80.5 20.5h-108v93h794h16q150 -1 280 -53q138 -56 233 -153.5t149 -235.5q54 -136 54 -290v-6q0 -449 -340 -645q-172 -96 -363 -96h-823zM610 186q0 -49 20.5 -71.5t65.5 -22.5h109q135 0 241.5 69.5 t153.5 188.5q47 121 47 371q0 254 -52.5 397.5t-154.5 206.5q-95 59 -278 59q-96 0 -124 -15.5t-28 -61.5v-1121z" />
<glyph unicode="E" horiz-adv-x="1554" d="M72 0v92h133q43 0 67.5 23.5t24.5 62.5v1139q0 36 -24.5 52.5t-84.5 16.5h-116v93h1288l29 -516h-89q-30 182 -77 262q-45 80 -123 121q-76 40 -197 40h-203q-88 0 -88 -69v-514h70q121 0 185.5 68.5t74.5 218.5h90v-689h-90q-7 169 -71.5 240.5t-200.5 71.5h-58v-547 q0 -36 21 -51q38 -23 92 -23h178q186 0 301.5 120t141.5 351h90l-23 -563h-1341z" />
<glyph unicode="F" horiz-adv-x="1478" d="M92 0v92h131q46 0 71 24t25 62v1131q0 44 -25.5 60.5t-98.5 16.5h-103v93h1307l14 -510h-90q-24 235 -111 325q-86 92 -266 92h-219q-92 0 -92 -77v-496h80q239 0 276 285h86v-682h-86q-6 151 -73 230t-183 79h-100v-541q0 -42 22 -61q36 -31 78 -31h142v-92h-785z" />
<glyph unicode="G" horiz-adv-x="1705" d="M104 729q0 347 211 567q213 222 521 222q114 0 203.5 -34t187.5 -118l84 152h71l35 -592h-88q-70 256 -188.5 377.5t-274.5 121.5q-71 -2 -130.5 -24.5t-112 -72.5t-88.5 -125.5t-57 -190.5q-19 -109 -19 -246v-14q0 -284 43 -420q47 -136 135 -203q91 -66 207 -66 q152 0 239.5 87t87.5 231v135q0 74 -75 74h-156v92h717v-92h-90q-90 0 -90 -74v-545h-78l-125 248q-85 -129 -196 -189.5t-263 -60.5q-150 1 -282 56t-228.5 152t-150.5 241q-50 133 -50 288v23z" />
<glyph unicode="H" horiz-adv-x="1781" d="M111 0v92h110q74 0 74 84v1114q0 53 -23 74.5t-75 21.5h-86v93h686v-93h-103q-41 0 -62.5 -18.5t-21.5 -50.5v-486h564v459q0 54 -22.5 75t-76.5 21h-86v93h686v-93h-92q-50 0 -73 -19.5t-23 -61.5v-1119q0 -94 86 -94h102v-92h-686v92h105q43 0 61.5 20t18.5 64v533 h-564v-533q0 -84 68 -84h119v-92h-686z" />
<glyph unicode="I" horiz-adv-x="909" d="M76 0v92h114q59 0 84 20t25 60v1133q0 42 -21.5 61.5t-70.5 19.5h-131v93h758v-93h-138q-44 0 -64 -16.5t-20 -52.5v-1145q0 -42 21 -57q30 -23 78 -23h123v-92h-758z" />
<glyph unicode="J" horiz-adv-x="1327" d="M86 352q0 116 66 190t165 74q82 0 139.5 -55.5t57.5 -134.5q0 -76 -40 -123t-99 -47q-9 0 -37 4q-27 8 -43 8q-29 0 -39 -10t-10 -35q0 -59 57 -98q79 -55 191 -55q123 0 191.5 79.5t68.5 229.5v919q0 88 -86 88h-150v93h727v-93h-86q-49 0 -70.5 -21.5t-21.5 -66.5v-899 q0 -186 -135 -309q-136 -121 -367 -121q-213 0 -346 115q-133 118 -133 268z" />
<glyph unicode="K" horiz-adv-x="1669" d="M92 0v92h107q44 0 67 20.5t23 57.5v1147q0 69 -90 69h-107v93h733v-93h-118q-58 0 -79.5 -17.5t-21.5 -59.5v-654l488 564q43 49 43 90q0 35 -27 53q-38 24 -96 24h-41v93h608v-93h-39q-81 0 -151 -40q-101 -61 -205 -183l-189 -217l439 -756q27 -49 65 -69 q53 -29 98 -29h60v-92h-727v92h74q57 0 84.5 15t27.5 38q0 14 -8 25l-315 545l-189 -219v-326q0 -38 20 -58t56 -20h135v-92h-725z" />
<glyph unicode="L" horiz-adv-x="1478" d="M86 0v92h129q42 0 64 22.5t22 61.5v1133q0 42 -22 59.5t-76 17.5h-117v93h758v-93h-127q-55 0 -78 -21t-23 -69v-1099q0 -68 21.5 -86.5t99.5 -18.5h213q125 0 226 119t153 356h90l-33 -567h-1300z" />
<glyph unicode="M" horiz-adv-x="2009" d="M63 0v92q104 10 162 74t58 164v954q0 61 -20.5 81.5t-82.5 20.5h-117v93h596l336 -1002l336 1002h608v-93h-131q-49 0 -67.5 -18t-18.5 -61v-1131q0 -44 21 -59q28 -25 80 -25h116v-92h-749v92h141q38 0 59 22.5t21 61.5v1210l-473 -1386h-86l-469 1399v-1082 q0 -94 59.5 -153.5t169.5 -71.5v-92h-549z" />
<glyph unicode="N" horiz-adv-x="1705" d="M63 0v92h41q88 0 147.5 71t59.5 179v956q-64 88 -170 88h-65v93h459l800 -1014v688q0 103 -58.5 164.5t-164.5 68.5v93h541v-93q-114 -12 -162.5 -66.5t-48.5 -166.5v-1153h-117l-911 1167v-809q0 -133 61 -199.5t160 -66.5h24v-92h-596z" />
<glyph unicode="O" horiz-adv-x="1705" d="M98 741q0 339 215 557q217 220 533 220h5q151 0 291 -58q142 -60 245 -162t163 -246q56 -135 56 -284v-20q0 -330 -220 -558q-218 -221 -538 -221q-158 0 -296.5 58.5t-238.5 160t-157.5 245.5t-57.5 308zM455 743q0 -264 47 -403q49 -136 139 -205q89 -65 213 -65 q177 0 285 153q106 150 106 535q0 266 -47 399q-48 135 -135 199q-89 65 -211 65q-397 0 -397 -678z" />
<glyph unicode="P" horiz-adv-x="1554" d="M127 0v92h131q43 0 66.5 22.5t23.5 61.5v1129q0 36 -23.5 58.5t-56.5 22.5h-141v93h866q222 0 353 -119q135 -117 135 -289q0 -128 -77.5 -226t-209.5 -143q-128 -43 -256 -43h-274v-483q0 -38 22 -61t59 -23h170v-92h-788zM664 750h182q93 0 168.5 40t107.5 99 q31 60 31 190q0 179 -96 254q-71 53 -242 53q-94 0 -122.5 -15t-28.5 -56v-565z" />
<glyph unicode="Q" horiz-adv-x="1705" d="M100 743q0 336 213 555q217 220 535 220q317 0 536 -222q220 -220 220 -542q0 -199 -75.5 -355t-238.5 -290q66 -192 115 -252q35 -41 70 -41q37 0 54 28t23 111h90q-1 -162 -85.5 -258t-215.5 -96q-135 0 -209 89.5t-94 301.5q-97 -23 -192 -23q-312 0 -531 219 q-215 221 -215 555zM457 737q0 -303 82 -471q6 143 92 224t233 81q218 0 332 -221q49 180 49 420v16q0 619 -395 633q-117 0 -207 -68.5t-131 -191.5q-55 -171 -55 -422zM639 266q0 -83 53 -157q74 -39 158 -39q119 0 188 55l2 55q0 144 -55.5 219.5t-150.5 75.5 q-80 0 -137.5 -61t-57.5 -148z" />
<glyph unicode="R" horiz-adv-x="1669" d="M121 0v92h117q44 0 67 23.5t23 66.5v1114q0 90 -80 90h-127v93h772q269 0 405 -101.5t136 -265.5q0 -159 -146 -262q-115 -79 -342 -100q115 -20 178 -61t111 -124q58 -97 102 -260q28 -99 45 -121q18 -24 43 -24q66 0 78 174h88q-10 -183 -81 -264.5t-207 -81.5 q-177 0 -240 151q-20 48 -49 203q-36 182 -68 250q-26 62 -76 94q-44 33 -116 33h-109v-547q0 -35 21 -53q30 -27 69 -27h135v-92h-749zM645 809h125q166 0 262 84q72 66 72 219q0 144 -72 208t-246 64q-95 0 -118 -20q-23 -23 -23 -90v-465z" />
<glyph unicode="S" horiz-adv-x="1366" d="M92 -14v546h86q132 -469 533 -469q160 0 253 74.5t93 190.5q0 157 -164 219q-39 15 -227 57q-246 52 -351 111q-103 57 -153 141q-49 82 -49 205q0 202 135 328q135 129 364 129q218 0 402 -152l92 131h72l8 -510h-90q-67 214 -195.5 326t-288.5 112q-135 0 -217 -73 q-84 -72 -84 -172q0 -126 140 -197q73 -35 258 -72q223 -48 297 -82q260 -114 260 -385q0 -203 -142 -327q-171 -148 -419 -148q-233 0 -422 162l-117 -145h-74z" />
<glyph unicode="T" horiz-adv-x="1478" d="M70 918l30 561h1295l32 -561h-92q-22 131 -57 223.5t-80 144.5t-95 75t-110 23q-88 0 -88 -71v-1145q0 -32 20.5 -54t51.5 -22h168v-92h-793v92h160q37 0 58.5 20.5t21.5 55.5v1139q0 77 -90 77q-256 0 -344 -466h-88z" />
<glyph unicode="U" horiz-adv-x="1705" d="M63 1386v93h744v-93h-152q-31 0 -49 -22.5t-18 -65.5v-817q0 -172 91.5 -265t254.5 -93q121 0 217 51q73 41 117.5 128.5t44.5 215.5v629q0 116 -53 177.5t-146 61.5h-20v93h563v-93h-39q-85 0 -132.5 -64.5t-47.5 -166.5v-682q0 -224 -152 -364q-155 -140 -420 -140 q-187 0 -330 62t-204 162q-60 105 -60 262v829q0 60 -21 81t-79 21h-109z" />
<glyph unicode="V" horiz-adv-x="1554" d="M-25 1386v93h725v-93h-79q-75 0 -104.5 -15t-29.5 -44q0 -16 23 -80l371 -895l303 764q30 76 30 144q0 126 -147 126h-68v93h572v-93h-43q-57 0 -99.5 -39t-82.5 -135l-504 -1245h-119l-541 1309q-26 66 -61.5 88t-114.5 22h-31z" />
<glyph unicode="W" horiz-adv-x="2009" d="M-74 1386v93h596v-93h-55q-52 0 -71 -12t-19 -39q0 -17 6 -41l295 -872l256 762l-45 127q-15 40 -39 55q-33 20 -86 20h-74v93h686v-93h-63q-66 0 -92.5 -15.5t-26.5 -47.5q0 -14 6 -29l293 -872l244 770q12 35 12 68q0 60 -32 93t-87 33h-41v93h482v-93 q-150 -3 -197 -143l-410 -1270h-123l-348 1039l-350 -1039h-121l-452 1338q-13 41 -36 58t-61 17h-47z" />
<glyph unicode="X" horiz-adv-x="1478" d="M-76 0v92h37q44 0 98 31q84 51 129 104l390 463l-467 619q-36 48 -61.5 62.5t-69.5 14.5h-56v93h731v-93h-55q-70 0 -96.5 -12t-26.5 -37q0 -23 41 -82l248 -340l195 238q63 75 63 145q0 88 -102 88h-48v93h582v-93h-43q-55 0 -96.5 -23t-97.5 -85l-383 -455l489 -653 q37 -44 65.5 -61t65.5 -17h49v-92h-721v92h76q103 0 103 64q0 21 -31 57l-10 14l-277 375l-229 -283q-47 -59 -47 -122q0 -52 26 -72q33 -33 82 -33h55v-92h-608z" />
<glyph unicode="Y" horiz-adv-x="1478" d="M-10 1386v93h735v-93h-100q-53 0 -75 -12t-22 -37q0 -21 19 -57l307 -530l215 430q29 56 29 98q0 50 -37 79t-105 29h-45v93h572v-93q-97 -1 -157.5 -38.5t-102.5 -120.5l-297 -588v-465q0 -82 92 -82h153v-92h-811v92h152q53 0 73.5 19t20.5 63v414l-397 684 q-37 64 -79 89t-107 25h-33z" />
<glyph unicode="Z" horiz-adv-x="1366" d="M84 0v92l825 1294h-282q-175 0 -271.5 -98t-128.5 -323h-88l35 514h1088v-93l-830 -1294h379q75 3 131 25.5t104.5 74t84.5 141.5t61 222h90l-27 -555h-1171z" />
<glyph unicode="[" horiz-adv-x="796" d="M262 -371v1850h502v-93h-148q-45 0 -59 -20q-25 -28 -25 -82v-1470q0 -42 25 -64q26 -26 80 -26h127v-95h-502z" />
<glyph unicode="\" horiz-adv-x="1241" d="M35 1479h188l983 -1479h-188z" />
<glyph unicode="]" horiz-adv-x="796" d="M33 -270h147q41 0 64.5 26.5t23.5 71.5v1483q0 39 -20 53q-28 22 -74 22h-133v93h494v-1844h-502v95z" />
<glyph unicode="^" horiz-adv-x="1241" d="M176 762l412 717h65l412 -717h-211l-238 418l-237 -418h-203z" />
<glyph unicode="_" horiz-adv-x="1024" d="M-12 -154h1048v-102h-1048v102z" />
<glyph unicode="`" horiz-adv-x="681" d="M123 1370q0 43 35 77t82 34q44 0 80 -25t88 -96l151 -219l-27 -25l-286 129q-73 34 -98 60.5t-25 64.5z" />
<glyph unicode="a" d="M102 201q0 149 148 241q124 75 512 144v135q0 80 -54 130t-141 50q-65 0 -121 -29q-34 -18 -34 -36q0 -11 14 -31q27 -46 27 -88q0 -57 -37 -91t-99 -34q-66 0 -105.5 36.5t-39.5 96.5q0 97 104 170q133 92 326 92q150 0 260 -45q75 -30 119.5 -103.5t44.5 -176.5v-476 q0 -53 21 -77q23 -23 55 -23q28 0 76 31l43 -74q-62 -41 -109.5 -57.5t-107.5 -16.5q-88 0 -140 38t-96 136q-102 -99 -182.5 -136.5t-184.5 -37.5q-138 0 -218.5 65t-80.5 167zM397 250q0 -69 36 -107.5t99 -38.5q100 0 165 73t65 194v129q-212 -30 -289 -92 q-76 -58 -76 -158z" />
<glyph unicode="b" horiz-adv-x="1327" d="M55 1389v92l430 20v-692q72 94 152.5 136t179.5 42q175 0 293 -133q117 -132 117 -362q0 -241 -135 -388q-136 -145 -342 -145q-216 0 -351 172q-45 -68 -161 -172l-58 33q39 175 39 373v864q0 71 -14.5 104.5t-42.5 46.5q-18 9 -107 9zM485 453q0 -398 203 -398 q99 0 163 103t64 297t-60.5 292.5t-158.5 98.5q-59 0 -110 -41t-76 -117q-25 -80 -25 -235z" />
<glyph unicode="c" horiz-adv-x="1138" d="M94 449q0 235 158 387q157 151 418 151q181 0 283 -72.5t102 -185.5q0 -77 -43.5 -122.5t-116.5 -45.5q-61 0 -97 35.5t-36 91.5q0 53 39 115q16 29 16 39q0 20 -31 35q-44 24 -114 24q-131 0 -191 -84q-80 -112 -80 -336t78 -317q81 -90 203 -90q101 0 187.5 67 t140.5 197l77 -37q-62 -159 -189 -245.5t-300 -86.5q-236 0 -370 129.5t-134 350.5z" />
<glyph unicode="d" horiz-adv-x="1366" d="M98 459q0 243 127 385q128 143 320 143q101 0 180.5 -45t144.5 -143v426q0 71 -13 105.5t-40 47.5q-21 15 -94 15h-55v90l465 18v-1225q0 -88 11 -121.5t38 -52.5q25 -14 100 -14v-88l-385 -12l-27 182q-88 -113 -159 -154q-68 -36 -179 -36q-193 0 -313 129 q-121 130 -121 350zM416 494v-14q0 -99 14 -167q14 -73 44 -113t65.5 -57t87.5 -22q99 0 164 86q81 112 81 293q0 165 -71 260q-70 98 -166 98q-118 0 -172 -100q-47 -83 -47 -264z" />
<glyph unicode="e" horiz-adv-x="1175" d="M104 475q0 220 142 365q144 147 352 147q218 0 342 -132.5t127 -391.5h-657q4 -193 77 -289t199 -96q90 0 166.5 50.5t155.5 170.5l71 -43q-84 -151 -192.5 -216t-268.5 -65q-229 0 -372 140q-142 142 -142 360zM410 553h313q45 0 63.5 22t18.5 78q0 114 -52.5 179 t-136.5 65q-191 0 -206 -344z" />
<glyph unicode="f" horiz-adv-x="796" d="M76 0v92h96q44 0 62 16.5t18 53.5v665h-162v109h162v39q0 274 116 408.5t332 134.5q131 0 206 -64t75 -164q0 -77 -45 -126.5t-109 -49.5q-60 0 -99.5 38.5t-39.5 94.5q0 58 62 105q28 22 28 37q0 14 -14 22q-22 14 -62 14q-52 0 -93.5 -30.5t-61.5 -85.5 q-29 -89 -29 -176v-197h240v-109h-240v-665q0 -38 16 -54t54 -16h164v-92h-676z" />
<glyph unicode="g" d="M98 -188q0 53 47 94q44 38 199 74q-199 41 -199 190q0 72 38.5 119.5t133.5 83.5q-186 103 -186 276q0 148 122 243t345 95q150 0 272 -51q119 143 238 143q60 0 95.5 -34.5t35.5 -90.5q0 -49 -26.5 -78.5t-69.5 -29.5q-61 0 -84 63q-15 37 -39 37q-31 0 -76 -57 q109 -112 109 -232q0 -147 -120.5 -241t-344.5 -94l-107 2q-117 0 -162 -25q-43 -21 -43 -61q0 -35 27 -50q36 -20 113 -20l92 2q133 8 219 8q224 0 320 -63.5t96 -186.5q0 -140 -107 -225q-126 -102 -446 -102q-275 0 -383 63q-109 62 -109 148zM276 -190q0 -61 68 -94 t234 -33q226 0 329 53q76 40 76 100q0 59 -65 86q-46 21 -199 21q-282 0 -363 -37q-80 -41 -80 -96zM424 649q0 -113 47.5 -176t122.5 -63q72 0 121 65t49 178q0 114 -49 180t-123 66q-72 0 -120 -66.5t-48 -183.5z" />
<glyph unicode="h" horiz-adv-x="1402" d="M74 1386v93l442 22v-729q99 122 184 170q83 45 189 45q138 0 213 -84q84 -101 84 -276v-445q0 -90 82 -90h65v-92h-565v92h61q53 0 68 21q27 24 27 69v436q0 92 -51 148.5t-128 56.5q-97 0 -163 -81t-66 -214v-346q0 -44 21.5 -67t60.5 -23h70v-92h-582v92h80 q43 0 65.5 23.5t22.5 66.5v1100q0 49 -30.5 76.5t-82.5 27.5h-67z" />
<glyph unicode="i" horiz-adv-x="757" d="M115 0v92h61q49 0 69.5 24t20.5 81v540q0 52 -28.5 80.5t-81.5 28.5h-41v90l415 18v-794q0 -68 82 -68h64v-92h-561zM207 1313q0 67 48.5 115.5t115.5 48.5t115.5 -48.5t48.5 -115.5t-48 -114.5t-116 -47.5t-116 47.5t-48 114.5z" />
<glyph unicode="j" horiz-adv-x="720" d="M-74 -252q0 59 34 93t89 34q40 0 62.5 -20t35.5 -72q15 -62 48 -62q28 0 45.5 31.5t17.5 95.5v895q0 50 -27.5 78.5t-72.5 28.5h-60v86l422 27v-857q0 -130 -63 -247q-67 -125 -162 -187q-95 -65 -197 -65q-78 0 -125 39.5t-47 101.5zM197 1319q0 67 47.5 114.5 t115.5 47.5t116 -47.5t48 -114.5q0 -69 -48 -116.5t-116 -47.5t-115.5 47.5t-47.5 116.5z" />
<glyph unicode="k" horiz-adv-x="1366" d="M57 1399v90l443 12v-1028l276 223q68 56 68 92q0 25 -29 41.5t-86 16.5h-33v90h545v-90q-91 -3 -135 -23q-72 -26 -127 -75l-160 -132l346 -469q43 -55 103 -55h49v-92h-588v92h57q76 0 76 33q0 11 -8 22l-225 314l-129 -101v-186q0 -44 18.5 -63t59.5 -19h63v-92h-573 v92h71q99 0 99 101v1128q0 37 -24 57.5t-67 20.5h-90z" />
<glyph unicode="l" horiz-adv-x="720" d="M74 1386v93l438 22v-1331q0 -37 23 -57.5t65 -20.5h59v-92h-563v92h64q88 0 88 96v1092q0 50 -28.5 78t-76.5 28h-69z" />
<glyph unicode="m" horiz-adv-x="1972" d="M39 0v92h65q54 0 74.5 19t20.5 67v563q0 73 -62 97q-19 8 -94 8v90l387 20q24 -106 29 -206q94 120 182 169.5t195 49.5q224 0 294 -228q92 122 184.5 176t198.5 54q144 0 226 -88t82 -256v-449q0 -86 84 -86h59v-92h-561v92h57q52 0 74 21t22 65v408q0 110 -46 165.5 t-130 55.5q-69 0 -117 -31t-83 -102q-35 -72 -35 -139v-367q0 -36 20.5 -56t53.5 -20h77v-92h-575v92h63q54 0 70 19q25 22 25 61v424q0 98 -50 155.5t-129 57.5q-126 0 -198 -129q-37 -64 -37 -119v-366q0 -56 20 -76q27 -27 76 -27h55v-92h-577z" />
<glyph unicode="n" horiz-adv-x="1402" d="M98 0v92h76q42 0 65 24.5t23 69.5v557q0 49 -31.5 78t-85.5 29h-41v86l392 20q21 -86 30 -204q164 221 371 221q141 0 221 -92q80 -95 80 -260v-435q0 -49 23 -71.5t73 -22.5h54v-92h-564v92h60q92 0 92 94v408q0 101 -46.5 158t-125.5 57q-107 0 -172.5 -80.5 t-65.5 -228.5v-314q0 -44 23.5 -69t60.5 -25h72v-92h-584z" />
<glyph unicode="o" d="M88 477q0 219 150 363q150 147 380 147q157 0 289 -67.5t195 -178.5q65 -109 65 -262q0 -248 -168 -379t-378 -131h-4q-147 1 -269 67q-124 68 -194 184q-66 110 -66 239v18zM397 479q0 -237 62 -329q63 -91 166 -91q235 0 235 414q0 236 -65 328t-170 92 q-110 0 -169 -96t-59 -318z" />
<glyph unicode="p" horiz-adv-x="1366" d="M102 -293h29q52 0 72 10q13 6 28 33q7 18 7 80v887q0 67 -11 86q-10 22 -30 31q-16 11 -95 14v84l381 22q24 -103 27 -182q61 96 152.5 148.5t203.5 52.5q182 0 293 -129q113 -128 113 -367q0 -243 -116.5 -375.5t-313.5 -132.5q-103 0 -183 47.5t-149 149.5v-336 q0 -64 10 -84q9 -18 37 -27q20 -9 111 -12v-94h-566v94zM510 467q0 -179 70 -270q74 -95 163 -95q90 0 146 80q72 106 72 289q0 168 -58 262q-58 98 -162 98q-95 0 -163 -92t-68 -272z" />
<glyph unicode="q" horiz-adv-x="1327" d="M98 453q0 148 66 275.5t176 193.5q112 65 248 65q98 0 183 -38.5t175 -125.5q56 79 150 168l61 -28l-10 -56q-25 -128 -25 -225v-836q0 -68 9 -91t36 -34q22 -11 109 -14v-94h-582v94h31q63 0 89 10.5t38 32.5q10 20 10 82v336q-137 -199 -338 -199h-14q-166 0 -288 135 q-124 138 -124 339v10zM408 496q0 -176 66 -275.5t163 -99.5q98 0 160.5 98t62.5 299q0 183 -59.5 280t-149.5 97q-108 0 -175.5 -102t-67.5 -297z" />
<glyph unicode="r" horiz-adv-x="1062" d="M88 0v92h82q96 0 96 74v553q0 129 -116 129h-54v88l402 20v-305q35 151 120.5 234.5t196.5 83.5q91 0 146 -48.5t55 -127.5q0 -67 -37 -109.5t-92 -42.5q-48 0 -82.5 37t-34.5 92q0 29 16 66q11 22 11 26q0 27 -27 27q-36 0 -80 -41q-63 -63 -110 -203q-45 -134 -45 -278 v-201q0 -74 71 -74h137v-92h-655z" />
<glyph unicode="s" horiz-adv-x="1024" d="M115 328h82q109 -269 364 -269q102 0 159.5 40t57.5 100q0 53 -35 80q-34 27 -186 57q-169 36 -221 57q-203 78 -203 277q0 141 94 229t248 88q76 0 136.5 -18t127.5 -62l68 80h59l21 -319h-80q-65 126 -140.5 177.5t-187.5 51.5q-91 0 -140.5 -35t-49.5 -92 q0 -55 37 -82q44 -29 209 -63q145 -28 204 -52q97 -38 151 -115.5t54 -181.5q0 -131 -104 -219t-275 -88q-84 0 -149.5 20t-136.5 68l-70 -84h-78z" />
<glyph unicode="t" horiz-adv-x="872" d="M43 827v93q155 20 239.5 118t104.5 283h90v-385h309v-109h-309v-594q0 -59 29.5 -91.5t79.5 -32.5q138 0 147 262h90q-3 -197 -92 -299.5t-242 -102.5q-123 0 -200.5 79t-77.5 204v575h-168z" />
<glyph unicode="u" horiz-adv-x="1402" d="M82 846v90l418 25v-625q0 -86 47 -137.5t123 -51.5q102 0 168 84q63 81 63 197v307q0 53 -29 82t-81 29h-48v90l422 25v-758q0 -51 32 -81t83 -30h43v-92l-385 -12q-26 112 -29 215q-96 -120 -184.5 -171.5t-189.5 -51.5q-142 0 -224 95t-82 281v373q0 63 -31.5 89.5 t-115.5 27.5z" />
<glyph unicode="v" d="M43 848v88h559v-88h-47q-52 0 -73 -13.5t-21 -41.5q0 -26 22 -68l240 -444l209 415q16 32 16 62q0 87 -141 90v88h407v-88q-55 -6 -84.5 -26t-54.5 -68l-393 -787h-72l-432 795q-29 53 -50.5 69.5t-59.5 16.5h-25z" />
<glyph unicode="w" horiz-adv-x="1820" d="M102 848v88h484v-88h-29q-80 0 -80 -45q0 -14 6 -29l197 -432l170 401q-41 78 -64 91q-22 14 -84 14v88h525v-88h-33q-84 0 -84 -49q0 -31 14 -56l187 -401l159 389q7 21 7 37q0 36 -20.5 58t-53.5 22h-39v88h373v-88q-115 -9 -164 -127l-303 -754h-76l-289 647 l-262 -647h-76l-356 807q-21 43 -41.5 58t-67.5 16z" />
<glyph unicode="x" d="M68 0v92h34q79 0 162 86l240 246l-275 344q-50 57 -69 66q-18 13 -82 16v86h553v-86h-39q-37 0 -51.5 -8.5t-14.5 -26.5q0 -12 11 -27l145 -186l123 129q35 38 35 64q0 24 -21 36q-29 19 -78 19h-20v86h428v-86q-65 -6 -103.5 -25t-91.5 -73l-213 -222l285 -360 q44 -50 82 -66q27 -12 90 -12v-92h-592v92h56q63 0 63 33q0 15 -14 35l-152 192l-141 -145q-21 -21 -21 -47q0 -30 21.5 -49t54.5 -19h45v-92h-450z" />
<glyph unicode="y" d="M61 -219q0 55 35.5 91t89.5 36q55 0 90 -34.5t35 -86.5q0 -19 -6 -43q-4 -20 -4 -25q0 -22 27 -22q48 0 118.5 78t147.5 233l-399 768q-23 42 -45.5 58t-55.5 16h-26v86h553v-86h-54q-88 0 -88 -49q0 -26 19 -58l231 -454l197 411q16 37 16 62q0 88 -119 88h-28v86h407 v-86q-59 -1 -95 -26t-63 -81l-372 -782q-96 -202 -201 -291q-82 -67 -182 -67q-102 0 -165 50.5t-63 127.5z" />
<glyph unicode="z" horiz-adv-x="1099" d="M111 0v92l557 754h-222q-78 0 -128 -59.5t-72 -194.5h-90l18 344h809v-90l-559 -754h264q90 0 146 65t81 218h89l-21 -375h-872z" />
<glyph unicode="{" horiz-adv-x="796" d="M121 539v61q90 17 142 72t52 129q0 44 -24 155q-33 138 -33 197q0 89 57 177t152 138q78 41 240 50v-50q-100 -18 -144.5 -65t-44.5 -127q0 -43 25 -152q30 -132 30 -194q0 -123 -94.5 -222.5t-269.5 -142.5q362 -88 362 -381q0 -25 -4 -61q-14 -72 -22 -103 q-27 -114 -27 -161q0 -86 39 -125q56 -56 150 -70v-49q-177 0 -314 98q-137 94 -137 258q0 55 35 207q22 123 22 160q0 71 -51 126t-141 75z" />
<glyph unicode="|" horiz-adv-x="1241" d="M526 -387v1866h189v-1866h-189z" />
<glyph unicode="}" horiz-adv-x="796" d="M90 -334q100 18 144.5 65.5t44.5 127.5q0 37 -23 149q-33 126 -33 197q0 122 95 220.5t270 141.5q-192 55 -277.5 147.5t-85.5 235.5q0 26 4 62q7 34 23 100q27 117 27 164q0 86 -39 125q-52 52 -150 67v50q120 0 234 -54q109 -50 163 -129t54 -172q0 -61 -33 -207 q-25 -122 -25 -159q0 -70 52 -125.5t141 -73.5v-63q-91 -18 -143 -73t-52 -128q0 -44 27 -158q31 -146 31 -194q0 -104 -68.5 -197.5t-173.5 -134.5q-62 -26 -207 -35v51z" />
<glyph unicode="~" horiz-adv-x="1241" d="M63 510q7 169 82 257.5t197 88.5q58 0 123 -18q95 -26 262 -101q90 -40 143 -55q27 -8 68 -8q73 0 120 47.5t54 132.5h66q-6 -163 -83.5 -254.5t-197.5 -91.5q-57 0 -121 18q-46 13 -264 103q-145 59 -213 59q-145 0 -172 -178h-64z" />
<glyph unicode="&#xa1;" horiz-adv-x="606" d="M137 975q0 71 51 121.5t121 50.5q72 0 122 -50t50 -122t-50 -122t-122 -50q-70 0 -121 50.5t-51 121.5zM139 -195q0 64 51 283q57 259 70 363q14 95 14 237h74q0 -141 14 -242q14 -99 74 -360q47 -211 47 -276q0 -95 -48 -151t-124 -56q-75 0 -123.5 55.5t-48.5 146.5z " />
<glyph unicode="&#xa2;" horiz-adv-x="1175" d="M102 446q0 219 138 369q156 172 430 172q113 0 217 -26l110 206h103l-133 -254q98 -67 98 -190q0 -72 -44 -118t-112 -46q-67 0 -106 39l-252 -477q57 -45 139 -45q212 0 326 262l84 -33q-132 -336 -479 -336q-77 0 -142 15l-192 -365h-105l203 381q-283 126 -283 446z M412 510q0 -117 16 -190t53 -134l344 662q-29 51 -143 51q-132 0 -193 -82q-77 -103 -77 -307z" />
<glyph unicode="&#xa3;" horiz-adv-x="1175" d="M-20 184q0 95 76.5 162.5t193.5 67.5q84 0 211 -39q-5 54 -23 110q-13 43 -78 154h-254v109h211q-47 146 -47 243q0 178 125 297t322 119q159 0 257.5 -79t98.5 -198q0 -95 -44.5 -143.5t-125.5 -48.5q-57 0 -92 34t-35 91q0 78 55 121q28 24 29 28q10 17 10 31 q0 33 -36 55.5t-99 22.5q-100 0 -156.5 -56.5t-56.5 -154.5q0 -38 6 -72q9 -45 39 -127q26 -73 51 -163h334v-109h-317q14 -106 14 -156q0 -67 -24 -153l71 -33q88 -40 136.5 -54t91.5 -14q85 0 143 82l82 -55q-48 -155 -126.5 -225t-191.5 -70q-78 0 -153 33.5t-168 116.5 q-139 -148 -287 -148q-109 0 -176 61.5t-67 159.5zM74 170q0 -52 39.5 -86.5t105.5 -34.5q126 0 203 133q-103 92 -203 92q-67 0 -106 -29t-39 -75z" />
<glyph unicode="&#xa4;" horiz-adv-x="1241" d="M35 287l135 133q-82 131 -82 264t82 252l-135 139l125 125l133 -135q121 84 260 84q141 0 262 -84l135 135l123 -125l-133 -139q82 -128 82 -262q0 -135 -82 -254l133 -133l-123 -123l-135 133q-128 -84 -264 -84t-258 84l-133 -133zM264 680q0 -120 84 -207 q86 -86 207 -86q122 0 205 86q86 86 86 207t-86 207q-83 86 -205 86q-121 0 -207 -86q-84 -87 -84 -207z" />
<glyph unicode="&#xa5;" horiz-adv-x="1478" d="M39 1309v88h694v-88h-96q-92 0 -92 -47q0 -27 18 -54l291 -499l203 403q24 52 24 94q0 48 -33 75.5t-98 27.5h-43v88h539v-88q-93 -5 -150.5 -40t-95.5 -114l-231 -457h432v-123h-494v-182h479v-123h-479v-104q0 -78 88 -78h144v-88h-764v88h147q47 0 66.5 18t19.5 60 v104h-512v123h512v182h-499v123h426l-291 502q-35 61 -74 85t-100 24h-31z" />
<glyph unicode="&#xa6;" horiz-adv-x="1241" d="M526 287h189v-674h-189v674zM526 805v674h189v-674h-189z" />
<glyph unicode="&#xa7;" horiz-adv-x="1024" d="M84 598q0 90 49 170t162 162q-125 131 -125 274q0 133 104 221q110 93 279 93q171 0 263.5 -64.5t92.5 -167.5q0 -69 -38.5 -109t-104.5 -40q-65 0 -106.5 37.5t-41.5 93.5q0 47 31 92q17 24 17 31q0 13 -23 26q-31 17 -80 17q-79 0 -127.5 -39.5t-48.5 -100.5 q0 -55 37 -110q47 -61 225 -219q176 -154 209 -195q90 -106 90 -238q0 -97 -48 -176.5t-161 -156.5q72 -83 98.5 -141t26.5 -126q0 -148 -106.5 -236.5t-290.5 -88.5q-161 0 -250.5 63t-89.5 164q0 69 41 112.5t104 43.5t105.5 -40t42.5 -100q0 -33 -31 -81q-14 -22 -14 -35 q0 -17 18 -29q25 -14 74 -14q84 0 133 39t49 100q0 60 -41 113q-21 32 -141 139q-214 187 -272 248q-57 62 -84 131q-27 67 -27 137zM258 725q0 -43 27 -90q23 -37 137 -137q128 -112 262 -240q53 41 71.5 72t18.5 71q0 57 -39 105q-43 55 -379 362q-98 -58 -98 -143z" />
<glyph unicode="&#xa8;" horiz-adv-x="681" d="M-2 1300q0 55 38.5 94.5t92.5 39.5q55 0 94 -39t39 -95t-39 -94.5t-94 -38.5q-54 0 -92.5 39t-38.5 94zM434 1300q0 56 39 95t96 39q55 0 94 -39t39 -95t-39 -94.5t-94 -38.5q-56 0 -95.5 39t-39.5 94z" />
<glyph unicode="&#xa9;" horiz-adv-x="1529" d="M47 709q-4 140 55 274t157.5 232t233.5 156t275 54q141 4 275.5 -54t232.5 -156t156.5 -232t54.5 -274q4 -142 -54.5 -276t-156.5 -232t-232.5 -156t-275.5 -55q-113 -2 -222.5 34.5t-200 104.5t-159 157t-105.5 199t-34 224zM137 709q-4 -123 47.5 -241t138.5 -204 t204.5 -137t240.5 -47q165 -5 312.5 82t234.5 234.5t82 312.5q5 164 -82 310.5t-234.5 233t-312.5 82.5q-164 4 -312 -82.5t-236 -233.5t-83 -310zM330 700q0 193 125 318q127 127 323 127q85 0 197 -41q32 -14 49 -14q36 0 45 53h39v-269h-39q-20 104 -87.5 162t-164.5 58 q-104 0 -182 -84t-78 -291q0 -209 78 -293q76 -82 182 -82q142 0 262 141v-71q-130 -127 -321 -127q-189 0 -309 114q-119 113 -119 299z" />
<glyph unicode="&#xaa;" horiz-adv-x="751" d="M33 1044q0 92 96 148q65 39 320 86v74q0 45 -30 71.5t-83 26.5q-40 0 -68 -14q-18 -9 -18 -19l6 -10q23 -30 23 -59q0 -35 -27.5 -57.5t-71.5 -22.5q-47 0 -75.5 24.5t-28.5 61.5q0 64 79.5 114t206.5 50q143 0 218 -60q59 -47 59 -141v-281q0 -53 35 -53q13 0 39 16 l14 9l35 -58q-76 -49 -148 -49q-111 0 -155 92q-58 -52 -109.5 -72t-116.5 -20q-94 0 -147 40t-53 103zM242 1073q0 -78 73 -78q58 0 96 41t38 109v65q-122 -19 -164.5 -49.5t-42.5 -87.5z" />
<glyph unicode="&#xab;" horiz-adv-x="1024" d="M29 565l379 428h102l-174 -428l174 -430q-6 -2 -10 -6h-92zM510 565l371 428h102l-172 -428l172 -436h-102z" />
<glyph unicode="&#xac;" horiz-adv-x="1241" d="M61 852v186h1121v-682h-189v496h-932z" />
<glyph unicode="&#xad;" horiz-adv-x="681" d="M31 377v188h626v-188h-626z" />
<glyph unicode="&#xae;" horiz-adv-x="1529" d="M47 709q-4 140 55 274t157.5 232t233.5 156t275 54q141 4 275.5 -54t232.5 -156t156.5 -232t54.5 -274q4 -142 -54.5 -276t-156.5 -232t-232.5 -156t-275.5 -55q-113 -2 -222.5 34.5t-200 104.5t-159 157t-105.5 199t-34 224zM137 709q-4 -123 47.5 -241t138.5 -204 t204.5 -137t240.5 -47q165 -5 312.5 82t234.5 234.5t82 312.5q5 164 -82 310.5t-234.5 233t-312.5 82.5q-164 4 -312 -82.5t-236 -233.5t-83 -310zM367 305v35q61 0 83.5 24.5t22.5 92.5v532q0 55 -20 76.5t-70 26.5v34h367q84 0 145.5 -10t101 -27.5t64 -46t35 -59.5 t14.5 -74q0 -163 -182 -215l149 -270q23 -42 44 -60t53 -24v-35h-246l-207 375h-47v-223q0 -68 24.5 -92t96.5 -25v-35h-428zM674 731q27 -6 51 -6q75 0 121.5 50.5t46.5 135.5q0 170 -180 170h-39v-350z" />
<glyph unicode="&#xaf;" horiz-adv-x="681" d="M-12 1210v176h706v-176h-706z" />
<glyph unicode="&#xb0;" horiz-adv-x="819" d="M66 1083q0 144 98 242q100 100 246 100q143 0 243 -100q101 -101 101 -242q0 -142 -101 -243t-243 -101q-143 0 -244 101q-100 100 -100 243zM213 1083q0 -79 58.5 -136.5t138.5 -57.5q81 0 137.5 57t56.5 137q0 82 -56.5 139.5t-137.5 57.5q-80 0 -138.5 -58t-58.5 -139 z" />
<glyph unicode="&#xb1;" horiz-adv-x="1124" d="M49 12v187h1026v-187h-1026zM49 776v187h420v419h186v-419h420v-187h-420v-420h-186v420h-420z" />
<glyph unicode="&#xb2;" horiz-adv-x="704" d="M31 713v61q251 201 338 316q57 75 57 145q0 51 -36.5 84t-96.5 33q-47 0 -82 -22t-35 -44q0 -13 29 -29q67 -27 67 -79q0 -31 -26 -54.5t-62 -23.5q-50 0 -81 31.5t-31 82.5q0 81 80 146q83 65 210 65q124 0 192.5 -51t68.5 -135q0 -72 -48 -135q-48 -60 -198 -141 q-75 -42 -125 -78h246q70 0 73 82h58l-15 -254h-583z" />
<glyph unicode="&#xb3;" horiz-adv-x="704" d="M55 864q0 45 28 73t75 28q42 0 69 -23t27 -55q0 -35 -39 -68q-18 -15 -18 -26q0 -14 20 -23q25 -14 80 -14q68 0 99.5 33.5t31.5 107.5q0 72 -29 109q-25 32 -88 32l-49 -2l-41 -2q-43 0 -43 35q0 41 51 41l29 -2l35 -2q61 0 90 33q29 32 29 100q0 62 -29.5 94.5 t-81.5 32.5q-38 0 -61 -10q-15 -9 -15 -25q0 -7 17 -24q30 -27 30 -58q0 -32 -25 -55t-65 -23q-43 0 -71.5 26.5t-28.5 64.5q0 66 69.5 114.5t182.5 48.5q119 0 190.5 -51.5t71.5 -128.5q0 -61 -41 -104.5t-119 -61.5q189 -35 189 -182q0 -91 -77 -145t-222 -54 q-128 0 -199.5 48t-71.5 118z" />
<glyph unicode="&#xb4;" horiz-adv-x="681" d="M139 1139l162 231q77 111 158 111q44 0 81.5 -34t37.5 -71q0 -43 -29 -72t-119 -69l-262 -119z" />
<glyph unicode="&#xb5;" horiz-adv-x="1402" d="M184 -293h58q94 0 94 92v930q0 65 -33.5 91t-114.5 26v90l418 25v-625q0 -87 46.5 -138t125.5 -51q104 0 166 86q64 88 64 195v307q0 111 -111 111h-47v90l422 25v-758q0 -54 32 -82.5t82 -28.5h44v-92l-386 -12q-25 91 -28 215q-176 -221 -344 -221q-40 0 -74 18v-195 q0 -98 96 -98h51v-94h-561v94z" />
<glyph unicode="&#xb6;" horiz-adv-x="1529" d="M203 1014q0 151 71.5 264.5t184.5 157.5q110 43 422 43h467v-47h-45q-82 0 -115 -35t-33 -123v-1620h-111v1747h-184v-1747h-110v883q-270 12 -396 120q-151 130 -151 357z" />
<glyph unicode="&#xb7;" horiz-adv-x="569" d="M129 788q0 66 46 112t112 46t111.5 -46t45.5 -112t-45.5 -111.5t-111.5 -45.5q-65 0 -111.5 46.5t-46.5 110.5z" />
<glyph unicode="&#xb8;" horiz-adv-x="681" d="M29 -293h41l71 -2q112 0 168 29q37 18 37 53q0 32 -41 47q-56 26 -213 29l123 162h176l-31 -48q86 -10 132.5 -55t46.5 -112q0 -90 -89 -146.5t-260 -56.5q-72 0 -161 12v88z" />
<glyph unicode="&#xb9;" horiz-adv-x="704" d="M113 1300v62q159 9 278 63h60v-589q0 -29 16 -45q22 -19 61 -19h60v-59h-461v59h49q84 0 84 76v401q0 27 -14 35q-16 16 -45 16h-88z" />
<glyph unicode="&#xba;" horiz-adv-x="751" d="M23 1208q0 131 98 219q102 91 248 91q159 0 270 -97q88 -76 88 -213q0 -134 -100 -221q-103 -86 -258 -86q-152 0 -250 88q-96 90 -96 219zM242 1208q0 -239 129 -239q137 0 137 237q0 240 -135 240q-131 0 -131 -238z" />
<glyph unicode="&#xbb;" horiz-adv-x="1024" d="M29 129l174 430l-174 436h100l375 -436l-375 -430h-100zM504 129l172 430l-172 436h98l379 -436l-379 -430h-98z" />
<glyph unicode="&#xbc;" horiz-adv-x="1763" d="M172 1300v62q162 9 281 63h59v-589q0 -31 14 -45q25 -19 64 -19h59v-59h-461v59h50q43 0 62 18.5t19 57.5v401q0 26 -12 35q-16 16 -45 16h-90zM399 0l983 1395h84l-983 -1395h-84zM956 168v70l422 475h82v-475h125v-70h-125v-47q0 -30 15.5 -47t40.5 -17h51v-57h-396v57 h37q72 0 72 64v47h-324zM1038 238h242v274z" />
<glyph unicode="&#xbd;" horiz-adv-x="1763" d="M172 1300v62q162 9 281 63h59v-589q0 -31 14 -45q25 -19 64 -19h59v-59h-461v59h50q43 0 62 18.5t19 57.5v401q0 26 -12 35q-16 16 -45 16h-90zM383 0l983 1395h84l-983 -1395h-84zM1042 0v61q251 201 338 316q58 76 58 145q0 51 -36.5 84t-96.5 33q-47 0 -82 -22 t-35 -44q0 -12 29 -28q67 -27 67 -80q0 -31 -26 -54.5t-62 -23.5q-50 0 -81.5 32t-31.5 83q0 80 80 145q84 66 211 66q124 0 192 -51.5t68 -135.5q0 -73 -47 -135q-48 -60 -198 -141q-75 -42 -125 -78h245q71 0 74 82h57l-14 -254h-584z" />
<glyph unicode="&#xbe;" horiz-adv-x="1763" d="M133 864q0 44 28 72.5t72 28.5q42 0 69.5 -23t27.5 -55q0 -34 -37 -68q-19 -16 -19 -26q0 -13 19 -23q28 -14 80 -14q68 0 100.5 33.5t32.5 107.5q0 72 -29 109q-25 32 -88 32l-49 -2l-43 -2q-41 0 -41 35q0 41 49 41l29 -2l37 -2q61 0 90 33q28 31 28 100q0 62 -30 94.5 t-82 32.5q-37 0 -60 -10q-16 -10 -16 -25q0 -9 18 -24q31 -28 31 -58q0 -32 -26 -55t-66 -23q-42 0 -70 27t-28 64q0 66 69.5 114.5t182.5 48.5q118 0 189 -51.5t71 -128.5q0 -129 -160 -166q188 -35 188 -182q0 -91 -76 -145t-223 -54q-125 0 -196.5 48t-71.5 118zM401 0 l983 1395h82l-983 -1395h-82zM956 168v70l422 475h82v-475h125v-70h-125v-47q0 -30 15.5 -47t40.5 -17h51v-57h-396v57h37q72 0 72 64v47h-324zM1038 238h242v274z" />
<glyph unicode="&#xbf;" horiz-adv-x="1024" d="M119 -33q0 61 19 122t52 106q36 49 129 124q87 70 123 118.5t56 111.5q18 58 18 143h74v-69q0 -105 -19 -183q-15 -72 -65 -164q-71 -130 -86 -182q-21 -70 -21 -149q0 -116 49.5 -180t133.5 -64q59 0 102 30.5t43 63.5q0 18 -7.5 28t-41.5 32q-42 29 -59 56t-17 64 q0 62 44.5 107t105.5 45q67 0 113 -52.5t46 -135.5q0 -140 -110 -234q-107 -98 -287 -98q-173 0 -285 106q-110 104 -110 254zM379 981q0 72 49.5 122t122.5 50q70 0 121 -50.5t51 -121.5t-51 -121.5t-121 -50.5q-73 0 -122.5 50t-49.5 122z" />
<glyph unicode="&#xc0;" horiz-adv-x="1554" d="M-27 0v92h31q55 0 96 35q54 43 90 123l531 1266h113l555 -1328q23 -54 51 -75t73 -21h56v-92h-695v92h64q74 0 104.5 16.5t30.5 47.5q0 18 -10 51l-117 272h-551l-53 -125q-35 -78 -35 -114q0 -67 48 -107.5t132 -40.5h48v-92h-562zM436 578h469l-233 563zM559 1847 q0 42 35.5 76.5t81.5 34.5q44 0 80 -25t88 -98l151 -217l-26 -27l-287 129q-73 34 -98 61.5t-25 65.5z" />
<glyph unicode="&#xc1;" horiz-adv-x="1554" d="M-27 0v92h31q55 0 96 35q54 43 90 123l531 1266h113l555 -1328q23 -54 51 -75t73 -21h56v-92h-695v92h64q74 0 104.5 16.5t30.5 47.5q0 18 -10 51l-117 272h-551l-53 -125q-35 -78 -35 -114q0 -67 48 -107.5t132 -40.5h48v-92h-562zM436 578h469l-233 563zM575 1614 l162 231q77 111 158 111q44 0 81.5 -34t37.5 -71q0 -44 -29 -73.5t-119 -69.5l-264 -117z" />
<glyph unicode="&#xc2;" horiz-adv-x="1554" d="M-27 0v92h31q55 0 96 35q54 43 90 123l531 1266h113l555 -1328q23 -54 51 -75t73 -21h56v-92h-695v92h64q74 0 104.5 16.5t30.5 47.5q0 18 -10 51l-117 272h-551l-53 -125q-35 -78 -35 -114q0 -67 48 -107.5t132 -40.5h48v-92h-562zM436 578h469l-233 563zM451 1591 l184 375h297l182 -375h-37l-295 219l-295 -219h-36z" />
<glyph unicode="&#xc3;" horiz-adv-x="1554" d="M-27 0v92h31q55 0 96 35q54 43 90 123l531 1266h113l555 -1328q23 -54 51 -75t73 -21h56v-92h-695v92h64q74 0 104.5 16.5t30.5 47.5q0 18 -10 51l-117 272h-551l-53 -125q-35 -78 -35 -114q0 -67 48 -107.5t132 -40.5h48v-92h-562zM432 1642q13 124 74.5 191.5 t150.5 67.5q54 0 179 -46q113 -40 145 -40q100 0 121 90h26q-6 -115 -71 -189t-152 -74q-33 0 -74 9q-24 6 -163 57q-71 23 -97 23q-81 0 -116 -89h-23zM436 578h469l-233 563z" />
<glyph unicode="&#xc4;" horiz-adv-x="1554" d="M-27 0v92h31q55 0 96 35q54 43 90 123l531 1266h113l555 -1328q23 -54 51 -75t73 -21h56v-92h-695v92h64q74 0 104.5 16.5t30.5 47.5q0 18 -10 51l-117 272h-551l-53 -125q-35 -78 -35 -114q0 -67 48 -107.5t132 -40.5h48v-92h-562zM432 1776q0 56 39 94.5t94 38.5 t94 -38.5t39 -94.5t-39 -95t-94 -39q-54 0 -93.5 39.5t-39.5 94.5zM436 578h469l-233 563zM870 1778q0 56 39.5 94.5t96.5 38.5q56 0 94.5 -38.5t38.5 -94.5q0 -57 -38.5 -96.5t-94.5 -39.5t-96 39.5t-40 96.5z" />
<glyph unicode="&#xc5;" horiz-adv-x="1554" d="M-27 0v92h31q55 0 96 35q54 43 90 123l531 1266h113l555 -1328q23 -54 51 -75t73 -21h56v-92h-695v92h64q74 0 104.5 16.5t30.5 47.5q0 18 -10 51l-117 272h-551l-53 -125q-35 -78 -35 -114q0 -67 48 -107.5t132 -40.5h48v-92h-562zM436 578h469l-233 563zM559 1767 q0 87 62 149t149 62q88 0 149.5 -62.5t61.5 -150.5q0 -87 -62 -149t-149 -62q-88 0 -149.5 62.5t-61.5 150.5zM651 1765q0 -49 35.5 -83.5t83.5 -34.5q50 0 85.5 34.5t35.5 83.5t-35.5 84t-85.5 35q-48 0 -83.5 -35t-35.5 -84z" />
<glyph unicode="&#xc6;" horiz-adv-x="2009" d="M-82 0v86q140 21 232 186l555 1002q20 36 20 61q0 28 -24.5 39.5t-104.5 11.5h-133v93h1378l31 -498h-88q-34 215 -117.5 310t-216.5 95h-162q-55 0 -78.5 -19.5t-23.5 -61.5v-514h49q102 0 164 70.5t69 207.5h88v-666h-88q-6 158 -68 227.5t-186 69.5h-28v-534 q0 -41 20 -55q28 -25 72 -25h141q183 0 286.5 110t135.5 353h88l-26 -549h-1250v86h146q42 0 65 23t23 65v455h-424l-191 -336q-28 -54 -28 -100q0 -74 59 -97q23 -10 86 -10v-86h-471zM512 721h375v674z" />
<glyph unicode="&#xc7;" horiz-adv-x="1593" d="M160 733q0 375 235 594q203 191 473 191q109 0 200.5 -34.5t195.5 -115.5l69 148h74l25 -594h-93q-41 248 -157.5 375.5t-276.5 127.5q-167 0 -278 -159q-109 -160 -109 -504q0 -366 121 -543q95 -139 287 -139q187 0 317 139q92 102 129 297h90q-30 -254 -192 -399 q-143 -131 -348 -146q58 -15 92 -49q45 -45 45 -112q0 -90 -88.5 -146.5t-259.5 -56.5q-73 0 -162 12v88h41l72 -2q111 0 167 29q37 18 37 53q0 32 -41 47q-56 26 -213 29l95 125q-199 44 -342 196q-205 214 -205 549z" />
<glyph unicode="&#xc8;" horiz-adv-x="1554" d="M72 0v92h133q43 0 67.5 23.5t24.5 62.5v1139q0 36 -24.5 52.5t-84.5 16.5h-116v93h1288l29 -516h-89q-30 182 -77 262q-45 80 -123 121q-76 40 -197 40h-203q-88 0 -88 -69v-514h70q121 0 185.5 68.5t74.5 218.5h90v-689h-90q-7 169 -71.5 240.5t-200.5 71.5h-58v-547 q0 -36 21 -51q38 -23 92 -23h178q186 0 301.5 120t141.5 351h90l-23 -563h-1341zM559 1847q0 42 36 76.5t83 34.5q44 0 80 -25t88 -98l149 -217l-24 -27l-289 129q-72 34 -97.5 61.5t-25.5 65.5z" />
<glyph unicode="&#xc9;" horiz-adv-x="1554" d="M72 0v92h133q43 0 67.5 23.5t24.5 62.5v1139q0 36 -24.5 52.5t-84.5 16.5h-116v93h1288l29 -516h-89q-30 182 -77 262q-45 80 -123 121q-76 40 -197 40h-203q-88 0 -88 -69v-514h70q121 0 185.5 68.5t74.5 218.5h90v-689h-90q-7 169 -71.5 240.5t-200.5 71.5h-58v-547 q0 -36 21 -51q38 -23 92 -23h178q186 0 301.5 120t141.5 351h90l-23 -563h-1341zM575 1614l162 231q77 111 158 111q44 0 81.5 -34t37.5 -71q0 -44 -29 -73.5t-119 -69.5l-264 -117z" />
<glyph unicode="&#xca;" horiz-adv-x="1554" d="M72 0v92h133q43 0 67.5 23.5t24.5 62.5v1139q0 36 -24.5 52.5t-84.5 16.5h-116v93h1288l29 -516h-89q-30 182 -77 262q-45 80 -123 121q-76 40 -197 40h-203q-88 0 -88 -69v-514h70q121 0 185.5 68.5t74.5 218.5h90v-689h-90q-7 169 -71.5 240.5t-200.5 71.5h-58v-547 q0 -36 21 -51q38 -23 92 -23h178q186 0 301.5 120t141.5 351h90l-23 -563h-1341zM451 1591l184 375h297l182 -375h-37l-295 219l-295 -219h-36z" />
<glyph unicode="&#xcb;" horiz-adv-x="1554" d="M72 0v92h133q43 0 67.5 23.5t24.5 62.5v1139q0 36 -24.5 52.5t-84.5 16.5h-116v93h1288l29 -516h-89q-30 182 -77 262q-45 80 -123 121q-76 40 -197 40h-203q-88 0 -88 -69v-514h70q121 0 185.5 68.5t74.5 218.5h90v-689h-90q-7 169 -71.5 240.5t-200.5 71.5h-58v-547 q0 -36 21 -51q38 -23 92 -23h178q186 0 301.5 120t141.5 351h90l-23 -563h-1341zM434 1776q0 57 38.5 95t94.5 38q55 0 94 -38.5t39 -94.5t-39 -95t-94 -39t-94 39t-39 95zM872 1778q0 55 39 94t95 39q57 0 96 -38.5t39 -94.5q0 -57 -39.5 -96.5t-95.5 -39.5t-95 39.5 t-39 96.5z" />
<glyph unicode="&#xcc;" horiz-adv-x="909" d="M76 0v92h114q59 0 84 20t25 60v1133q0 42 -21.5 61.5t-70.5 19.5h-131v93h758v-93h-138q-44 0 -64 -16.5t-20 -52.5v-1145q0 -42 21 -57q30 -23 78 -23h123v-92h-758zM238 1847q0 42 35 76.5t81 34.5q44 0 80 -25t88 -98l152 -217l-27 -27l-287 129q-72 34 -97 61.5 t-25 65.5z" />
<glyph unicode="&#xcd;" horiz-adv-x="909" d="M76 0v92h114q59 0 84 20t25 60v1133q0 42 -21.5 61.5t-70.5 19.5h-131v93h758v-93h-138q-44 0 -64 -16.5t-20 -52.5v-1145q0 -42 21 -57q30 -23 78 -23h123v-92h-758zM272 1614l162 231q77 111 158 111q44 0 81.5 -34t37.5 -71q0 -44 -29 -73.5t-119 -69.5l-264 -117z " />
<glyph unicode="&#xce;" horiz-adv-x="909" d="M76 0v92h114q59 0 84 20t25 60v1133q0 42 -21.5 61.5t-70.5 19.5h-131v93h758v-93h-138q-44 0 -64 -16.5t-20 -52.5v-1145q0 -42 21 -57q30 -23 78 -23h123v-92h-758zM129 1591l182 375h297l185 -375h-37l-295 219l-295 -219h-37z" />
<glyph unicode="&#xcf;" horiz-adv-x="909" d="M76 0v92h114q59 0 84 20t25 60v1133q0 42 -21.5 61.5t-70.5 19.5h-131v93h758v-93h-138q-44 0 -64 -16.5t-20 -52.5v-1145q0 -42 21 -57q30 -23 78 -23h123v-92h-758zM111 1776q0 57 38.5 95t94.5 38t94.5 -38.5t38.5 -94.5t-39 -95t-94 -39t-94 39t-39 95zM549 1778 q0 56 38.5 94.5t94.5 38.5q57 0 96 -38.5t39 -94.5q0 -57 -39.5 -96.5t-95.5 -39.5q-54 0 -93.5 39.5t-39.5 96.5z" />
<glyph unicode="&#xd0;" horiz-adv-x="1705" d="M66 686v107h225v507q0 45 -24.5 65.5t-80.5 20.5h-108v93h794q218 0 381 -91.5t258 -263.5q95 -170 95 -383q0 -448 -342 -645q-172 -96 -361 -96h-825v92h123q44 0 67 24.5t23 69.5v500h-225zM610 186q0 -49 20.5 -71.5t65.5 -22.5h107q138 0 243.5 69.5t153.5 188.5 q47 121 47 371q0 254 -52.5 397.5t-154.5 206.5q-95 59 -278 59q-96 0 -124 -15.5t-28 -61.5v-514h281v-107h-281v-500z" />
<glyph unicode="&#xd1;" horiz-adv-x="1705" d="M63 0v92h41q88 0 147.5 71t59.5 179v956q-64 88 -170 88h-65v93h459l800 -1014v688q0 103 -58.5 164.5t-164.5 68.5v93h541v-93q-114 -12 -162.5 -66.5t-48.5 -166.5v-1153h-117l-911 1167v-809q0 -133 61 -199.5t160 -66.5h24v-92h-596zM508 1642q13 124 74.5 191.5 t150.5 67.5q53 0 178 -46q113 -40 148 -40q98 0 119 90h26q-6 -115 -70.5 -189t-152.5 -74q-33 0 -74 9q-27 7 -164 57q-71 23 -96 23q-82 0 -117 -89h-22z" />
<glyph unicode="&#xd2;" horiz-adv-x="1705" d="M98 741q0 339 215 557q217 220 533 220q154 1 296 -58.5t245 -161.5t163 -246.5t56 -303.5q0 -330 -220 -558q-218 -221 -538 -221q-158 0 -296.5 58.5t-238.5 160t-157.5 245.5t-57.5 308zM455 743q0 -264 47 -403q49 -136 139 -205q89 -65 213 -65q177 0 285 153 q106 150 106 535q0 266 -47 399q-48 135 -135 199q-89 65 -211 65q-397 0 -397 -678zM598 1847q0 42 35.5 76.5t81.5 34.5q44 0 80 -25t88 -98l151 -217l-26 -27l-287 129q-73 34 -98 61.5t-25 65.5z" />
<glyph unicode="&#xd3;" horiz-adv-x="1705" d="M98 741q0 339 215 557q217 220 533 220q154 1 296 -58.5t245 -161.5t163 -246.5t56 -303.5q0 -330 -220 -558q-218 -221 -538 -221q-158 0 -296.5 58.5t-238.5 160t-157.5 245.5t-57.5 308zM455 743q0 -264 47 -403q49 -136 139 -205q89 -65 213 -65q177 0 285 153 q106 150 106 535q0 266 -47 399q-48 135 -135 199q-89 65 -211 65q-397 0 -397 -678zM670 1614l161 231q77 111 158 111q44 0 81.5 -34t37.5 -71q0 -44 -28.5 -74t-118.5 -69l-265 -117z" />
<glyph unicode="&#xd4;" horiz-adv-x="1705" d="M98 741q0 339 215 557q217 220 533 220q154 1 296 -58.5t245 -161.5t163 -246.5t56 -303.5q0 -330 -220 -558q-218 -221 -538 -221q-158 0 -296.5 58.5t-238.5 160t-157.5 245.5t-57.5 308zM455 743q0 -264 47 -403q49 -136 139 -205q89 -65 213 -65q177 0 285 153 q106 150 106 535q0 266 -47 399q-48 135 -135 199q-89 65 -211 65q-397 0 -397 -678zM520 1591l185 375h296l183 -375h-37l-295 219l-295 -219h-37z" />
<glyph unicode="&#xd5;" horiz-adv-x="1705" d="M98 741q0 339 215 557q217 220 533 220q154 1 296 -58.5t245 -161.5t163 -246.5t56 -303.5q0 -330 -220 -558q-218 -221 -538 -221q-158 0 -296.5 58.5t-238.5 160t-157.5 245.5t-57.5 308zM455 743q0 -264 47 -403q49 -136 139 -205q89 -65 213 -65q177 0 285 153 q106 150 106 535q0 266 -47 399q-48 135 -135 199q-89 65 -211 65q-397 0 -397 -678zM504 1642q12 124 73.5 191.5t151.5 67.5q53 0 178 -46q113 -40 146 -40q97 0 118 90h27q-4 -115 -69.5 -189t-153.5 -74q-33 0 -74 9q-27 7 -164 57q-67 23 -96 23q-80 0 -115 -89h-22z " />
<glyph unicode="&#xd6;" horiz-adv-x="1705" d="M98 741q0 339 215 557q217 220 533 220q154 1 296 -58.5t245 -161.5t163 -246.5t56 -303.5q0 -330 -220 -558q-218 -221 -538 -221q-158 0 -296.5 58.5t-238.5 160t-157.5 245.5t-57.5 308zM455 743q0 -264 47 -403q49 -136 139 -205q89 -65 213 -65q177 0 285 153 q106 150 106 535q0 266 -47 399q-48 135 -135 199q-89 65 -211 65q-397 0 -397 -678zM500 1776q0 57 38.5 95t94.5 38q55 0 94 -38.5t39 -94.5t-39 -95t-94 -39t-94 39t-39 95zM938 1778q0 56 39 94.5t94 38.5q57 0 96 -38.5t39 -94.5q0 -57 -39.5 -96.5t-95.5 -39.5 t-94.5 39.5t-38.5 96.5z" />
<glyph unicode="&#xd7;" horiz-adv-x="1241" d="M96 305l393 389l-393 393l133 134l394 -396l393 396l131 -134l-391 -393l391 -389l-131 -133l-393 389l-394 -389z" />
<glyph unicode="&#xd8;" horiz-adv-x="1705" d="M98 741q0 337 215 555q216 222 529 222q280 0 481 -162l109 123h118l-159 -185q215 -221 215 -546q0 -330 -220 -558q-218 -221 -538 -221q-142 0 -254 39.5t-217 124.5l-117 -133h-119l170 195q-110 111 -161.5 242.5t-51.5 303.5zM455 739q0 -218 30 -344l701 801 q-44 108 -131 166.5t-203 58.5q-73 -3 -131 -25t-109 -71.5t-85 -126t-53 -192.5t-19 -267zM518 297q44 -108 132 -167.5t204 -59.5q119 0 207.5 69.5t134.5 208.5q49 143 49 416q0 197 -28 334z" />
<glyph unicode="&#xd9;" horiz-adv-x="1705" d="M63 1386v93h744v-93h-152q-31 0 -49 -22.5t-18 -65.5v-817q0 -172 91.5 -265t254.5 -93q121 0 217 51q73 41 117.5 128.5t44.5 215.5v629q0 116 -53 177.5t-146 61.5h-20v93h563v-93h-39q-85 0 -132.5 -64.5t-47.5 -166.5v-682q0 -224 -152 -364q-155 -140 -420 -140 q-187 0 -330 62t-204 162q-60 105 -60 262v829q0 60 -21 81t-79 21h-109zM635 1847q0 42 35.5 76.5t81.5 34.5q44 0 80 -25t88 -98l151 -217l-27 -27l-286 129q-73 34 -98 61.5t-25 65.5z" />
<glyph unicode="&#xda;" horiz-adv-x="1705" d="M63 1386v93h744v-93h-152q-31 0 -49 -22.5t-18 -65.5v-817q0 -172 91.5 -265t254.5 -93q121 0 217 51q73 41 117.5 128.5t44.5 215.5v629q0 116 -53 177.5t-146 61.5h-20v93h563v-93h-39q-85 0 -132.5 -64.5t-47.5 -166.5v-682q0 -224 -152 -364q-155 -140 -420 -140 q-187 0 -330 62t-204 162q-60 105 -60 262v829q0 60 -21 81t-79 21h-109zM729 1614l164 231q77 111 158 111q43 0 79.5 -34t36.5 -71q0 -44 -28.5 -74t-116.5 -69l-264 -117z" />
<glyph unicode="&#xdb;" horiz-adv-x="1705" d="M63 1386v93h744v-93h-152q-31 0 -49 -22.5t-18 -65.5v-817q0 -172 91.5 -265t254.5 -93q121 0 217 51q73 41 117.5 128.5t44.5 215.5v629q0 116 -53 177.5t-146 61.5h-20v93h563v-93h-39q-85 0 -132.5 -64.5t-47.5 -166.5v-682q0 -224 -152 -364q-155 -140 -420 -140 q-187 0 -330 62t-204 162q-60 105 -60 262v829q0 60 -21 81t-79 21h-109zM526 1591l185 375h297l182 -375h-37l-295 219l-295 -219h-37z" />
<glyph unicode="&#xdc;" horiz-adv-x="1705" d="M63 1386v93h744v-93h-152q-31 0 -49 -22.5t-18 -65.5v-817q0 -172 91.5 -265t254.5 -93q121 0 217 51q73 41 117.5 128.5t44.5 215.5v629q0 116 -53 177.5t-146 61.5h-20v93h563v-93h-39q-85 0 -132.5 -64.5t-47.5 -166.5v-682q0 -224 -152 -364q-155 -140 -420 -140 q-187 0 -330 62t-204 162q-60 105 -60 262v829q0 60 -21 81t-79 21h-109zM510 1776q0 56 38 94.5t93 38.5t94 -38.5t39 -94.5t-39 -95t-94 -39q-54 0 -92.5 39.5t-38.5 94.5zM946 1778q0 56 39 94.5t96 38.5q55 0 94 -38.5t39 -94.5q0 -57 -38.5 -96.5t-94.5 -39.5 t-95.5 39.5t-39.5 96.5z" />
<glyph unicode="&#xdd;" horiz-adv-x="1478" d="M-10 1386v93h735v-93h-100q-53 0 -75 -12t-22 -37q0 -21 19 -57l307 -530l215 430q29 56 29 98q0 50 -37 79t-105 29h-45v93h572v-93q-97 -1 -157.5 -38.5t-102.5 -120.5l-297 -588v-465q0 -82 92 -82h153v-92h-811v92h152q53 0 73.5 19t20.5 63v414l-397 684 q-37 64 -79 89t-107 25h-33zM590 1614l162 231q76 111 157 111q44 0 80.5 -34t36.5 -71q0 -44 -28 -74t-117 -69l-265 -117z" />
<glyph unicode="&#xde;" horiz-adv-x="1554" d="M88 0v92h133q42 0 65 22.5t23 61.5v1129q0 36 -22.5 58.5t-55.5 22.5h-143v93h758v-93h-139q-37 0 -59.5 -22t-22.5 -59v-127h305q138 0 217 -27q137 -45 217 -146t80 -235q0 -128 -77.5 -226t-209.5 -143q-130 -43 -258 -43h-274v-182q0 -38 22.5 -61t59.5 -23h170v-92 h-789zM625 451h184q95 0 168.5 38.5t105.5 100.5q33 56 33 190q-8 166 -70 232t-215 67h-206v-628z" />
<glyph unicode="&#xdf;" d="M55 0v86h43q47 0 66.5 23.5t19.5 80.5v910q0 181 130 299.5t345 118.5q250 0 381 -119q93 -84 93 -213q0 -218 -293 -301q170 -26 260 -133t90 -281q0 -215 -117 -350q-114 -135 -270 -135q-124 0 -182 67q-58 70 -58 148q0 57 34.5 95t84.5 38q54 0 87.5 -34.5 t33.5 -88.5q0 -47 -35 -94q-14 -20 -14 -29q0 -12 14 -21.5t37 -9.5q54 0 78 52q26 51 26 264q0 246 -20 319q-20 74 -70 109q-49 34 -178 37v86q67 0 131 34q44 20 66 68q28 61 28 145q0 128 -51 191t-145 63q-110 0 -156 -61q-68 -89 -68 -254v-960q0 -58 50 -58h20v-92 h-461z" />
<glyph unicode="&#xe0;" d="M102 201q0 149 148 241q124 75 512 144v135q0 80 -54 130t-141 50q-65 0 -121 -29q-34 -18 -34 -36q0 -11 14 -31q27 -46 27 -88q0 -57 -37 -91t-99 -34q-66 0 -105.5 36.5t-39.5 96.5q0 97 104 170q133 92 326 92q150 0 260 -45q75 -30 119.5 -103.5t44.5 -176.5v-476 q0 -53 21 -77q23 -23 55 -23q28 0 76 31l43 -74q-62 -41 -109.5 -57.5t-107.5 -16.5q-88 0 -140 38t-96 136q-102 -99 -182.5 -136.5t-184.5 -37.5q-138 0 -218.5 65t-80.5 167zM346 1370q0 43 36 77t83 34q44 0 80 -25t88 -96l149 -219l-24 -25l-287 129q-74 35 -99.5 61 t-25.5 64zM397 250q0 -69 36 -107.5t99 -38.5q100 0 165 73t65 194v129q-212 -30 -289 -92q-76 -58 -76 -158z" />
<glyph unicode="&#xe1;" d="M102 201q0 149 148 241q124 75 512 144v135q0 80 -54 130t-141 50q-65 0 -121 -29q-34 -18 -34 -36q0 -11 14 -31q27 -46 27 -88q0 -57 -37 -91t-99 -34q-66 0 -105.5 36.5t-39.5 96.5q0 97 104 170q133 92 326 92q150 0 260 -45q75 -30 119.5 -103.5t44.5 -176.5v-476 q0 -53 21 -77q23 -23 55 -23q28 0 76 31l43 -74q-62 -41 -109.5 -57.5t-107.5 -16.5q-88 0 -140 38t-96 136q-102 -99 -182.5 -136.5t-184.5 -37.5q-138 0 -218.5 65t-80.5 167zM397 250q0 -69 36 -107.5t99 -38.5q100 0 165 73t65 194v129q-212 -30 -289 -92 q-76 -58 -76 -158zM459 1139l162 231q77 111 157 111q44 0 81.5 -34t37.5 -71q0 -43 -28 -72t-117 -69l-265 -119z" />
<glyph unicode="&#xe2;" d="M102 201q0 149 148 241q124 75 512 144v135q0 80 -54 130t-141 50q-65 0 -121 -29q-34 -18 -34 -36q0 -11 14 -31q27 -46 27 -88q0 -57 -37 -91t-99 -34q-66 0 -105.5 36.5t-39.5 96.5q0 97 104 170q133 92 326 92q150 0 260 -45q75 -30 119.5 -103.5t44.5 -176.5v-476 q0 -53 21 -77q23 -23 55 -23q28 0 76 31l43 -74q-62 -41 -109.5 -57.5t-107.5 -16.5q-88 0 -140 38t-96 136q-102 -99 -182.5 -136.5t-184.5 -37.5q-138 0 -218.5 65t-80.5 167zM293 1110l182 377h297l184 -377h-36l-295 219l-295 -219h-37zM397 250q0 -69 36 -107.5 t99 -38.5q100 0 165 73t65 194v129q-212 -30 -289 -92q-76 -58 -76 -158z" />
<glyph unicode="&#xe3;" d="M102 201q0 149 148 241q124 75 512 144v135q0 80 -54 130t-141 50q-65 0 -121 -29q-34 -18 -34 -36q0 -11 14 -31q27 -46 27 -88q0 -57 -37 -91t-99 -34q-66 0 -105.5 36.5t-39.5 96.5q0 97 104 170q133 92 326 92q150 0 260 -45q75 -30 119.5 -103.5t44.5 -176.5v-476 q0 -53 21 -77q23 -23 55 -23q28 0 76 31l43 -74q-62 -41 -109.5 -57.5t-107.5 -16.5q-88 0 -140 38t-96 136q-102 -99 -182.5 -136.5t-184.5 -37.5q-138 0 -218.5 65t-80.5 167zM293 1167q13 124 74.5 191t150.5 67q53 0 178 -43q115 -41 148 -41q97 0 119 91h26 q-6 -116 -70.5 -189.5t-152.5 -73.5q-34 0 -74 9q-27 7 -164 57q-68 22 -96 22q-82 0 -117 -90h-22zM397 250q0 -69 36 -107.5t99 -38.5q100 0 165 73t65 194v129q-212 -30 -289 -92q-76 -58 -76 -158z" />
<glyph unicode="&#xe4;" d="M102 201q0 149 148 241q124 75 512 144v135q0 80 -54 130t-141 50q-65 0 -121 -29q-34 -18 -34 -36q0 -11 14 -31q27 -46 27 -88q0 -57 -37 -91t-99 -34q-66 0 -105.5 36.5t-39.5 96.5q0 97 104 170q133 92 326 92q150 0 260 -45q75 -30 119.5 -103.5t44.5 -176.5v-476 q0 -53 21 -77q23 -23 55 -23q28 0 76 31l43 -74q-62 -41 -109.5 -57.5t-107.5 -16.5q-88 0 -140 38t-96 136q-102 -99 -182.5 -136.5t-184.5 -37.5q-138 0 -218.5 65t-80.5 167zM242 1300q0 56 39 95t94 39t94 -39t39 -95t-39 -94.5t-94 -38.5t-94 38.5t-39 94.5zM397 250 q0 -69 36 -107.5t99 -38.5q100 0 165 73t65 194v129q-212 -30 -289 -92q-76 -58 -76 -158zM680 1300q0 56 39 95t94 39q57 0 96 -39t39 -95q0 -55 -39.5 -94t-95.5 -39q-54 0 -93.5 39t-39.5 94z" />
<glyph unicode="&#xe5;" d="M102 201q0 149 148 241q124 75 512 144v135q0 80 -54 130t-141 50q-65 0 -121 -29q-34 -18 -34 -36q0 -11 14 -31q27 -46 27 -88q0 -57 -37 -91t-99 -34q-66 0 -105.5 36.5t-39.5 96.5q0 97 104 170q133 92 326 92q150 0 260 -45q75 -30 119.5 -103.5t44.5 -176.5v-476 q0 -53 21 -77q23 -23 55 -23q28 0 76 31l43 -74q-62 -41 -109.5 -57.5t-107.5 -16.5q-88 0 -140 38t-96 136q-102 -99 -182.5 -136.5t-184.5 -37.5q-138 0 -218.5 65t-80.5 167zM389 1290q0 87 62 149t149 62q88 0 150.5 -61.5t62.5 -149.5t-62.5 -149.5t-150.5 -61.5 q-87 0 -149 62t-62 149zM397 250q0 -69 36 -107.5t99 -38.5q100 0 165 73t65 194v129q-212 -30 -289 -92q-76 -58 -76 -158zM483 1290q0 -50 34.5 -84.5t84.5 -34.5t84.5 34.5t34.5 84.5t-34.5 84.5t-84.5 34.5t-84.5 -34.5t-34.5 -84.5z" />
<glyph unicode="&#xe6;" horiz-adv-x="1781" d="M119 207q0 181 205 264q96 41 438 121v125q0 87 -53.5 135.5t-149.5 48.5q-71 0 -110 -20q-27 -15 -27 -41q0 -12 12 -33q27 -47 27 -86q0 -54 -37.5 -89.5t-93.5 -35.5q-61 0 -102.5 39t-41.5 96q0 90 119 172q122 84 334 84q166 0 303 -88q143 88 289 88 q92 -3 169.5 -36.5t137.5 -96.5t94 -163t35 -228h-643q0 -185 74.5 -286t191.5 -101q182 0 314 225l71 -47q-78 -147 -186.5 -216t-261.5 -69q-137 0 -239 50.5t-187 160.5q-123 -123 -211 -168q-82 -43 -184 -43q-131 0 -209 66.5t-78 171.5zM408 252q0 -73 33.5 -107 t105.5 -34q86 0 149 69q66 72 66 170v156q-194 -34 -274 -95.5t-80 -158.5zM1024 553h299q44 0 64 23t20 81q0 113 -51 178.5t-131 65.5q-91 0 -145.5 -84t-55.5 -264z" />
<glyph unicode="&#xe7;" horiz-adv-x="1138" d="M94 449q0 235 158 387q157 151 418 151q181 0 283 -72.5t102 -185.5q0 -77 -43.5 -122.5t-116.5 -45.5q-61 0 -97 35.5t-36 91.5q0 53 39 115q16 29 16 39q0 20 -31 35q-44 24 -114 24q-131 0 -191 -84q-80 -112 -80 -336t78 -317q81 -90 203 -90q101 0 187.5 67 t140.5 197l77 -37q-62 -158 -188 -246q-103 -69 -242 -84q63 -15 97 -49q45 -45 45 -112q0 -90 -88.5 -146.5t-259.5 -56.5q-73 0 -162 12v88h41l71 -2q112 0 168 29q37 18 37 53q0 32 -41 47q-56 26 -213 29l92 123q-128 26 -217 112q-133 133 -133 351z" />
<glyph unicode="&#xe8;" horiz-adv-x="1175" d="M104 475q0 220 142 365q144 147 352 147q218 0 342 -132.5t127 -391.5h-657q4 -193 77 -289t199 -96q90 0 166.5 50.5t155.5 170.5l71 -43q-84 -151 -192.5 -216t-268.5 -65q-229 0 -372 140q-142 142 -142 360zM410 553h313q45 0 63.5 22t18.5 78q0 114 -52.5 179 t-136.5 65q-191 0 -206 -344zM422 1370q0 43 35 77t82 34q44 0 80 -25t88 -96l151 -219l-27 -25l-286 129q-73 34 -98 60.5t-25 64.5z" />
<glyph unicode="&#xe9;" horiz-adv-x="1175" d="M104 475q0 220 142 365q144 147 352 147q218 0 342 -132.5t127 -391.5h-657q4 -193 77 -289t199 -96q90 0 166.5 50.5t155.5 170.5l71 -43q-84 -151 -192.5 -216t-268.5 -65q-229 0 -372 140q-142 142 -142 360zM410 553h313q45 0 63.5 22t18.5 78q0 114 -52.5 179 t-136.5 65q-191 0 -206 -344zM420 1139l162 231q76 111 157 111q44 0 80.5 -34t36.5 -71q0 -44 -27.5 -73t-117.5 -68l-265 -119z" />
<glyph unicode="&#xea;" horiz-adv-x="1175" d="M104 475q0 220 142 365q144 147 352 147q218 0 342 -132.5t127 -391.5h-657q4 -193 77 -289t199 -96q90 0 166.5 50.5t155.5 170.5l71 -43q-84 -151 -192.5 -216t-268.5 -65q-229 0 -372 140q-142 142 -142 360zM276 1110l183 377h297l182 -377h-35l-295 219l-297 -219 h-35zM410 553h313q45 0 63.5 22t18.5 78q0 114 -52.5 179t-136.5 65q-191 0 -206 -344z" />
<glyph unicode="&#xeb;" horiz-adv-x="1175" d="M104 475q0 220 142 365q144 147 352 147q218 0 342 -132.5t127 -391.5h-657q4 -193 77 -289t199 -96q90 0 166.5 50.5t155.5 170.5l71 -43q-84 -151 -192.5 -216t-268.5 -65q-229 0 -372 140q-142 142 -142 360zM258 1300q0 56 39 95t94 39t94 -39t39 -95t-39 -94.5 t-94 -38.5t-94 38.5t-39 94.5zM410 553h313q45 0 63.5 22t18.5 78q0 114 -52.5 179t-136.5 65q-191 0 -206 -344zM696 1300q0 56 39 95t94 39q57 0 96.5 -39t39.5 -95q0 -55 -40 -94t-96 -39q-55 0 -94 38.5t-39 94.5z" />
<glyph unicode="&#xec;" horiz-adv-x="757" d="M115 0v92h61q49 0 69.5 24t20.5 81v540q0 52 -28.5 80.5t-81.5 28.5h-41v90l415 18v-794q0 -68 82 -68h64v-92h-561zM158 1370q0 43 34.5 77t81.5 34q44 0 80 -25t88 -96l152 -219l-27 -25l-286 129q-73 34 -98 60.5t-25 64.5z" />
<glyph unicode="&#xed;" horiz-adv-x="757" d="M115 0v92h61q49 0 69.5 24t20.5 81v540q0 52 -28.5 80.5t-81.5 28.5h-41v90l415 18v-794q0 -68 82 -68h64v-92h-561zM193 1139l161 231q76 111 158 111q44 0 81.5 -34t37.5 -71q0 -43 -28.5 -72t-117.5 -69l-264 -119z" />
<glyph unicode="&#xee;" horiz-adv-x="757" d="M18 1110l183 377h297l182 -377h-35l-295 219l-297 -219h-35zM115 0v92h61q49 0 69.5 24t20.5 81v540q0 52 -28.5 80.5t-81.5 28.5h-41v90l415 18v-794q0 -68 82 -68h64v-92h-561z" />
<glyph unicode="&#xef;" horiz-adv-x="757" d="M18 1300q0 56 39 95t95 39q55 0 94 -39t39 -95t-38.5 -94.5t-94.5 -38.5t-95 39t-39 94zM115 0v92h61q49 0 69.5 24t20.5 81v540q0 52 -28.5 80.5t-81.5 28.5h-41v90l415 18v-794q0 -68 82 -68h64v-92h-561zM457 1300q0 56 39 95t94 39q57 0 96 -39t39 -95 q0 -55 -39.5 -94t-95.5 -39t-94.5 38.5t-38.5 94.5z" />
<glyph unicode="&#xf0;" d="M88 479q0 238 176 385q147 123 342 123q178 0 279 -113q-20 137 -68.5 231.5t-144.5 184.5l-234 -80l-39 78l197 68q-60 51 -174 114l72 41q127 -41 239 -110l203 63l51 -73l-162 -52q156 -123 250 -321q94 -195 94 -420q0 -298 -148.5 -463.5t-399.5 -165.5 q-231 0 -383 146q-150 144 -150 364zM399 479q0 -240 62 -329q63 -91 170 -91q75 0 121 37.5t75 126.5q37 118 37 266q0 229 -43 302q-58 102 -190 102q-114 0 -173 -95.5t-59 -318.5z" />
<glyph unicode="&#xf1;" horiz-adv-x="1402" d="M98 0v92h76q42 0 65 24.5t23 69.5v557q0 49 -31.5 78t-85.5 29h-41v86l392 20q21 -86 30 -204q164 221 371 221q141 0 221 -92q80 -95 80 -260v-435q0 -49 23 -71.5t73 -22.5h54v-92h-564v92h60q92 0 92 94v408q0 101 -46.5 158t-125.5 57q-107 0 -172.5 -80.5 t-65.5 -228.5v-314q0 -44 23.5 -69t60.5 -25h72v-92h-584zM379 1167q12 124 73 191t152 67q53 0 178 -43q115 -41 146 -41q97 0 119 91h26q-4 -116 -69 -189.5t-152 -73.5q-36 0 -76 9q-27 7 -164 57q-64 22 -96 22q-80 0 -115 -90h-22z" />
<glyph unicode="&#xf2;" d="M88 477q0 219 150 363q150 147 380 147q157 0 289 -67.5t195 -178.5q65 -109 65 -262q0 -248 -168 -379t-378 -131q-148 -1 -272.5 66.5t-195 185t-65.5 256.5zM393 1370q0 43 35 77t82 34q44 0 80 -25t88 -96l151 -219l-26 -25l-287 129q-73 34 -98 60.5t-25 64.5z M397 479q0 -237 62 -329q63 -91 166 -91q235 0 235 414q0 236 -65 328t-170 92q-110 0 -169 -96t-59 -318z" />
<glyph unicode="&#xf3;" d="M88 477q0 219 150 363q150 147 380 147q157 0 289 -67.5t195 -178.5q65 -109 65 -262q0 -248 -168 -379t-378 -131q-148 -1 -272.5 66.5t-195 185t-65.5 256.5zM397 479q0 -237 62 -329q63 -91 166 -91q235 0 235 414q0 236 -65 328t-170 92q-110 0 -169 -96t-59 -318z M426 1139l162 231q76 111 157 111q44 0 80.5 -34t36.5 -71q0 -44 -27.5 -73t-117.5 -68l-264 -119z" />
<glyph unicode="&#xf4;" d="M88 477q0 219 150 363q150 147 380 147q157 0 289 -67.5t195 -178.5q65 -109 65 -262q0 -248 -168 -379t-378 -131q-148 -1 -272.5 66.5t-195 185t-65.5 256.5zM297 1110l182 377h297l182 -377h-34l-295 219l-297 -219h-35zM397 479q0 -237 62 -329q63 -91 166 -91 q235 0 235 414q0 236 -65 328t-170 92q-110 0 -169 -96t-59 -318z" />
<glyph unicode="&#xf5;" d="M88 477q0 219 150 363q150 147 380 147q157 0 289 -67.5t195 -178.5q65 -109 65 -262q0 -248 -168 -379t-378 -131q-148 -1 -272.5 66.5t-195 185t-65.5 256.5zM281 1167q12 124 73 191t152 67q53 0 178 -43q115 -41 145 -41q97 0 119 91h27q-4 -116 -69 -189.5 t-152 -73.5q-36 0 -76 9q-27 7 -164 57q-64 22 -96 22q-80 0 -115 -90h-22zM397 479q0 -237 62 -329q63 -91 166 -91q235 0 235 414q0 236 -65 328t-170 92q-110 0 -169 -96t-59 -318z" />
<glyph unicode="&#xf6;" d="M88 477q0 219 150 363q150 147 380 147q157 0 289 -67.5t195 -178.5q65 -109 65 -262q0 -248 -168 -379t-378 -131q-148 -1 -272.5 66.5t-195 185t-65.5 256.5zM274 1300q0 56 39 95t95 39q55 0 94 -39t39 -95t-38.5 -94.5t-94.5 -38.5t-95 39t-39 94zM397 479 q0 -237 62 -329q63 -91 166 -91q235 0 235 414q0 236 -65 328t-170 92q-110 0 -169 -96t-59 -318zM713 1300q0 56 39 95t94 39q57 0 96 -39t39 -95q0 -55 -39.5 -94t-95.5 -39t-94.5 38.5t-38.5 94.5z" />
<glyph unicode="&#xf7;" horiz-adv-x="1124" d="M47 600v186h1028v-186h-1028zM446 281q0 45 34.5 78.5t80.5 33.5t80.5 -33.5t34.5 -80.5q0 -46 -34.5 -80.5t-80.5 -34.5q-47 0 -81.5 35t-33.5 82zM446 1110q0 47 34.5 81t80.5 34t80.5 -34.5t34.5 -80.5q0 -47 -34.5 -82t-80.5 -35q-47 0 -82 35.5t-33 81.5z" />
<glyph unicode="&#xf8;" d="M88 477q0 219 150 363q150 147 380 147q203 0 353 -102l98 102h121l-154 -160q131 -131 131 -348q0 -248 -168 -379t-378 -131q-174 0 -314 90l-86 -90h-121l138 146q-69 63 -109.5 158.5t-40.5 203.5zM397 475q0 -101 15 -178l415 436q-53 160 -202 160 q-72 0 -121 -38.5t-78 -133.5t-29 -246zM436 197q24 -64 74 -101t115 -37q235 0 235 414q0 86 -10 158z" />
<glyph unicode="&#xf9;" horiz-adv-x="1402" d="M82 846v90l418 25v-625q0 -86 47 -137.5t123 -51.5q102 0 168 84q63 81 63 197v307q0 53 -29 82t-81 29h-48v90l422 25v-758q0 -51 32 -81t83 -30h43v-92l-385 -12q-26 112 -29 215q-96 -120 -184.5 -171.5t-189.5 -51.5q-142 0 -224 95t-82 281v373q0 63 -31.5 89.5 t-115.5 27.5zM485 1370q0 43 35 77t82 34q44 0 80 -25t88 -96l152 -219l-27 -25l-287 129q-73 34 -98 60.5t-25 64.5z" />
<glyph unicode="&#xfa;" horiz-adv-x="1402" d="M82 846v90l418 25v-625q0 -86 47 -137.5t123 -51.5q102 0 168 84q63 81 63 197v307q0 53 -29 82t-81 29h-48v90l422 25v-758q0 -51 32 -81t83 -30h43v-92l-385 -12q-26 112 -29 215q-96 -120 -184.5 -171.5t-189.5 -51.5q-142 0 -224 95t-82 281v373q0 63 -31.5 89.5 t-115.5 27.5zM502 1139l162 231q76 111 157 111q44 0 80.5 -34t36.5 -71q0 -44 -27.5 -73t-117.5 -68l-265 -119z" />
<glyph unicode="&#xfb;" horiz-adv-x="1402" d="M82 846v90l418 25v-625q0 -86 47 -137.5t123 -51.5q102 0 168 84q63 81 63 197v307q0 53 -29 82t-81 29h-48v90l422 25v-758q0 -51 32 -81t83 -30h43v-92l-385 -12q-26 112 -29 215q-96 -120 -184.5 -171.5t-189.5 -51.5q-142 0 -224 95t-82 281v373q0 63 -31.5 89.5 t-115.5 27.5zM377 1110l182 377h297l184 -377h-36l-295 219l-295 -219h-37z" />
<glyph unicode="&#xfc;" horiz-adv-x="1402" d="M82 846v90l418 25v-625q0 -86 47 -137.5t123 -51.5q102 0 168 84q63 81 63 197v307q0 53 -29 82t-81 29h-48v90l422 25v-758q0 -51 32 -81t83 -30h43v-92l-385 -12q-26 112 -29 215q-96 -120 -184.5 -171.5t-189.5 -51.5q-142 0 -224 95t-82 281v373q0 63 -31.5 89.5 t-115.5 27.5zM358 1300q0 56 39 95t95 39q55 0 94 -39t39 -95t-38.5 -94.5t-94.5 -38.5t-95 39t-39 94zM797 1300q0 56 39 95t96 39q55 0 94 -39t39 -95q0 -55 -39.5 -94t-93.5 -39q-56 0 -95.5 39t-39.5 94z" />
<glyph unicode="&#xfd;" d="M61 -219q0 55 35.5 91t89.5 36q55 0 90 -34.5t35 -86.5q0 -19 -6 -43q-4 -20 -4 -25q0 -22 27 -22q48 0 118.5 78t147.5 233l-399 768q-23 42 -45.5 58t-55.5 16h-26v86h553v-86h-54q-88 0 -88 -49q0 -26 19 -58l231 -454l197 411q16 37 16 62q0 88 -119 88h-28v86h407 v-86q-59 -1 -95 -26t-63 -81l-372 -782q-96 -202 -201 -291q-82 -67 -182 -67q-102 0 -165 50.5t-63 127.5zM510 1139l162 231q76 111 157 111q44 0 81.5 -34t37.5 -71q0 -43 -28.5 -72t-118.5 -69l-264 -119z" />
<glyph unicode="&#xfe;" horiz-adv-x="1366" d="M98 -293h29q51 0 70 9t30 34q6 15 6 80v1432q0 62 -9 84t-31 34q-24 10 -95 13v84l408 24v-729q61 95 153 148t203 53q186 0 296 -131t110 -365q0 -241 -117 -374.5t-313 -133.5q-103 0 -183 47.5t-149 149.5v-336q1 -8 2 -22q4 -61 14 -74q12 -15 67 -20q7 -1 24 -2 q32 -3 51 -5v-94h-566v94zM506 467q0 -170 68 -267.5t165 -97.5q90 0 146 80q71 109 71 289q0 167 -58 263.5t-161 96.5q-101 0 -166 -96t-65 -268z" />
<glyph unicode="&#xff;" d="M61 -219q0 55 35.5 91t89.5 36q55 0 90 -34.5t35 -86.5q0 -19 -6 -43q-4 -20 -4 -25q0 -22 27 -22q48 0 118.5 78t147.5 233l-399 768q-23 42 -45.5 58t-55.5 16h-26v86h553v-86h-54q-88 0 -88 -49q0 -26 19 -58l231 -454l197 411q16 37 16 62q0 88 -119 88h-28v86h407 v-86q-59 -1 -95 -26t-63 -81l-372 -782q-96 -202 -201 -291q-82 -67 -182 -67q-102 0 -165 50.5t-63 127.5zM336 1300q0 56 39 95t94 39t94 -39t39 -95t-39 -94.5t-94 -38.5t-94 38.5t-39 94.5zM774 1300q0 56 39 95t94 39q57 0 96 -39t39 -95q0 -55 -39.5 -94t-95.5 -39 q-54 0 -93.5 39t-39.5 94z" />
<glyph unicode="&#x152;" horiz-adv-x="2048" d="M43 715q0 223 91 403t247 275q155 94 352 94l133 -6l64 -2h993l31 -512h-84q-44 239 -135 327q-92 92 -250 92h-101q-67 0 -67 -90v-491h29q106 0 170 82q50 58 65 196h88v-671h-88q-20 305 -235 305h-29v-537q0 -42 20.5 -65t53.5 -23h108q99 0 183.5 51.5t140.5 145.5 q58 94 88 272h88l-21 -561h-968q-5 0 -99 -4q-101 -8 -186 -8q-307 -7 -493.5 193.5t-188.5 533.5zM389 754q0 -343 125 -523q103 -145 272 -145q118 0 171 51.5t53 171.5v875q0 200 -234 200q-169 0 -278 -151t-109 -479z" />
<glyph unicode="&#x153;" horiz-adv-x="1857" d="M133 473q0 229 139 371q140 143 361 143q105 0 189 -30t163 -97q142 127 299 127q95 -4 174.5 -38t139.5 -97.5t92.5 -163.5t29.5 -227h-612q4 -185 76.5 -282t189.5 -97q82 0 148.5 48.5t136.5 166.5l72 -45q-73 -149 -173 -216t-247 -67q-93 0 -169 28t-163 95 q-85 -65 -166 -94t-176 -29q-227 0 -367 140q-137 137 -137 364zM440 467q0 -242 52 -324q53 -84 147 -84q101 0 154 84q53 83 53 334q0 248 -55 336t-152 88q-94 0 -147 -86q-52 -85 -52 -348zM1108 549h258q94 0 94 104q0 114 -53 191q-40 55 -111 55q-87 0 -135.5 -82 t-52.5 -268z" />
<glyph unicode="&#x178;" horiz-adv-x="1478" d="M-10 1386v93h735v-93h-100q-53 0 -75 -12t-22 -37q0 -21 19 -57l307 -530l215 430q29 56 29 98q0 50 -37 79t-105 29h-45v93h572v-93q-97 -1 -157.5 -38.5t-102.5 -120.5l-297 -588v-465q0 -82 92 -82h153v-92h-811v92h152q53 0 73.5 19t20.5 63v414l-397 684 q-37 64 -79 89t-107 25h-33zM395 1776q0 57 38.5 95t94.5 38t95 -39t39 -94q0 -56 -39 -95t-95 -39q-55 0 -94 39t-39 95zM834 1778q0 56 39 94.5t96 38.5q55 0 94 -38.5t39 -94.5q0 -57 -38.5 -96.5t-94.5 -39.5t-95.5 39.5t-39.5 96.5z" />
<glyph unicode="&#x2c6;" horiz-adv-x="681" d="M14 1110l185 377h297l182 -377h-37l-295 219l-295 -219h-37z" />
<glyph unicode="&#x2dc;" horiz-adv-x="681" d="M-4 1167q13 124 74.5 191t150.5 67q53 0 178 -43q115 -41 148 -41q97 0 119 91h26q-6 -116 -70.5 -189.5t-152.5 -73.5q-33 0 -74 9q-27 7 -164 57q-68 22 -96 22q-82 0 -117 -90h-22z" />
<glyph unicode="&#x2000;" horiz-adv-x="989" />
<glyph unicode="&#x2001;" horiz-adv-x="1978" />
<glyph unicode="&#x2002;" horiz-adv-x="989" />
<glyph unicode="&#x2003;" horiz-adv-x="1978" />
<glyph unicode="&#x2004;" horiz-adv-x="659" />
<glyph unicode="&#x2005;" horiz-adv-x="494" />
<glyph unicode="&#x2006;" horiz-adv-x="329" />
<glyph unicode="&#x2007;" horiz-adv-x="329" />
<glyph unicode="&#x2008;" horiz-adv-x="247" />
<glyph unicode="&#x2009;" horiz-adv-x="395" />
<glyph unicode="&#x200a;" horiz-adv-x="109" />
<glyph unicode="&#x2010;" horiz-adv-x="681" d="M31 377v188h626v-188h-626z" />
<glyph unicode="&#x2011;" horiz-adv-x="681" d="M31 377v188h626v-188h-626z" />
<glyph unicode="&#x2012;" horiz-adv-x="681" d="M31 377v188h626v-188h-626z" />
<glyph unicode="&#x2013;" horiz-adv-x="1024" d="M-25 457v131h1024v-131h-1024z" />
<glyph unicode="&#x2014;" horiz-adv-x="2048" d="M-33 463v127h2048v-127h-2048z" />
<glyph unicode="&#x2018;" horiz-adv-x="493" d="M68 1090q0 121 88.5 238.5t244.5 189.5l33 -62q-108 -53 -168.5 -126.5t-60.5 -129.5q0 -29 28 -29l27 5q14 2 35 2q67 0 117.5 -51t50.5 -119q0 -72 -51 -122t-125 -50q-92 0 -155.5 72.5t-63.5 181.5z" />
<glyph unicode="&#x2019;" horiz-adv-x="493" d="M29 1346q0 70 51 121t125 51q91 0 155 -73t64 -181q0 -120 -89 -237t-245 -189l-33 61q106 52 168 126t62 128q0 31 -29 31l-29 -4q-28 -4 -32 -4q-67 0 -117.5 51t-50.5 119z" />
<glyph unicode="&#x201a;" horiz-adv-x="493" d="M72 164q0 70 50.5 121t123.5 51q93 0 157 -73.5t64 -182.5q0 -120 -90 -238t-246 -188l-33 59q109 54 170.5 127t61.5 129q0 29 -31 29l-27 -2q-28 -4 -32 -4q-68 0 -118 50.5t-50 121.5z" />
<glyph unicode="&#x201c;" horiz-adv-x="985" d="M31 1077q0 121 84.5 234.5t244.5 193.5l35 -63q-109 -59 -168 -129.5t-59 -122.5q0 -33 31 -33l26 2l31 2q72 0 121 -48.5t49 -121.5q0 -72 -49.5 -121t-124.5 -49q-93 0 -157 72.5t-64 183.5zM553 1077q0 121 85 235t245 191l35 -61q-110 -62 -169 -131.5t-59 -120.5 q0 -33 33 -33l25 2l30 2q72 0 121 -48.5t49 -121.5t-49.5 -121.5t-124.5 -48.5q-93 0 -157 72.5t-64 183.5z" />
<glyph unicode="&#x201d;" horiz-adv-x="985" d="M20 1339q0 74 50 123t125 49q94 0 157.5 -73t63.5 -185q0 -119 -85 -232.5t-245 -193.5l-35 62q112 62 170 131t58 123q0 31 -31 31l-27 -3l-31 -2q-72 0 -121 49t-49 121zM543 1339q0 74 49.5 123t126.5 49q93 0 156 -73t63 -185q0 -119 -85 -232.5t-245 -193.5l-33 62 q110 62 168 132t58 122q0 31 -31 31l-27 -3l-30 -2q-72 0 -121 49t-49 121z" />
<glyph unicode="&#x201e;" horiz-adv-x="985" d="M43 158q0 70 51.5 121t124.5 51q92 0 155.5 -73.5t63.5 -182.5q0 -121 -89 -238.5t-245 -187.5l-32 59q106 54 167.5 128t61.5 128q0 29 -29 29l-26 -2q-28 -4 -33 -4q-68 0 -119 50.5t-51 121.5zM565 158q0 70 51.5 121t124.5 51q92 0 156 -73.5t64 -182.5 q0 -121 -89 -238.5t-245 -187.5l-33 59q106 54 167.5 128t61.5 128q0 29 -28 29l-27 -2q-28 -4 -35 -4q-67 0 -117.5 50.5t-50.5 121.5z" />
<glyph unicode="&#x2022;" horiz-adv-x="1241" d="M332 686q0 121 84 205q83 86 202 86q122 0 205 -86q86 -83 86 -207q0 -119 -86 -205q-84 -84 -202 -84q-121 0 -205 84q-84 87 -84 207z" />
<glyph unicode="&#x2026;" horiz-adv-x="2048" d="M170 141q0 71 50 121.5t120 50.5q72 0 121 -50t49 -122q0 -70 -49.5 -121t-120.5 -51q-70 0 -120 50.5t-50 121.5zM848 145q0 72 50 123t122 51t122 -51t50 -123q0 -74 -50 -125t-122 -51t-122 51t-50 125zM1530 143q0 74 50 125t122 51t122 -51t50 -125q0 -72 -50 -123 t-122 -51t-122 51t-50 123z" />
<glyph unicode="&#x202f;" horiz-adv-x="395" />
<glyph unicode="&#x2039;" horiz-adv-x="681" d="M90 553l381 430h107l-179 -430l179 -438h-107z" />
<glyph unicode="&#x203a;" horiz-adv-x="681" d="M92 119l176 436l-176 432h107l381 -432l-381 -436h-107z" />
<glyph unicode="&#x205f;" horiz-adv-x="494" />
<glyph unicode="&#x20ac;" horiz-adv-x="1175" d="M-6 545l29 106h98v35q0 51 2 76h-129l29 106h112q28 168 107 296.5t194 197t248 68.5q198 0 313 -115l54 110h57l22 -477h-90q-16 115 -46 193.5t-73 121t-92.5 59.5t-115.5 17q-123 0 -193.5 -119.5t-85.5 -351.5h596l-26 -106h-574v-111h559l-26 -106h-527 q19 -237 90.5 -353t202.5 -116q65 0 118.5 29.5t91 81.5t63 116.5t40.5 142.5h93q-37 -221 -151 -348t-300 -127q-210 0 -363 159t-190 415h-137z" />
<glyph unicode="&#x2122;" horiz-adv-x="2048" d="M-16 1247v232h786v-232h-35q-5 92 -51 135t-145 43h-39v-598q0 -84 20 -108.5t84 -24.5v-35h-461v35q59 4 75 11.5t22 29.5q8 19 8 92v598h-35q-97 0 -143 -42t-54 -136h-32zM868 659v35q11 2 31 4q55 7 65.5 19.5t14.5 77.5q1 20 2 32v478q0 65 -8 87.5t-29 34.5 q-20 13 -76 13v39h373l236 -504l231 504h352v-39q-47 0 -66 -10.5t-30 -36.5q-6 -15 -6 -88v-478q0 -78 16 -100q24 -30 86 -33v-35h-467v35q74 0 94.5 23.5t20.5 109.5v510l-324 -678h-24l-322 678v-510q0 -69 7 -88t32 -32q23 -13 76 -13v-35h-285z" />
<glyph unicode="&#x25fc;" horiz-adv-x="931" d="M0 0v932h932v-932h-932z" />
</font>
</defs>
</svg>
