<?xml version="1.0" standalone="no"?>
<!DOCTYPE svg PUBLIC "-//W3C//DTD SVG 1.1//EN" "http://www.w3.org/Graphics/SVG/1.1/DTD/svg11.dtd" >
<svg xmlns="http://www.w3.org/2000/svg">
<metadata></metadata>
<defs>
<font id="century_schoolbook_proitalic" horiz-adv-x="681" >
<font-face units-per-em="2048" ascent="1536" descent="-512" />
<missing-glyph horiz-adv-x="569" />
<glyph unicode="&#xfb01;" horiz-adv-x="1251" d="M-37 -383q0 6 10 29q58 104 119 282q65 176 107 351l137 573h-186l20 84h186q82 286 228.5 431.5t326.5 145.5q115 0 183.5 -49t68.5 -121q0 -53 -31.5 -86.5t-76.5 -33.5q-35 0 -58.5 23.5t-23.5 58.5q0 19 12 53q10 27 10 37q0 20 -18 32q-29 19 -78 19 q-124 0 -203 -94q-107 -127 -178 -416h322q106 0 256 18l-219 -780q-9 -30 -9 -57q0 -22 11.5 -35.5t25.5 -13.5q32 0 78 43q86 86 164 227l49 -39q-178 -328 -346 -328q-62 0 -97.5 43.5t-35.5 118.5q0 47 12 94l160 561q2 6 2 19q0 45 -62 45h-331l-162 -678 q-43 -182 -82 -313q-25 -88 -74 -195q-44 -13 -139 -49q-50 -16 -59 -16q-19 0 -19 16z" />
<glyph unicode="&#xfb02;" horiz-adv-x="1251" d="M-45 -379q0 9 10 29q26 39 68 131q33 74 59 164q72 224 80 260l154 653h-185l17 78h186q89 287 213 420q149 162 346 162q74 0 141 -25q78 0 195 8l-352 -1245q-29 -110 -29 -135q0 -49 37 -49q84 0 240 270l51 -39q-89 -171 -197 -262q-73 -61 -149 -61 q-62 0 -95.5 39.5t-33.5 113.5t14 123l289 1008q-33 17 -33 57q0 16 10 49q6 15 6 23q0 24 -26 41q-29 16 -82 16q-166 0 -271 -195q-57 -102 -110 -319h233l-16 -78h-238l-176 -741q-68 -281 -139 -447q-86 -19 -145 -51q-44 -18 -54 -18q-18 0 -18 20z" />
<glyph unicode="&#xfb03;" horiz-adv-x="1755" d="M-47 -385q0 5 29 74q75 165 116 291q40 109 92 333l129 539h-159l20 84h158q55 196 135 342q83 144 152 190q73 48 143 48q67 0 106 -35.5t39 -91.5q0 -47 -25.5 -77t-66.5 -30q-34 0 -55.5 21.5t-34.5 74.5q-9 43 -37 43q-38 0 -65 -53q-55 -101 -127 -432h246h112 q79 280 225 430t332 150q112 0 181 -48.5t69 -124.5q0 -54 -32 -87t-76 -33q-35 0 -58.5 24t-23.5 58q0 19 13 49t13 41q0 23 -27.5 36t-70.5 13q-137 0 -229 -124t-154 -384h321q90 0 256 18l-219 -778q-8 -31 -8 -59q0 -20 9.5 -34.5t27.5 -14.5q39 0 106 72t136 198 l51 -39q-180 -326 -348 -326q-63 0 -98 43t-35 121q0 47 12 90l160 561q2 6 2 19q0 45 -62 45h-332l-161 -676q-77 -331 -156 -510q-40 -12 -86.5 -29.5t-73.5 -27.5t-39 -10q-7 0 -12.5 5.5t-5.5 12.5q0 2 38.5 87t97.5 247t99 328l138 573h-228h-133l-180 -760 q-63 -270 -131 -428q-37 -9 -115 -39q-68 -24 -86 -24q-14 0 -14 14z" />
<glyph unicode="&#xfb04;" horiz-adv-x="1767" d="M-47 -385q0 5 29 74q75 165 116 291q40 109 92 333l129 539h-159l20 84h158q55 196 135 342q83 144 152 190q73 48 143 48q67 0 106 -35.5t39 -91.5q0 -47 -25.5 -77t-66.5 -30q-34 0 -55.5 21.5t-34.5 74.5q-9 43 -37 43q-38 0 -65 -53q-55 -101 -127 -432h145h213 q182 582 559 582q80 0 144 -25q76 0 194 8l-354 -1245q-27 -98 -27 -131q0 -26 7.5 -38.5t27.5 -12.5q87 0 242 268l49 -39q-82 -155 -171.5 -239t-174.5 -84q-69 0 -121.5 38.5t-52.5 110.5q0 50 22 127l326 1008q-33 17 -33 55q0 18 8 43.5t8 30.5q0 25 -28.5 39t-77.5 14 q-138 0 -227 -124t-154 -386h234l-19 -84h-237l-175 -735q-60 -259 -141 -447q-51 -13 -96.5 -31t-69 -29t-30.5 -11q-9 0 -15 7.5t-6 16.5q0 2 37.5 78t91.5 218t88 286l154 647h-207h-156l-180 -760q-63 -270 -131 -428q-37 -9 -115 -39q-68 -24 -86 -24q-14 0 -14 14z " />
<glyph horiz-adv-x="2048" />
<glyph horiz-adv-x="2048" />
<glyph unicode="&#xd;" horiz-adv-x="2048" />
<glyph unicode=" "  horiz-adv-x="569" />
<glyph unicode="&#x09;" horiz-adv-x="569" />
<glyph unicode="&#xa0;" horiz-adv-x="569" />
<glyph unicode="!" d="M135 94q0 53 36.5 89t86.5 36t86.5 -36t36.5 -89q0 -51 -36.5 -87t-86.5 -36t-86.5 36t-36.5 87zM305 389q128 493 178 842q21 141 37 192q15 48 47 70q36 25 68 25q43 0 73.5 -33t30.5 -82q0 -26 -16 -82q-13 -47 -92 -221q-83 -190 -115 -275q-60 -162 -145 -436h-66z " />
<glyph unicode="&#x22;" horiz-adv-x="819" d="M317 819l37 357q13 128 52.5 182.5t103.5 54.5q35 0 56.5 -19.5t21.5 -50.5q0 -27 -8 -51q-9 -28 -54 -123l-164 -350h-45zM690 819l35 357q13 128 52.5 182.5t103.5 54.5q35 0 56 -19.5t21 -50.5q0 -27 -8 -51q-11 -34 -53 -123l-164 -350h-43z" />
<glyph unicode="#" horiz-adv-x="1241" d="M162 426v125h223l78 377h-301v125h325l88 426h125l-88 -426h353l90 426h123l-88 -426h196v-125h-221l-78 -377h299v-125h-321l-88 -426h-125l86 426h-351l-88 -426h-127l88 426h-198zM510 551h352l78 377h-352z" />
<glyph unicode="$" horiz-adv-x="1138" d="M156 289q0 72 41.5 124t93.5 52q45 0 75.5 -31t30.5 -78q0 -33 -14.5 -55.5t-54.5 -46.5q-47 -27 -47 -57q0 -38 53.5 -81.5t136.5 -62.5l164 598q-115 109 -162 197.5t-47 183.5q0 168 113 275q114 108 303 108l24 103h76l-31 -113q114 -36 174 -104.5t60 -157.5 q0 -64 -30.5 -103t-76.5 -39q-38 0 -63 25.5t-25 63.5q0 43 39 88q31 39 31 55q0 27 -32.5 54.5t-94.5 45.5l-145 -528q151 -149 198 -240q45 -80 45 -182q0 -173 -129 -293q-124 -118 -336 -121l-63 -239h-78l68 250q-137 36 -217 122.5t-80 186.5zM547 43q135 3 223 82 q86 77 86 184q0 72 -35.5 138t-126.5 151zM549 1110q0 -55 26 -106q25 -49 119 -146l125 483q-128 -1 -199 -65t-71 -166z" />
<glyph unicode="%" horiz-adv-x="1705" d="M254 922q0 133 53 254q55 122 137 180q80 57 168 57q87 0 141 -66.5t54 -177.5q0 -167 -100 -327t-254 -160q-89 0 -144 65.5t-55 174.5zM383 834q0 -111 66 -111q43 0 86 43q44 44 88 190q59 201 59 308q0 54 -21 81t-57 27q-43 0 -78 -35q-51 -51 -98 -215 q-45 -154 -45 -288zM420 0l954 1395h86l-954 -1395h-86zM1096 211q0 133 55 252q54 121 135 180q80 57 170 57q86 0 139.5 -65t53.5 -176q0 -171 -101 -328q-100 -160 -254 -160q-87 0 -142.5 65.5t-55.5 174.5zM1225 123q0 -60 16.5 -85.5t50.5 -25.5q43 0 86 43 q45 42 86 191q62 201 62 307q0 53 -22 81t-58 28q-41 0 -78 -37q-51 -54 -96 -213q-47 -165 -47 -289z" />
<glyph unicode="&#x26;" horiz-adv-x="1744" d="M145 352q0 109 50.5 204.5t144.5 164.5q94 70 313 147q-24 120 -24 201q-6 194 114.5 322.5t294.5 126.5q126 0 213 -84q88 -82 88 -193q0 -94 -79 -188q-78 -93 -386 -193q50 -238 144 -444q23 -55 76 -133q128 116 200 233q45 68 45 123q0 45 -41 72.5t-124 27.5h-35 l18 72h516v-72h-41q-70 0 -141 -82q-46 -53 -117 -155q-83 -121 -114 -156q-56 -62 -127 -125q95 -115 194 -115q130 0 268 199l52 -43q-91 -156 -188 -223.5t-216 -67.5q-156 0 -272 131q-195 -131 -410 -131q-186 0 -301 109q-115 112 -115 272zM381 397q0 -133 86 -225 q89 -92 213 -92q121 0 248 80q-83 121 -142 260q-51 119 -114 373q-152 -70 -221.5 -167.5t-69.5 -228.5zM829 1151q0 -78 31 -221q334 99 334 325q0 85 -46.5 137t-119.5 52q-87 0 -143 -78t-56 -215z" />
<glyph unicode="'" horiz-adv-x="569" d="M373 819l35 344q17 141 53 195.5t100 54.5q38 0 60 -19.5t22 -50.5q0 -44 -51 -149l-174 -375h-45z" />
<glyph unicode="(" d="M121 377q0 329 178 619t543 522h82q-311 -254 -469 -573t-158 -679q0 -358 172 -665h-55q-293 328 -293 776z" />
<glyph unicode=")" d="M-139 -399q306 246 461 565t155 696q0 366 -180 656h65q293 -326 293 -791q-6 -321 -173.5 -598.5t-534.5 -527.5h-86z" />
<glyph unicode="*" horiz-adv-x="1024" d="M346 1192q0 39 25.5 64.5t66.5 25.5q60 0 146 -74q49 -43 80 -59q22 -16 69 -31v31q0 47 -24 117q-43 110 -43 143q0 44 28 76.5t66 32.5q41 0 68.5 -29.5t27.5 -71.5q0 -32 -39 -139q-27 -73 -33 -160q27 6 70 29q28 16 82 59q56 48 84 62t55 14q43 0 72 -26.5t29 -67.5 q0 -46 -36.5 -74.5t-105.5 -28.5l-39 2l-65 3q-57 0 -131 -23q49 -58 145 -119q57 -36 76.5 -63.5t19.5 -61.5q0 -41 -27.5 -69.5t-64.5 -28.5q-43 0 -71 29t-46 100q-22 85 -36 121q-11 25 -35 59q-23 -30 -35 -59q-12 -33 -31 -101q-24 -88 -43 -110q-27 -37 -78 -37 q-44 0 -71 25.5t-27 64.5q0 70 94 131q76 50 86 60q38 33 60 59q-57 23 -121 23l-47 -3l-51 -2q-150 0 -150 107z" />
<glyph unicode="+" horiz-adv-x="1241" d="M166 627v133h483v485h135v-485h486v-133h-486v-484h-135v484h-483z" />
<glyph unicode="," horiz-adv-x="569" d="M14 -254q115 51 179 119q47 50 47 88q0 19 -31 22q-94 9 -94 107q0 55 35 92t86 37q56 0 93.5 -44t37.5 -112q0 -110 -80 -205t-242 -159z" />
<glyph unicode="-" d="M129 389l43 154h406l-43 -154h-406z" />
<glyph unicode="." horiz-adv-x="569" d="M109 94q0 51 35.5 87t86.5 36q50 0 85.5 -36t35.5 -87t-35.5 -87t-85.5 -36q-51 0 -86.5 36t-35.5 87z" />
<glyph unicode="/" horiz-adv-x="1241" d="M233 -33l779 1475h133l-776 -1475h-136z" />
<glyph unicode="0" horiz-adv-x="1138" d="M176 420q0 268 141 557q105 209 233.5 322.5t272.5 113.5q152 0 245 -118.5t93 -342.5q0 -240 -114 -495q-113 -251 -265 -369q-147 -117 -284 -117q-146 0 -234 115t-88 334zM332 246q0 -99 45 -151t125 -52q192 0 295 270q76 203 151 496q58 223 58 330 q0 93 -50.5 148.5t-132.5 55.5q-110 0 -180 -88q-93 -119 -203 -493q-108 -378 -108 -516z" />
<glyph unicode="1" horiz-adv-x="1138" d="M199 0l20 76h68q155 0 182 106l254 940q2 8 2 23q0 67 -121 67h-119l19 72q133 12 226.5 42.5t176.5 86.5h60l-334 -1243q-2 -8 -2 -25q0 -33 24.5 -51t71.5 -18h133l-20 -76h-641z" />
<glyph unicode="2" horiz-adv-x="1138" d="M78 0l20 76q78 112 201 235q113 110 350 297q166 131 197 162q141 147 141 326q0 107 -67.5 171t-184.5 64t-194 -65q-78 -66 -78 -133q0 -20 12 -35q17 -17 60 -31q58 -23 80 -49.5t22 -69.5q0 -49 -33 -79.5t-84 -30.5q-71 0 -118.5 56t-47.5 146q0 157 117 265 q120 108 305 108q190 0 303 -98t113 -250q0 -168 -156 -311q-82 -76 -274 -195q-214 -131 -305 -207q-116 -102 -193 -194h461q66 0 111 39q43 37 112 194h80l-135 -391h-815z" />
<glyph unicode="3" horiz-adv-x="1138" d="M131 303q0 77 41 126.5t98 49.5q51 0 84 -31.5t33 -82.5q0 -42 -17 -68t-67 -55q-32 -19 -35 -25q-6 -9 -6 -24q0 -46 62 -93q62 -45 157 -45q90 0 167.5 50.5t125.5 146.5q49 98 49 205q0 96 -61 157q-62 62 -160 62q-13 0 -59 -4q-50 -4 -51 -4q-62 0 -62 43 q0 19 16.5 31t47.5 12l34 -2q54 -4 60 -4q173 0 282 106q111 108 111 264q0 104 -57 161.5t-160 57.5q-92 0 -150 -37q-57 -37 -57 -63q0 -17 27 -41q51 -45 51 -100q0 -44 -30.5 -75.5t-74.5 -31.5q-50 0 -82 38t-32 99q0 110 106 197q110 90 269 90q160 0 270 -96 q108 -95 108 -227q0 -271 -417 -379q266 -102 266 -328q0 -161 -144 -287q-143 -125 -342 -125q-176 0 -288.5 97.5t-112.5 234.5z" />
<glyph unicode="4" horiz-adv-x="1138" d="M139 373l31 106l905 934h84l-264 -956h188l-22 -84h-193l-53 -199q-4 -20 -4 -29q0 -33 24.5 -51t71.5 -18h68l-19 -76h-534l20 76q96 1 143.5 28t59.5 80l53 189h-559zM276 457h447l184 653z" />
<glyph unicode="5" horiz-adv-x="1138" d="M170 233q0 85 44.5 139t111.5 54q50 0 82 -33.5t32 -85.5q0 -96 -104 -117q-30 -6 -39.5 -15t-9.5 -30q0 -34 41 -61q56 -39 137 -39q208 0 328 266q65 148 65 279q0 97 -60.5 155t-164.5 58q-101 0 -191 -68q-23 -16 -41 -51q-21 -43 -51 -43q-17 0 -28 10t-11 23 q0 22 35 63q13 16 16 25l226 624q9 27 28 27q16 0 50 -18q46 -26 117 -43t141 -17q74 0 146.5 20t111.5 50q12 6 16 6q12 0 12 -10q0 -22 -45 -70q-143 -155 -354 -155q-88 0 -203 41l-137 -386q122 52 219 52q158 0 256 -101q101 -101 101 -268q0 -243 -170 -393 q-169 -150 -398 -150q-140 0 -224.5 73.5t-84.5 188.5z" />
<glyph unicode="6" horiz-adv-x="1138" d="M217 430q0 246 121 494q120 245 293 366q173 123 342 123q122 0 196 -60.5t74 -150.5q0 -65 -38.5 -106t-96.5 -41q-50 0 -85.5 32.5t-35.5 77.5q0 39 31 78q26 33 26 51q0 49 -69 49q-226 0 -373 -286q-45 -83 -129 -348q156 135 301 135q125 0 207 -94q86 -92 86 -244 q0 -134 -73 -259t-197 -200q-122 -76 -240 -76q-139 0 -240 125q-100 124 -100 334zM406 276q0 -109 46 -171t117 -62q74 0 133 55t107 187q68 186 68 301q0 75 -42.5 119.5t-111.5 44.5q-135 0 -227 -150q-90 -153 -90 -324z" />
<glyph unicode="7" horiz-adv-x="1138" d="M317 936l164 479h58q44 -20 96 -20h643l-12 -62q-214 -237 -346 -438.5t-197.5 -375t-97.5 -378.5q-17 -97 -47 -133.5t-86 -36.5q-48 0 -76.5 31t-28.5 84q0 105 154 399q202 381 538 754h-374q-111 0 -173 -53t-133 -250h-82z" />
<glyph unicode="8" horiz-adv-x="1138" d="M147 291q0 76 47 158t128 141q86 61 260 121q-158 143 -158 319q0 166 121 275q123 108 303 108q154 0 246 -80t92 -209q0 -118 -76 -209q-75 -94 -274 -176q135 -135 170 -204q36 -68 36 -156q0 -162 -133 -277q-146 -131 -346 -131q-177 0 -297 99q-119 98 -119 221z M276 289q0 -96 82 -172q83 -74 203 -74q138 0 230 80q92 83 92 190q0 74 -45 142q-51 77 -201 207q-173 -63 -267 -165.5t-94 -207.5zM553 1110q0 -65 41 -133q43 -67 180 -186q297 116 297 319q0 99 -69.5 165t-174.5 66q-118 0 -196 -69q-78 -72 -78 -162z" />
<glyph unicode="9" horiz-adv-x="1138" d="M150 184q0 67 38.5 109.5t96.5 42.5q51 0 84.5 -32.5t33.5 -82.5q0 -24 -8 -43q-4 -9 -30 -47q-19 -22 -19 -41q0 -47 74 -47q95 0 188 62t164 182q74 122 146 391q-162 -137 -297 -137q-130 0 -211 100q-82 101 -82 254q0 194 147 344q168 174 359 174q151 0 246.5 -124 t95.5 -339q0 -244 -121 -489q-119 -240 -295 -367q-176 -123 -340 -123q-121 0 -195.5 60.5t-74.5 152.5zM520 805q0 -81 41 -125.5t111 -44.5q130 0 225 147q94 149 94 338q0 108 -45.5 165.5t-122.5 57.5q-72 0 -129 -51q-56 -48 -116 -207q-58 -155 -58 -280z" />
<glyph unicode=":" horiz-adv-x="569" d="M53 94q0 51 35.5 87t85.5 36q51 0 87 -36t36 -87t-36 -87t-87 -36q-50 0 -85.5 36t-35.5 87zM268 842q0 51 35.5 87t85.5 36q51 0 87 -36t36 -87t-36 -87t-87 -36q-50 0 -85.5 36t-35.5 87z" />
<glyph unicode=";" horiz-adv-x="569" d="M-2 -254q115 53 178 119q49 52 49 86q0 19 -35 22q-44 4 -69 34t-25 75q0 55 36.5 92t88.5 37q56 0 91.5 -43t35.5 -117q0 -108 -80.5 -203.5t-236.5 -156.5zM328 842q0 51 36 87t87 36q50 0 85 -36t35 -87t-35 -87t-85 -36q-51 0 -87 36t-36 87z" />
<glyph unicode="&#x3c;" horiz-adv-x="1241" d="M166 635v119l1100 463v-144l-922 -379l922 -379v-145z" />
<glyph unicode="=" horiz-adv-x="1241" d="M166 393v133h1104v-133h-1104zM166 866v135h1104v-135h-1104z" />
<glyph unicode="&#x3e;" horiz-adv-x="1241" d="M166 170v143l921 379l-921 381v144l1100 -463v-121z" />
<glyph unicode="?" horiz-adv-x="909" d="M233 94q0 51 35 87t86 36t86 -36t35 -87t-35.5 -87t-85.5 -36t-85.5 36t-35.5 87zM240 1145q-2 71 27 140t77.5 120t113.5 81.5t130 26.5q118 0 196 -80t78 -202q0 -143 -106 -252q-59 -59 -187 -139q-118 -74 -166.5 -139t-48.5 -132q0 -48 29.5 -80t69.5 -32 q101 0 168 186l53 -31q-80 -221 -234 -221q-79 0 -128.5 56t-49.5 149q0 121 98 242q48 59 189 178q146 125 174 168q31 48 31 100q0 69 -48.5 116.5t-121.5 47.5q-115 0 -197 -88q-84 -90 -84 -215q0 -40 8 -76l-57 -12q-14 49 -14 88z" />
<glyph unicode="@" horiz-adv-x="1529" d="M141 684q-4 169 60.5 325.5t173.5 268.5t258.5 178t308.5 62q134 3 249 -41t193.5 -122.5t123 -186.5t44.5 -232q0 -230 -131 -416q-128 -186 -334 -186q-135 0 -135 119q0 35 17 122q-111 -137 -189.5 -189t-146.5 -52q-65 0 -109.5 53t-44.5 141q0 128 80 279 q81 152 195 235q116 84 196 84q121 0 144 -116l28 94l138 16l-121 -409l-43 -154q-15 -56 -15 -88q0 -35 17 -53.5t47 -18.5q73 0 150.5 68t131.5 197q60 142 60 284q0 136 -72 262q-71 124 -188 187t-277 63q-143 4 -276.5 -56t-231.5 -163.5t-156 -249.5t-55 -307 q0 -417 318 -598q152 -88 342 -88q221 0 403 123t265 336h61q-70 -229 -274 -377q-205 -146 -461 -146q-320 0 -533 213q-211 211 -211 539zM618 557q0 -56 28.5 -89.5t72.5 -33.5q53 0 123 58q89 75 155 215q66 141 66 251q0 61 -28 95t-74 34q-107 0 -226 -198 q-117 -199 -117 -332z" />
<glyph unicode="A" horiz-adv-x="1441" d="M-92 0l20 76q81 6 139 46t117 132l777 1225h81l181 -1305q6 -51 40.5 -74.5t106.5 -23.5h49l-18 -76h-600l18 76h53q83 0 111.5 17t28.5 57q0 20 -2 34l-41 299h-535l-131 -207q-35 -56 -35 -108q0 -92 138 -92h49l-21 -76h-526zM489 571h467l-84 605z" />
<glyph unicode="B" horiz-adv-x="1478" d="M-8 0l22 76h123q74 0 92 69l314 1160q8 19 8 47t-21 40.5t-81 12.5h-136l19 74h727q210 0 312 -85.5t102 -244.5q0 -304 -431 -369q178 -36 269.5 -126.5t91.5 -217.5q0 -183 -143 -293q-183 -143 -459 -143h-809zM446 133q0 -26 21 -41q29 -16 90 -16h207q205 0 317 127 q90 104 90 276q0 113 -76 180.5t-206 67.5h-287l-153 -573q-3 -9 -3 -21zM623 803h254q162 0 267 109.5t105 275.5q0 115 -82 176q-58 43 -219 43q-116 0 -143 -18q-25 -14 -47 -97z" />
<glyph unicode="C" horiz-adv-x="1478" d="M188 571q0 243 121 476q122 229 305 350q183 119 392 119q101 0 187 -38.5t181 -129.5l105 100h67l-108 -543h-64q-3 175 -28 262q-38 134 -123 205.5t-207 71.5q-160 0 -295 -125t-219 -379q-76 -224 -76 -440q0 -213 106 -331t291 -118q161 0 289 101t209 299l63 -25 q-83 -212 -206 -315q-166 -140 -396 -140q-256 0 -426 170q-168 168 -168 430z" />
<glyph unicode="D" horiz-adv-x="1593" d="M-4 0l18 76h80q66 0 96 22t48 80l307 1145q2 6 2 23q0 59 -117 59h-111l19 74h668q279 0 433 -156t154 -438q0 -187 -67 -361q-68 -176 -168 -282q-102 -108 -268 -174q-171 -68 -338 -68h-756zM444 131q0 -55 78 -55h195q216 2 359.5 124t223.5 390q68 242 68 420 q0 225 -127 325q-90 72 -297 72q-116 0 -145 -16q-26 -16 -41 -80l-307 -1141q-7 -25 -7 -39z" />
<glyph unicode="E" horiz-adv-x="1478" d="M39 0l8 76h78q102 0 123 74l311 1159q4 24 4 34q0 31 -25 46.5t-85 15.5h-123l20 74h1182l-115 -478h-71q18 95 18 156q0 128 -69 188t-216 60h-205q-44 0 -65 -22.5t-41 -94.5l-129 -487h102q239 0 318 264h76l-181 -672h-71q20 87 20 135q0 97 -49 148t-141 51h-92 l-150 -557q-4 -24 -4 -35q0 -28 16 -41q24 -18 60 -18h235q186 0 319 103.5t230 334.5h72l-158 -514h-1202z" />
<glyph unicode="F" horiz-adv-x="1366" d="M2 0l14 76h95q62 0 87.5 22.5t45.5 98.5l299 1110q6 21 6 47q0 28 -19.5 39.5t-76.5 11.5h-142l19 74h1216l-84 -475h-69q6 70 6 106q0 151 -72.5 223t-222.5 72h-248q-41 0 -60 -16t-30 -58l-141 -528h141q131 0 211.5 62.5t126.5 207.5h74l-181 -676h-71q20 76 20 135 q0 97 -47 148t-133 51h-162l-151 -581q-2 -6 -2 -19q0 -24 18 -39q29 -16 74 -16h164l-21 -76h-684z" />
<glyph unicode="G" horiz-adv-x="1593" d="M158 557q0 238 127 471q131 234 327 361q200 129 408 129q107 0 193 -36.5t182 -123.5l88 102h67l-86 -524h-69q-4 245 -108.5 375.5t-278.5 130.5q-169 0 -310.5 -133t-228.5 -404q-76 -229 -76 -434q0 -204 97 -315t264 -111q180 0 290 125q59 65 74 129l60 213l10 29 v14q0 27 -22 43t-64 16h-103l19 72h541l-9 -72h-55q-79 0 -100 -75l-142 -539h-65l-10 170q-111 -105 -224 -152t-245 -47q-241 0 -396 162t-155 424z" />
<glyph unicode="H" horiz-adv-x="1705" d="M45 0l21 76h47q113 0 131 69l311 1151q8 31 8 50q0 59 -114 59h-91l19 74h633l-17 -74h-88q-60 0 -88 -21.5t-45 -78.5l-133 -492h651l135 504q5 25 5 29q0 59 -125 59h-93l21 74h631l-13 -74h-79q-60 0 -90 -21.5t-44 -72.5l-305 -1141q-4 -24 -4 -35q0 -31 26 -45 t93 -14h72l-19 -76h-614l18 76h74q63 0 95 21.5t44 72.5l148 549h-650l-151 -555q-4 -28 -4 -29q0 -59 121 -59h102l-16 -76h-623z" />
<glyph unicode="I" horiz-adv-x="833" d="M8 0l19 76h96q116 0 137 78l307 1169q4 16 4 25q0 57 -92 57h-147l14 74h670l-15 -74h-102q-51 0 -78.5 -21.5t-40.5 -72.5l-301 -1129q-4 -20 -4 -43q0 -32 25 -47.5t84 -15.5h123l-17 -76h-682z" />
<glyph unicode="J" horiz-adv-x="1251" d="M45 283q0 136 69.5 219.5t172.5 83.5q71 0 115 -40.5t44 -101.5q0 -57 -35 -93t-92 -36q-38 0 -92 31q-36 19 -47 19q-25 0 -41 -28t-16 -81q0 -88 74 -148.5t190 -60.5q263 0 346 309l256 957q4 20 4 28q0 32 -22.5 48t-77.5 16h-139l18 74h639l-12 -74h-80 q-90 0 -111 -80l-239 -901q-64 -241 -178 -340q-137 -119 -365 -119q-178 0 -279.5 87t-101.5 231z" />
<glyph unicode="K" horiz-adv-x="1517" d="M-35 0l21 76h90q91 0 112 74l320 1179q2 6 2 19q0 57 -104 57h-95l21 74h626l-16 -74h-106q-95 0 -113 -76l-174 -637l674 553q57 45 57 80q0 80 -115 80h-57l16 74h596l-16 -74q-90 0 -154 -23q-52 -19 -145 -96l-494 -407l342 -729q38 -74 164 -74h80l-16 -76h-674 l18 76h86q117 0 117 53q0 18 -16 55l-264 559l-234 -190l-108 -403q-5 -15 -5 -19q0 -23 19 -39q29 -16 67 -16h148l-14 -76h-656z" />
<glyph unicode="L" horiz-adv-x="1366" d="M47 0l10 76h66q102 0 123 84l307 1149q4 24 4 37q0 30 -24 44.5t-84 14.5h-132l23 74h702l-16 -74h-123q-66 0 -94 -19.5t-41 -76.5l-303 -1137q-6 -21 -6 -39q0 -57 86 -57h194q160 0 288 100.5t241 329.5h63l-143 -506h-1141z" />
<glyph unicode="M" horiz-adv-x="1933" d="M0 0l18 76q97 4 165.5 59.5t92.5 143.5l279 1050q2 6 2 19q0 57 -104 57h-113l20 74h498l113 -1133l710 1133h457l-16 -74h-72q-115 0 -131 -76l-315 -1179q-5 -15 -5 -19q0 -23 23 -39q29 -16 86 -16h115l-19 -76h-651l16 76h99q60 0 88.5 20t42.5 70l323 1210 l-864 -1376h-53l-139 1376l-279 -1030q-20 -79 -20 -119q0 -74 48.5 -112.5t159.5 -38.5l-20 -76h-555z" />
<glyph unicode="N" horiz-adv-x="1669" d="M18 0l19 76q116 15 162 55q44 41 82 184l268 988q2 6 2 16q0 35 -33 55q-51 31 -125 31h-57l14 74h418l516 -1135l229 868q7 28 7 52q0 67 -41.5 104t-122.5 37h-41l16 74h516l-16 -74q-170 -9 -217 -176l-330 -1229h-67l-580 1274l-254 -959q-18 -64 -18 -98 q0 -95 71 -121q61 -20 125 -20h35l-18 -76h-560z" />
<glyph unicode="O" horiz-adv-x="1593" d="M170 559q0 252 123 477q124 229 323 355q204 127 420 127q248 0 404 -164q159 -163 159 -428q0 -254 -122 -477q-120 -220 -328 -351q-207 -127 -424 -127q-241 0 -397 164q-158 166 -158 424zM399 438q0 -194 87 -295.5t243 -101.5q345 0 528 455q117 293 117 561 q0 186 -89 288.5t-241 102.5q-122 0 -225.5 -58.5t-197.5 -189.5q-95 -136 -160 -348q-62 -213 -62 -414z" />
<glyph unicode="P" horiz-adv-x="1366" d="M-2 0l16 76h76q105 0 123 69l317 1172q2 8 2 26q0 31 -23.5 46.5t-82.5 15.5h-113l21 74h569q210 0 325 -42t177 -132q59 -86 59 -195q0 -191 -141 -305q-183 -148 -516 -148q-68 0 -234 13l-137 -508q-4 -20 -4 -27q0 -30 22.5 -44.5t75.5 -14.5h123l-16 -76h-639z M592 743q101 -14 182 -14q230 0 342 109q125 122 125 327q0 123 -76.5 181.5t-259.5 58.5q-83 0 -113.5 -16.5t-41.5 -57.5z" />
<glyph unicode="Q" horiz-adv-x="1593" d="M174 571q0 241 125 467t326 353t417 127q248 0 404 -164q160 -165 160 -426q0 -246 -123 -477t-375 -375q9 -234 37 -295q30 -62 80 -62q90 0 131 142l33 -8q-30 -129 -96.5 -187.5t-178.5 -58.5q-217 0 -217 256q0 61 12 137q-106 -29 -182 -29h-15q-143 0 -266 74 q-128 78 -202 218q-70 133 -70 291v17zM406 436q0 -99 16 -159t57 -115q-6 59 -6 92q0 128 85.5 207.5t225.5 79.5q130 -8 201.5 -78t106.5 -250q110 113 200 360q88 245 88 480q0 193 -88.5 293t-249.5 100q-181 0 -326.5 -135t-228.5 -393q-81 -256 -81 -482zM532 238 q0 -103 84 -175q58 -18 113 -18q77 0 195 41q20 87 20 156q0 108 -48.5 166.5t-135.5 58.5q-98 0 -163 -65.5t-65 -163.5z" />
<glyph unicode="R" horiz-adv-x="1517" d="M2 0l18 76h121q78 0 99 74l317 1173q2 6 2 20q0 28 -25.5 45t-76.5 17h-148l19 74h682q245 0 367 -91.5t122 -254.5q0 -232 -266 -326q-92 -34 -283 -55q103 -30 157 -78.5t75 -122.5q16 -56 16 -270q0 -131 14 -156q16 -31 50 -31q72 0 145 180l51 -18 q-94 -270 -289 -270q-93 0 -145.5 62t-52.5 181q0 71 14 148q16 109 16 139q0 116 -55.5 165.5t-189.5 49.5h-144l-155 -581q-2 -6 -2 -17q0 -26 18 -41q29 -16 76 -16h149l-16 -76h-680zM633 803h198q298 0 390 160q57 99 57 219q0 111 -77 167t-245 56q-103 0 -139 -19 q-31 -13 -47 -63z" />
<glyph unicode="S" horiz-adv-x="1366" d="M109 33l108 530h72q0 -190 46 -295.5t152 -167.5q104 -61 228 -61q159 0 268 92t109 217q0 127 -117 205q-49 30 -211 92q-200 74 -270 125q-65 47 -103 121q-37 73 -37 172q0 182 142 315q145 133 346 133q183 0 372 -157q44 31 109 94h70l-111 -512h-68q0 151 -26 233 q-38 125 -130 196t-216 71q-143 0 -234 -82q-90 -84 -90 -201q0 -122 96 -188q39 -29 187 -82q182 -66 258 -107q205 -105 205 -334q0 -132 -67.5 -238t-199.5 -173q-135 -66 -286 -66q-117 0 -217.5 39t-198.5 125l-121 -96h-65z" />
<glyph unicode="T" horiz-adv-x="1402" d="M174 936l207 543h1221l-129 -543h-74q28 143 28 223q0 133 -57.5 193.5t-181.5 60.5q-73 0 -99 -18t-40 -74l-314 -1163q-2 -6 -2 -21q0 -31 23.5 -46t77.5 -15h149l-18 -76h-729l18 76h139q59 0 88.5 20t40.5 62l312 1151q6 21 6 41q0 63 -105 63q-187 0 -336 -207 q-42 -55 -153 -270h-72z" />
<glyph unicode="U" horiz-adv-x="1669" d="M291 369q0 116 37 249l188 703q2 10 2 35q0 49 -76 49h-141l16 74h662l-18 -74h-127q-35 0 -62 -20.5t-37 -55.5l-219 -813q-18 -70 -18 -141q0 -149 89.5 -234.5t248.5 -85.5q186 0 307 103q147 129 211 389l151 620q13 50 13 82q0 73 -44 114.5t-120 41.5h-47l16 74 h535l-19 -74q-97 -3 -145 -45q-64 -52 -88 -154l-174 -690q-54 -198 -138 -316t-203 -171t-296 -58q-249 0 -376.5 104t-127.5 294z" />
<glyph unicode="V" horiz-adv-x="1441" d="M203 1405l10 74h590l-17 -74h-69q-68 0 -95.5 -19t-27.5 -61q0 -38 8 -90l158 -983l575 932q45 68 45 125q0 96 -137 96h-43l17 74h497l-14 -74q-135 -15 -207 -131l-809 -1309h-88l-217 1346q-8 52 -37 73t-94 21h-45z" />
<glyph unicode="W" horiz-adv-x="1896" d="M246 1405l8 74h494l-17 -74h-61q-49 0 -68.5 -19t-19.5 -63v-12l77 -963l441 854q-3 141 -23 168q-27 35 -98 35h-88l16 74h598l-18 -74h-82q-55 0 -83 -20t-28 -54v-12l78 -971l467 914q19 36 19 63q0 37 -27 58.5t-76 21.5h-43l14 74h406l-12 -74q-63 -9 -103 -43 q-55 -46 -96 -127l-645 -1270h-70l-92 1084l-555 -1084h-67l-115 1335q-6 63 -29 82t-102 23z" />
<glyph unicode="X" horiz-adv-x="1441" d="M-45 0l18 76q74 9 121 35q86 48 133 98l502 524l-235 553q-28 73 -68 94q-42 25 -133 25h-39l10 74h631l-12 -74h-56q-131 0 -131 -64q0 -14 13 -43l174 -409l336 354q36 36 36 82q0 80 -106 80h-55l18 74h551l-21 -74h-40q-43 0 -106 -31.5t-107 -75.5l-469 -493 l258 -606q37 -79 71 -99q40 -21 156 -24l-16 -76h-625l12 76h51q150 0 150 61q0 15 -10 45l-203 467l-326 -346q-73 -79 -73 -133q0 -43 37 -65.5t133 -28.5l-21 -76h-559z" />
<glyph unicode="Y" horiz-adv-x="1402" d="M256 1405l18 74h578l-14 -74h-80q-119 0 -119 -57q0 -14 8 -27l240 -578l381 480q55 70 55 106q0 67 -170 76l25 74h454l-18 -74q-111 -15 -193 -123l-489 -614l-137 -516q-2 -6 -2 -17q0 -25 22 -41q27 -18 86 -18h111l-21 -76h-665l16 76h104q110 0 125 61l140 502 l-293 707q-27 59 -111 59h-51z" />
<glyph unicode="Z" horiz-adv-x="1366" d="M47 0v43l1139 1362h-254q-183 0 -299 -84q-137 -101 -260 -350l-64 22l166 486h987v-52l-1130 -1351h243q174 0 286 43t206 141q95 94 174 270l62 -24l-152 -506h-1104z" />
<glyph unicode="[" d="M6 -360l486 1839h393l-21 -74h-149q-44 0 -68 -21.5t-37 -76.5l-397 -1500q-2 -10 -2 -30q0 -66 88 -66h117l-19 -71h-391z" />
<glyph unicode="\" horiz-adv-x="1241" d="M518 1442h135l189 -1475h-135z" />
<glyph unicode="]" d="M-145 -360l18 69h145q48 0 74 23t39 82l406 1509q2 6 2 20q0 27 -20.5 44.5t-57.5 17.5h-129l18 74h391l-493 -1839h-393z" />
<glyph unicode="^" horiz-adv-x="1241" d="M268 686l437 727h30l430 -727h-129l-317 557l-322 -557h-129z" />
<glyph unicode="_" horiz-adv-x="1024" d="M-12 -154h1048v-102h-1048v102z" />
<glyph unicode="`" d="M281 1399q0 31 24.5 56.5t54.5 25.5q46 0 97 -60l262 -311l-23 -23l-309 185q-106 60 -106 127z" />
<glyph unicode="a" horiz-adv-x="1175" d="M68 354q0 156 79 299q81 147 205 228q128 84 248 84q94 0 168 -56.5t100 -148.5l58 176l157 18l-219 -761q-8 -27 -8 -64q0 -26 11 -41.5t28 -15.5q27 0 68 41q74 80 139 213l57 -27q-156 -328 -321 -328q-54 0 -88.5 40t-34.5 106l2 41q-59 -90 -137 -138.5t-158 -48.5 q-149 0 -252 109q-102 108 -102 274zM250 305q0 -242 194 -242q86 0 156 58q72 57 143 231q72 179 72 307q0 98 -61 162q-60 66 -142 66q-85 0 -164 -67.5t-137 -209.5q-61 -146 -61 -305z" />
<glyph unicode="b" horiz-adv-x="1138" d="M143 279q0 78 25 161l256 885q2 6 2 21q0 29 -32.5 44t-117.5 15l19 74l344 18l-205 -698q147 166 311 166q124 0 207 -95q84 -93 84 -241q0 -173 -84 -332q-83 -156 -215 -242q-134 -84 -276 -84q-147 0 -232.5 84t-85.5 224zM305 258q0 -110 45.5 -165.5t128.5 -55.5 q186 0 305 287q68 165 68 315q0 114 -45 171.5t-125 57.5q-74 0 -145 -59q-93 -81 -162 -240q-70 -162 -70 -311z" />
<glyph unicode="c" horiz-adv-x="909" d="M78 344q0 158 82 307t209 232q128 82 262 82q109 0 174 -57t65 -150q0 -70 -31.5 -110t-82.5 -40q-42 0 -72.5 29t-30.5 68q0 69 72 90q39 12 39 34q0 26 -35 48t-84 22q-91 0 -176.5 -69t-144.5 -205q-60 -145 -60 -301q0 -132 54 -200.5t149 -68.5q145 0 295 191 l49 -37q-91 -126 -188 -182t-209 -56q-147 0 -242 103q-94 104 -94 270z" />
<glyph unicode="d" horiz-adv-x="1251" d="M90 328q0 158 82 313q83 159 203 242q119 82 241 82q171 0 269 -168l149 530q4 12 4 21q0 26 -22.5 41.5t-63.5 15.5h-104l20 74l381 18l-370 -1280q-17 -59 -17 -92q0 -24 13 -36.5t34 -12.5q92 0 236 258l57 -29q-89 -173 -177.5 -253.5t-166.5 -80.5q-130 0 -139 187 q-138 -187 -309 -187h-7q-125 0 -221 102q-92 99 -92 238v17zM272 281q0 -101 50 -160.5t127 -59.5q94 0 180.5 87.5t140.5 252.5q57 165 57 273q0 94 -50.5 150.5t-135.5 56.5q-97 0 -182 -87t-142 -268q-45 -139 -45 -245z" />
<glyph unicode="e" horiz-adv-x="909" d="M70 354q0 149 83 292t220 231t260 88q102 0 167.5 -59t65.5 -146q0 -78 -53 -149t-164 -126q-102 -52 -395 -120q-4 -62 -4 -80q0 -109 53 -168.5t146 -59.5q71 0 141 37q70 40 176 152l45 -41q-187 -234 -399 -234q-146 0 -244 107t-98 276zM268 428q198 45 271 88 q83 46 123 111q43 67 43 141q0 60 -30.5 93.5t-84.5 33.5q-104 0 -190.5 -116t-131.5 -351z" />
<glyph unicode="f" d="M-49 -385q0 5 29 74q75 165 116 291q40 109 92 333l129 539h-159l20 84h158q55 196 135 342q83 144 152 190q73 48 143 48q67 0 106 -35.5t39 -91.5q0 -47 -25.5 -77t-66.5 -30q-34 0 -55.5 21.5t-34.5 74.5q-9 43 -37 43q-38 0 -65 -53q-55 -101 -127 -432h211l-23 -84 h-211l-180 -760q-63 -270 -131 -428q-37 -9 -115 -39q-68 -24 -86 -24q-14 0 -14 14z" />
<glyph unicode="g" horiz-adv-x="1101" d="M-63 -180q0 67 62.5 118.5t207.5 100.5q-127 53 -127 154q0 78 70 137t188 71q-137 82 -137 222q0 85 54 163t155 127q107 52 219 52q77 0 159 -29q116 98 222 98q56 0 89.5 -27t33.5 -69q0 -36 -22 -60t-54 -24q-44 0 -70 45q-15 26 -29 37q-12 6 -30 6q-45 0 -84 -39 q137 -91 137 -229q0 -139 -115 -242q-114 -102 -291 -102q-45 0 -102 8q-65 6 -94 6q-81 0 -127.5 -28.5t-46.5 -69.5q0 -51 63 -66q28 -7 133 -10q222 -9 322 -39q91 -28 131 -80q41 -53 41 -119q1 -7 1 -15q0 -52 -32 -105q-36 -59 -103 -107t-171 -77q-101 -27 -220 -27 h-8q-209 0 -317 65t-108 154zM90 -170q0 -78 71 -123t220 -45q197 0 297 74q76 55 76 133q0 32 -17.5 58t-55.5 47t-104.5 32.5t-158.5 11.5q-171 0 -249.5 -50.5t-78.5 -137.5zM377 594q0 -96 49.5 -150.5t132.5 -54.5q99 0 172 88q76 88 76 234q0 89 -47.5 141.5 t-122.5 52.5q-104 0 -182 -90t-78 -221z" />
<glyph unicode="h" horiz-adv-x="1251" d="M78 -10l381 1327q6 15 6 33q0 28 -28 41.5t-99 13.5h-59l20 74l379 18l-240 -827q205 295 406 295q91 0 144.5 -54.5t53.5 -146.5q0 -84 -30 -178l-125 -393q-15 -40 -15 -76q0 -47 41 -47q42 0 88 49q73 76 136 217l57 -19q-59 -157 -152 -246t-180 -89 q-64 0 -101.5 44.5t-37.5 125.5q0 43 14 86l125 399q17 59 17 104q0 58 -27.5 89.5t-71.5 31.5q-54 0 -125 -47q-102 -71 -192 -209q-87 -132 -125 -270l-92 -336z" />
<glyph unicode="i" d="M141 866l21 70l364 18l-221 -784q-8 -24 -8 -51q0 -49 41 -49q38 0 86 45q77 74 156 217l53 -33q-71 -152 -171 -240t-186 -88q-55 0 -92 43t-37 111q0 59 23 143l147 512q5 20 5 25q0 27 -23 43q-35 18 -94 18h-64zM395 1364q0 47 32 79t79 32t77.5 -32.5t30.5 -80.5 q0 -47 -31 -79t-75 -32q-47 0 -80 33t-33 80z" />
<glyph unicode="j" horiz-adv-x="645" d="M-205 -268q0 47 30 77.5t75 30.5q34 0 54.5 -20.5t20.5 -52.5q0 -21 -2 -33l-2 -21q0 -18 9.5 -27.5t23.5 -9.5q37 0 62 48q61 113 127 385l161 659q4 24 4 37q0 61 -79 61h-86l16 70l348 18l-203 -833q-64 -272 -186 -412q-102 -108 -215 -108q-72 0 -115 36.5t-43 94.5 zM391 1364q0 44 33.5 77.5t77.5 33.5q46 0 78 -33t32 -78t-32 -78t-78 -33q-44 0 -77.5 33.5t-33.5 77.5z" />
<glyph unicode="k" horiz-adv-x="1138" d="M61 -8l383 1325q5 20 5 26q0 62 -105 62h-65l16 74l362 14l-237 -834q125 165 230 235.5t204 70.5q85 0 142 -50.5t57 -123.5q0 -100 -99 -190t-303 -150q70 -28 97 -80q21 -37 36 -164q10 -75 17 -90q10 -29 35 -29q63 0 202 219l54 -31q-172 -294 -324 -294 q-67 0 -105 50.5t-38 145.5v166q0 61 -35 82q-36 -8 -62 -8q-65 0 -65 45q0 18 13.5 28.5t37.5 10.5q3 0 39 -4t45 -4q116 0 211 86q94 88 94 176q0 55 -31 88t-79 33q-79 0 -171.5 -75t-187.5 -233q-71 -118 -119 -274l-84 -295z" />
<glyph unicode="l" d="M145 127q0 48 29 158l295 1034q6 21 6 31q0 23 -22 36q-29 19 -93 19h-71l20 74l375 18l-369 -1284q-18 -64 -18 -92q0 -55 37 -55q84 0 221 260l55 -31q-164 -324 -331 -324q-61 0 -97.5 41.5t-36.5 114.5z" />
<glyph unicode="m" horiz-adv-x="1820" d="M135 -10l221 784q4 20 4 29q0 61 -98 61h-51l20 72l322 18l-74 -292q181 292 377 292q86 0 131 -50.5t45 -149.5q0 -32 -6 -82q200 282 383 282q82 0 131 -50t49 -136t-30 -180l-136 -422q-4 -20 -4 -35q0 -19 11.5 -32t29.5 -13q31 0 70 39q54 51 145 203l56 -33 q-97 -173 -193 -256q-66 -57 -141 -57q-62 0 -96.5 42t-34.5 123q0 26 10 68l141 447q15 46 15 86q0 44 -27 73t-66 29q-49 0 -108 -41q-88 -61 -150 -164q-99 -163 -131 -278l-104 -367l-168 -10l178 626q23 84 23 121q0 56 -25 84.5t-70 28.5q-54 0 -106 -37 q-75 -52 -152 -178q-79 -125 -120 -268l-107 -367z" />
<glyph unicode="n" horiz-adv-x="1251" d="M104 -8l222 778q6 18 6 35q0 30 -21 45q-24 18 -71 18h-90l20 68l356 18l-86 -325q231 325 430 325q76 0 125 -52t49 -138q0 -77 -34 -178l-107 -334l-26 -82q-7 -31 -7 -47q0 -20 12 -34.5t29 -14.5q48 0 114 70t116 194l61 -21q-60 -157 -157.5 -246t-188.5 -89 q-58 0 -97.5 44.5t-39.5 112.5q0 53 22 127l119 363q21 59 21 116q0 48 -25.5 76.5t-64.5 28.5q-87 0 -226 -148q-135 -147 -209 -403l-86 -299z" />
<glyph unicode="o" horiz-adv-x="1024" d="M61 379q0 142 78 289q74 139 199 219q125 78 250 78q151 0 260 -115q108 -114 108 -291q0 -154 -75 -295q-76 -140 -197 -217q-119 -76 -250 -76q-153 0 -264 117q-109 118 -109 291zM242 293q0 -120 51 -187t135 -67q182 0 289 287q63 163 63 323q0 115 -52.5 181.5 t-135.5 66.5q-81 0 -156 -68t-133 -219q-61 -155 -61 -317z" />
<glyph unicode="p" horiz-adv-x="1175" d="M-162 -385l21 74h35q106 0 133 98l284 991q4 16 4 27q0 61 -96 61h-74l23 70l338 18l-51 -202q83 117 160.5 165t168.5 48q122 0 211 -99q88 -98 88 -258t-82 -315q-85 -160 -204 -240q-119 -82 -242 -82q-186 0 -256 193l-109 -377q-8 -21 -8 -39q0 -59 103 -59h61 l-18 -74h-490zM348 268q0 -96 49.5 -151.5t134.5 -55.5q90 0 165.5 67t138.5 220q67 158 67 314q0 97 -49 154.5t-125 57.5q-90 0 -180.5 -89.5t-145.5 -245.5q-55 -162 -55 -271z" />
<glyph unicode="q" horiz-adv-x="1138" d="M78 319q0 167 82 316q83 153 221 242q137 88 270 88q81 0 140 -36t114 -122l111 158h63l-338 -1180q-6 -21 -6 -39q0 -25 23 -41t65 -16h70l-23 -74h-483l23 74h41q102 0 129 96l102 356q-77 -94 -147 -132t-152 -38q-136 0 -220.5 95.5t-84.5 252.5zM266 295 q0 -108 46.5 -166.5t123.5 -58.5q84 0 164.5 73t144.5 230q68 168 68 323q0 93 -47.5 149t-122.5 56q-80 0 -163.5 -74t-147.5 -221q-66 -160 -66 -311z" />
<glyph unicode="r" horiz-adv-x="909" d="M109 -12l178 641q28 106 28 141q0 48 -30.5 72t-98.5 24h-45l23 70l334 18l-95 -403q83 192 138 276q50 72 104 105q53 33 111 33q63 0 107 -42.5t44 -103.5q0 -56 -31.5 -92.5t-76.5 -36.5q-37 0 -63.5 25.5t-26.5 62.5q0 14 10 41q6 15 6 27q0 28 -29 28q-25 0 -61 -28 q-65 -57 -131 -203q-120 -268 -164 -422l-66 -221z" />
<glyph unicode="s" horiz-adv-x="909" d="M51 207q0 59 33.5 97t83.5 38q43 0 70.5 -27.5t27.5 -68.5q0 -22 -8 -38t-33 -38q-20 -20 -20 -43q0 -35 47.5 -62.5t128.5 -27.5q108 0 179 57.5t71 138.5q0 60 -37 97q-39 36 -164 76q-149 49 -199 102q-49 52 -49 131q0 133 107 227q108 99 258 99q138 0 217.5 -56.5 t79.5 -144.5q0 -55 -31 -90t-76 -35q-41 0 -68.5 27.5t-27.5 68.5q0 28 21 58q18 21 18 34q0 28 -35.5 49t-99.5 21q-102 0 -166 -53t-64 -133q0 -54 37 -84q31 -31 191 -82q132 -40 186 -103q51 -57 51 -145q0 -132 -112 -229q-114 -97 -291 -97q-151 0 -238.5 66.5 t-87.5 169.5z" />
<glyph unicode="t" horiz-adv-x="720" d="M127 131q0 65 20 129l168 592h-182l25 84h182l92 324h166l-96 -324h172l-21 -84h-174l-176 -614q-14 -49 -14 -93q0 -36 15.5 -55.5t39.5 -19.5q104 0 254 258l55 -31q-176 -326 -368 -326q-73 0 -115.5 43.5t-42.5 116.5z" />
<glyph unicode="u" horiz-adv-x="1251" d="M156 150q0 68 43 198l135 422q4 20 4 31q0 27 -25 43q-29 20 -92 20h-53l18 72l369 18l-201 -616q-30 -102 -30 -164q0 -47 25.5 -72.5t68.5 -25.5q86 0 215 129q131 131 213 385l112 346h162l-237 -739q-17 -56 -17 -84q0 -54 45 -54q93 0 230 260l55 -20 q-75 -165 -165 -246.5t-179 -81.5q-60 0 -94.5 36t-34.5 102q0 48 22 147q-122 -157 -216.5 -221t-184.5 -64q-86 0 -137 49.5t-51 129.5z" />
<glyph unicode="v" horiz-adv-x="1062" d="M139 866l21 70l348 18l-131 -456q-41 -149 -41 -244q0 -91 40.5 -143t104.5 -52q85 0 173.5 75.5t158.5 227.5q76 162 76 306q0 40 -9 62t-36 52q-38 41 -48 57.5t-10 37.5q0 37 24.5 62.5t57.5 25.5q49 0 82 -53t33 -148q0 -156 -61 -336q-81 -231 -234 -356 q-119 -101 -250 -101q-113 0 -186.5 84.5t-73.5 227.5q0 100 43 239l78 262q2 8 2 25q0 25 -25 41q-40 16 -137 16z" />
<glyph unicode="w" horiz-adv-x="1593" d="M143 172q0 44 29 129l12 39l144 434q4 16 4 25q0 65 -123 65h-37l25 72l346 18l-215 -671q-21 -59 -21 -111q0 -49 28 -79t71 -30q96 0 202 121q136 154 221 457l84 295h162l-137 -477q-19 -72 -31 -133l-4 -35q-2 -14 -2 -47q0 -89 34 -133.5t93 -44.5q77 0 160 75 t151 226q74 160 74 292q0 39 -9.5 63.5t-43.5 65.5q-35 45 -43 59.5t-8 29.5q0 32 26.5 60t57.5 28q44 0 78 -52.5t34 -136.5q0 -164 -63 -350q-75 -227 -211 -344q-132 -111 -262 -111q-70 0 -120.5 30.5t-74.5 82.5q-21 53 -24 184q-195 -297 -406 -297q-86 0 -143.5 57.5 t-57.5 143.5z" />
<glyph unicode="x" horiz-adv-x="1024" d="M4 98q0 44 28.5 74.5t67.5 30.5q62 0 86 -66q12 -30 19.5 -38.5t19.5 -8.5q22 0 43 27q39 44 195 309l-72 330q-15 73 -69 73q-77 0 -156 -190l-51 31q65 161 132.5 228t141.5 67q66 0 100 -52q39 -51 91 -299q129 205 161 242q88 109 181 109q55 0 87.5 -31.5 t32.5 -83.5q0 -51 -26 -82t-68 -31q-48 0 -76 60q-18 37 -41 37t-47 -27q-22 -28 -184 -281l72 -317q13 -64 32 -87.5t48 -23.5q76 0 202 199l50 -29q-85 -150 -171 -223.5t-155 -73.5q-70 0 -105 47q-32 46 -88 322q-135 -243 -215 -317q-55 -52 -131 -52q-60 0 -97.5 35.5 t-37.5 91.5z" />
<glyph unicode="y" horiz-adv-x="1024" d="M-82 -256q0 47 31.5 81t73.5 34q37 0 64.5 -27.5t27.5 -64.5l-2 -35v-13q0 -17 12 -26q10 -10 33 -10q57 0 127 61q107 98 219 287l-66 340q-57 294 -112 395q-34 61 -64 61q-52 0 -117 -182l-59 25q57 163 131 237q52 58 113 58q59 0 94 -54q50 -69 121 -352l82 -321 q105 156 164 307q36 88 36 157q0 30 -12 91q-12 49 -12 73q0 42 25.5 70.5t62.5 28.5q38 0 62 -28.5t24 -76.5q0 -46 -37 -147q-50 -139 -133 -287l-236 -414q-82 -142 -182 -254q-71 -78 -149 -117.5t-144 -39.5q-75 0 -126.5 41.5t-51.5 101.5z" />
<glyph unicode="z" horiz-adv-x="948" d="M14 12q0 95 101 226q54 68 127 129q77 61 221 145q189 110 264 168q67 52 98 100q-71 -22 -135 -22q-50 0 -164 30q-103 33 -155 33q-63 0 -106.5 -33t-92.5 -126l-49 30q70 137 155 205t173 68q75 0 196 -52q119 -49 162 -49q62 0 80 70q9 31 24 31q14 0 27.5 -12.5 t13.5 -28.5q0 -56 -55 -138q-84 -133 -231 -249q-83 -66 -291 -187q-122 -70 -158 -98q-38 -29 -57 -64q132 21 182 21q43 0 76 -8q19 -2 84 -29t90.5 -34t54.5 -7q59 0 103 38.5t96 143.5l47 -32q-64 -146 -160 -230q-95 -80 -172 -80q-32 0 -82 13q-36 10 -153 59 q-104 44 -133 53q-32 11 -72 19q-12 -37 -17 -64q-6 -52 -15.5 -66t-33.5 -14q-43 0 -43 41z" />
<glyph unicode="{" d="M168 539l10 41q95 12 169 60.5t106 113.5q33 61 39 200q4 128 35.5 211.5t101.5 157.5q142 155 375 195l-11 -39q-167 -45 -236.5 -124.5t-76.5 -248.5q-6 -124 -18 -170q-28 -124 -131.5 -221.5t-272.5 -153.5q102 -41 159.5 -116.5t57.5 -163.5q0 -45 -14.5 -94.5 t-57.5 -139.5q-51 -108 -67 -151q-12 -41 -12 -76q0 -138 176 -182l-11 -37q-133 18 -211.5 103t-78.5 204q0 49 16.5 103t65.5 159q47 97 57 135t10 60q0 68 -47 115t-133 59z" />
<glyph unicode="|" horiz-adv-x="1241" d="M649 -385v1864h135v-1864h-135z" />
<glyph unicode="}" d="M-180 -399l8 37q114 24 188.5 82.5t104.5 142.5q15 50 24 184q9 143 50 227q42 86 139 164q104 81 231 123q-108 42 -163.5 114.5t-55.5 162.5q0 40 16 96q14 49 74 172q62 124 62 190q0 139 -176 183l10 39q140 -24 216.5 -106t76.5 -200q0 -54 -16.5 -110t-63.5 -148 q-72 -141 -72 -196q0 -73 46.5 -119.5t135.5 -58.5l-12 -41q-98 -13 -176 -67t-109 -128q-15 -40 -24 -174q-9 -161 -47 -242q-59 -131 -191 -219q-135 -90 -276 -108z" />
<glyph unicode="~" horiz-adv-x="1241" d="M170 543q7 148 76.5 228.5t177.5 80.5q50 0 106 -18q87 -22 281 -107q89 -39 150 -55q27 -8 67 -8q76 0 125 47.5t59 138.5h54q-4 -143 -78 -226t-187 -83q-46 0 -108 16q-45 12 -270 105q-147 63 -217 63q-148 0 -183 -182h-53z" />
<glyph unicode="&#xa1;" d="M25 -289q0 25 10 70q13 39 82 190q173 390 284 758h66l-129 -526q-18 -82 -59 -344q-23 -157 -54 -211q-27 -47 -94 -47q-45 0 -75.5 30.5t-30.5 79.5zM393 1018q0 51 36 88t87 37q49 0 85 -37t36 -88t-35.5 -87t-85.5 -36q-51 0 -87 36t-36 87z" />
<glyph unicode="&#xa2;" horiz-adv-x="1138" d="M225 332q0 119 56 264q59 146 184 244q126 99 270 114l156 564h70l-156 -564q93 0 153 -57t60 -147q0 -66 -32.5 -106t-82.5 -40q-41 0 -71.5 28.5t-30.5 65.5q0 65 61 86q31 11 40 20t9 23q0 27 -32.5 47t-92.5 21l-235 -832q41 -12 72 -12q141 0 286 189l52 -35 q-173 -238 -394 -238l-43 2l-118 -397h-70l121 410q-109 41 -170.5 134t-61.5 216zM412 313q0 -144 77 -215l224 785q-116 -35 -201 -178q-100 -166 -100 -392z" />
<glyph unicode="&#xa3;" horiz-adv-x="1138" d="M-8 170q0 96 59.5 152.5t159.5 56.5q99 0 223 -80q17 73 17 133q0 118 -23 236h-301l23 82h268q-23 158 -23 194q0 190 140 330q139 139 333 139q164 0 242 -96t78 -207q0 -80 -38 -126t-97 -46q-54 0 -87.5 35t-33.5 92q0 34 11.5 58.5t45.5 52.5q29 25 35 33.5t6 25.5 q0 49 -38 76.5t-111 27.5q-138 0 -214.5 -100.5t-76.5 -302.5q0 -66 12 -186h328l-23 -82h-305q-3 -230 -74 -416q81 -51 137 -69.5t111 -18.5q92 0 156 41t119 139l65 -25q-167 -348 -389 -348q-56 0 -123 31q-36 19 -121 94l-32 29q-124 -154 -263 -154q-92 0 -144 52.5 t-52 146.5zM70 160q0 -56 29 -86.5t83 -30.5q115 0 203 137q-61 59 -103 81t-87 22q-59 0 -92 -33.5t-33 -89.5z" />
<glyph unicode="&#xa4;" horiz-adv-x="1241" d="M162 268l129 129q-90 146 -90 283q0 135 90 266l-129 129l88 92l131 -131q125 94 272 94q152 0 277 -94l131 131l90 -92l-131 -129q94 -131 94 -278q0 -152 -94 -271l131 -129l-90 -90l-131 129q-125 -94 -279 -94q-148 0 -270 94l-131 -129zM328 672q0 -138 96 -234 t233 -96q138 0 234 96t96 234q0 139 -98 233q-96 96 -232 96q-137 0 -233 -96t-96 -233z" />
<glyph unicode="&#xa5;" horiz-adv-x="1138" d="M29 319l14 74h438l58 230h-451l14 73h412l-215 572q-21 55 -96 55h-56l19 70h551l-15 -70h-92q-100 0 -100 -47q0 -9 4 -33l203 -547l330 478q30 46 30 71q0 69 -170 78l23 70h432l-19 -70q-97 -12 -155 -100l-377 -527h416l-15 -73h-467l-59 -230h465l-12 -74h-471 l-43 -165q-7 -28 -7 -33q0 -21 19 -31q22 -14 80 -14h94l-14 -76h-615l21 76h102q57 0 80 15.5t35 62.5l45 165h-436z" />
<glyph unicode="&#xa6;" horiz-adv-x="1241" d="M649 -385v819h135v-819h-135zM649 659v820h135v-820h-135z" />
<glyph unicode="&#xa7;" horiz-adv-x="1024" d="M57 -225q0 54 32.5 90.5t76.5 36.5t76 -31.5t32 -73.5t-38 -65q-31 -22 -31 -33q0 -43 98 -43q109 0 170.5 56t61.5 151q0 51 -19 100q-15 45 -90 156q-130 198 -168 282q-33 73 -33 154q0 118 67.5 207.5t223.5 165.5q-41 77 -55.5 126.5t-14.5 106.5q0 154 99 256 q101 101 254 101q124 0 190 -48t66 -129q0 -56 -32.5 -92.5t-80.5 -36.5q-43 0 -73.5 30t-30.5 71q0 47 45 73q24 15 24 29q0 18 -20 27q-28 14 -86 14q-105 0 -167.5 -57.5t-62.5 -151.5q0 -43 23 -104q18 -47 108 -180q112 -170 144 -246q35 -84 35 -160 q0 -121 -65.5 -208t-225.5 -163q72 -126 72 -237q0 -152 -101 -250t-260 -98q-114 0 -179 49t-65 125zM369 649q0 -59 26 -121q23 -55 172 -297q90 42 129 96.5t39 131.5q0 61 -30 135q-24 68 -162 289q-97 -48 -135.5 -102t-38.5 -132z" />
<glyph unicode="&#xa8;" d="M246 1278q0 43 30.5 73.5t73.5 30.5t74 -30.5t31 -73.5q0 -44 -31 -75.5t-74 -31.5t-73.5 31.5t-30.5 75.5zM641 1278q0 43 30.5 73.5t73.5 30.5t74 -30.5t31 -73.5q0 -44 -31 -75.5t-74 -31.5t-73.5 31.5t-30.5 75.5z" />
<glyph unicode="&#xa9;" horiz-adv-x="1529" d="M172 692q-4 142 55 277t158 233t233 156.5t273 54.5q142 4 277 -54.5t233 -156.5t156.5 -233t54.5 -277q4 -139 -54.5 -273t-156.5 -233t-233 -158t-277 -55q-139 -4 -273 55t-233 158t-158 233t-55 273zM236 692q-4 -172 86.5 -325t243.5 -243.5t325 -86.5 q173 -4 327 86.5t244.5 244t85.5 324.5q3 104 -30.5 204.5t-95.5 182.5t-144 144.5t-182.5 95.5t-204.5 31q-128 4 -250.5 -49.5t-212 -143.5t-142.5 -213t-50 -252zM426 690q0 196 143 330q144 135 357 135q82 0 194 -37q21 -8 37 -8q18 0 28.5 8.5t20.5 36.5h41l21 -283 h-41q-71 238 -307 238q-151 0 -237.5 -103.5t-86.5 -297.5q0 -199 89.5 -304.5t244.5 -105.5q197 0 317 164l39 -21q-140 -204 -391 -204q-96 -3 -184.5 33t-151 97.5t-99 146t-34.5 175.5z" />
<glyph unicode="&#xaa;" horiz-adv-x="864" d="M268 1122q0 152 109 273q111 123 229 123q47 0 80 -19.5t64 -71.5l24 70l127 14l-145 -469q-6 -18 -6 -32q0 -29 16 -29q15 0 37 25q50 57 88 131l57 -25q-105 -205 -221 -205q-81 0 -90 90q-81 -90 -168 -90t-144 61t-57 154zM410 1087q0 -112 82 -112q46 0 86 39.5 t81 142.5q46 110 46 186q0 46 -26.5 77.5t-60.5 31.5q-65 0 -124 -86q-84 -131 -84 -279z" />
<glyph unicode="&#xab;" horiz-adv-x="872" d="M96 561l322 424h84l-226 -450l58 -402h-84zM541 559l321 426h86l-227 -446l53 -406h-80z" />
<glyph unicode="&#xac;" horiz-adv-x="1241" d="M166 866v135h1104v-608h-133v473h-971z" />
<glyph unicode="&#xad;" d="M127 389l43 154h405l-43 -154h-405z" />
<glyph unicode="&#xae;" horiz-adv-x="1529" d="M172 692q-4 142 55 277t158 233t233 156.5t273 54.5q142 4 277 -54.5t233 -156.5t156.5 -233t54.5 -277q4 -139 -54.5 -273t-156.5 -233t-233 -158t-277 -55q-139 -4 -273 55t-233 158t-158 233t-55 273zM236 692q-4 -172 86.5 -325t243.5 -243.5t325 -86.5 q173 -4 327 86.5t244.5 244t85.5 324.5q3 104 -30.5 204.5t-95.5 182.5t-144 144.5t-182.5 95.5t-204.5 31q-128 4 -250.5 -49.5t-212 -143.5t-142.5 -213t-50 -252zM481 258v35q48 0 69 10.5t32 36.5q6 15 6 92v567q0 59 -19 79t-75 22v37h391q139 0 220 -64.5t81 -165.5 q0 -86 -55 -141t-168 -84l211 -301q35 -52 60 -69t62 -19v-35h-186l-299 412h-76v-289q0 -52 23.5 -70t95.5 -18v-35h-373zM735 713h29q131 0 195.5 48.5t64.5 135.5q0 82 -58.5 137.5t-144.5 55.5q-39 0 -86 -15v-362z" />
<glyph unicode="&#xaf;" d="M182 1124l37 129h608l-34 -129h-611z" />
<glyph unicode="&#xb0;" horiz-adv-x="819" d="M258 1102q0 129 90 219q89 92 219 92q132 0 221 -92q93 -90 93 -219q0 -128 -93 -221q-90 -90 -221 -90q-129 0 -219 90q-90 93 -90 221zM379 1108q0 -80 55.5 -136.5t134.5 -56.5q78 0 134.5 57t56.5 136q0 78 -56.5 134t-134.5 56q-79 0 -134.5 -56t-55.5 -134z" />
<glyph unicode="&#xb1;" horiz-adv-x="1124" d="M150 0v133h1026v-133h-1026zM150 770v133h446v445h133v-445h447v-133h-447v-446h-133v446h-446z" />
<glyph unicode="&#xb2;" d="M158 702l24 78q146 133 240 201q132 98 170 152q33 44 33 102t-36 94.5t-95 36.5q-52 0 -87.5 -26t-35.5 -58q0 -22 32 -39q43 -21 43 -55q0 -31 -20.5 -51.5t-52.5 -20.5q-37 0 -62.5 31t-25.5 78q0 76 73.5 132t188.5 56q102 0 160.5 -52t58.5 -138q0 -97 -90 -170 q-39 -34 -162 -97q-148 -71 -227 -141h264q39 0 59.5 17.5t44.5 76.5h50l-70 -207h-477z" />
<glyph unicode="&#xb3;" d="M184 850q0 44 23 71t59 27q30 0 48 -18t18 -49t-27 -58q-20 -17 -20 -30q0 -22 24 -37q41 -23 84 -23q75 0 120.5 51t45.5 142q0 53 -27 80q-26 26 -75 26l-37 -2l-31 -4q-41 0 -41 27q0 30 33 30l22 -2h29q104 0 152 45q49 46 49 131q0 49 -29.5 79t-73.5 30 q-46 0 -75 -20q-25 -16 -25 -33q0 -5 10 -25q15 -21 15 -45q0 -29 -17.5 -47t-44.5 -18q-33 0 -55.5 24t-22.5 60q0 59 69 105t177 46q97 0 153 -46.5t56 -121.5q0 -147 -209 -188q141 -51 141 -170q0 -91 -72.5 -148t-203.5 -57q-111 0 -176.5 48.5t-65.5 119.5z" />
<glyph unicode="&#xb4;" d="M362 1110l232 276q80 95 123 95q31 0 56.5 -24.5t25.5 -55.5q0 -65 -105 -127l-311 -187z" />
<glyph unicode="&#xb5;" horiz-adv-x="1251" d="M-51 -387q0 13 24 68q59 120 86 213q28 82 144 452l131 424q6 21 6 31q0 27 -30.5 45t-88.5 18h-53l18 72l369 18l-201 -616q-30 -102 -30 -166q0 -96 92 -96q91 0 221 133t209 381l112 346h162l-239 -739q-17 -56 -17 -80q0 -58 47 -58q97 0 228 260l57 -20 q-67 -151 -159 -239.5t-187 -88.5q-60 0 -94.5 37.5t-34.5 100.5q0 53 24 147q-217 -285 -383 -285q-44 0 -100 29q-49 -212 -98 -336q-177 -67 -201 -67q-14 0 -14 16z" />
<glyph unicode="&#xb6;" horiz-adv-x="1331" d="M164 1090q0 117 47 194q67 101 165.5 148t254.5 47h536v-41h-43q-53 0 -76 -15t-34 -49q-8 -27 -8 -145v-1614h-76v1804h-193v-1804h-75v1079q-204 9 -295 51q-97 45 -150 134t-53 211z" />
<glyph unicode="&#xb7;" horiz-adv-x="569" d="M279 717q0 47 31.5 78.5t76.5 31.5t77 -31.5t32 -78.5q0 -44 -32.5 -76.5t-76.5 -32.5t-76 32.5t-32 76.5z" />
<glyph unicode="&#xb8;" d="M-139 -397l20 75q119 7 175.5 36.5t56.5 70.5q0 26 -17 43t-71 41l122 143h54l-39 -45q112 -52 112 -147q0 -52 -30 -92q-93 -112 -383 -125z" />
<glyph unicode="&#xb9;" d="M236 702l14 52h53q63 0 78 49l121 444l2 13q0 43 -55 43h-68l12 45q140 16 242 65h35l-168 -602q-6 -21 -6 -33q0 -24 36 -24h76l-8 -52h-364z" />
<glyph unicode="&#xba;" horiz-adv-x="761" d="M240 1159q0 139 106 248q108 111 248 111q107 0 178 -74q74 -71 74 -176q0 -145 -107 -252q-106 -109 -245 -109q-108 0 -183 72q-71 74 -71 180zM379 1108q0 -70 30.5 -108.5t79.5 -38.5q111 0 179 172q39 95 39 188q0 66 -31 103.5t-80 37.5q-109 0 -178 -170 q-39 -91 -39 -184z" />
<glyph unicode="&#xbb;" horiz-adv-x="872" d="M0 133l227 451l-53 401h80l154 -424l-322 -428h-86zM446 133l228 457l-62 395h86l152 -426l-318 -426h-86z" />
<glyph unicode="&#xbc;" horiz-adv-x="1708" d="M238 702l14 52h53q63 0 78 49l121 444l2 13q0 43 -55 43h-68l12 45q140 16 242 65h35l-168 -602q-6 -21 -6 -33q0 -24 37 -24h75l-8 -52h-364zM393 0l957 1395h86l-957 -1395h-86zM961 178l18 72l502 459h43l-125 -467h94l-16 -64h-99l-24 -78q-2 -6 -2 -18q0 -16 10 -23 q13 -10 37 -10h41l-13 -49h-321l10 49h37q46 0 72 28.5t39 100.5h-303zM1057 242h223l74 272z" />
<glyph unicode="&#xbd;" horiz-adv-x="1708" d="M238 702l14 52h53q63 0 78 49l121 444l2 13q0 43 -55 43h-68l12 45q140 16 242 65h35l-168 -602q-6 -21 -6 -33q0 -24 37 -24h75l-8 -52h-364zM393 0l957 1395h86l-957 -1395h-86zM1010 0l24 78q146 133 240 201q134 99 170 151q33 44 33 102t-36 95t-95 37 q-52 0 -87.5 -26t-35.5 -58q0 -22 32 -39q43 -21 43 -56q0 -31 -20.5 -51t-52.5 -20q-37 0 -62.5 30.5t-25.5 77.5q0 76 73.5 132.5t188.5 56.5q101 0 160 -52.5t59 -138.5q0 -97 -90 -170q-36 -31 -162 -96q-148 -71 -227 -141h264q39 0 59.5 17.5t44.5 76.5h49l-69 -207 h-477z" />
<glyph unicode="&#xbe;" horiz-adv-x="1708" d="M180 850q0 44 23 71t59 27q30 0 48 -18t18 -49t-27 -58q-20 -17 -20 -30q0 -22 24 -37q41 -23 84 -23q75 0 120.5 51t45.5 142q0 53 -27 80q-26 26 -75 26l-37 -2l-31 -4q-41 0 -41 27q0 30 33 30l22 -2h29q104 0 152 45q49 46 49 131q0 49 -29.5 79t-73.5 30 q-46 0 -75 -20q-25 -16 -25 -33q0 -5 10 -25q15 -21 15 -45q0 -29 -17.5 -47t-44.5 -18q-33 0 -55.5 24t-22.5 60q0 59 69 105t177 46q97 0 153 -46.5t56 -121.5q0 -147 -209 -188q141 -51 141 -170q0 -91 -72.5 -148t-203.5 -57q-111 0 -176.5 48.5t-65.5 119.5zM416 0 l956 1395h86l-956 -1395h-86zM961 178l18 72l502 459h43l-125 -467h94l-16 -64h-99l-24 -78q-2 -6 -2 -18q0 -16 10 -23q13 -10 37 -10h41l-13 -49h-321l10 49h37q46 0 72 28.5t39 100.5h-303zM1057 242h223l74 272z" />
<glyph unicode="&#xbf;" horiz-adv-x="909" d="M154 -111q0 143 104 250q65 65 188 142q119 72 167.5 136t48.5 134q0 46 -30 79.5t-69 33.5q-98 0 -166 -189l-55 33q41 117 98.5 168t134.5 51q80 0 129.5 -55t49.5 -150q0 -123 -101 -241q-52 -64 -186 -177q-148 -126 -174 -167q-31 -48 -31 -103q0 -68 48.5 -116 t121.5 -48q113 0 197 90t84 215q0 35 -8 74l59 12q12 -50 12 -88q3 -148 -104.5 -260.5t-243.5 -105.5q-118 0 -196 80t-78 202zM541 1022q0 51 35 87t86 36t85.5 -35.5t34.5 -85.5q0 -51 -34.5 -87t-85.5 -36t-86 35.5t-35 85.5z" />
<glyph unicode="&#xc0;" horiz-adv-x="1441" d="M-92 0l20 76q81 6 139 46t117 132l777 1225h81l181 -1305q6 -51 40.5 -74.5t106.5 -23.5h49l-18 -76h-600l18 76h53q83 0 111.5 17t28.5 57q0 20 -2 34l-41 299h-535l-131 -207q-35 -56 -35 -108q0 -92 138 -92h49l-21 -76h-526zM489 571h467l-84 605zM793 1903 q0 31 24.5 56.5t54.5 25.5q46 0 97 -60l262 -311l-23 -23l-309 185q-106 60 -106 127z" />
<glyph unicode="&#xc1;" horiz-adv-x="1441" d="M-92 0l20 76q81 6 139 46t117 132l777 1225h81l181 -1305q6 -51 40.5 -74.5t106.5 -23.5h49l-18 -76h-600l18 76h53q83 0 111.5 17t28.5 57q0 20 -2 34l-41 299h-535l-131 -207q-35 -56 -35 -108q0 -92 138 -92h49l-21 -76h-526zM489 571h467l-84 605zM874 1614l232 276 q80 95 123 95q31 0 56.5 -24.5t25.5 -55.5q0 -65 -105 -127l-311 -187z" />
<glyph unicode="&#xc2;" horiz-adv-x="1441" d="M-92 0l20 76q81 6 139 46t117 132l777 1225h81l181 -1305q6 -51 40.5 -74.5t106.5 -23.5h49l-18 -76h-600l18 76h53q83 0 111.5 17t28.5 57q0 20 -2 34l-41 299h-535l-131 -207q-35 -56 -35 -108q0 -92 138 -92h49l-21 -76h-526zM489 571h467l-84 605zM717 1616l309 330 h94l203 -330h-35l-229 182l-297 -182h-45z" />
<glyph unicode="&#xc3;" horiz-adv-x="1441" d="M-92 0l20 76q81 6 139 46t117 132l777 1225h81l181 -1305q6 -51 40.5 -74.5t106.5 -23.5h49l-18 -76h-600l18 76h53q83 0 111.5 17t28.5 57q0 20 -2 34l-41 299h-535l-131 -207q-35 -56 -35 -108q0 -92 138 -92h49l-21 -76h-526zM489 571h467l-84 605zM694 1667 q6 113 57 172t132 59q70 0 198 -49q109 -41 156 -41q77 0 98 88h35q-4 -109 -57 -168t-139 -59q-24 0 -72 10q-42 9 -170 56q-70 24 -107 24q-81 0 -96 -92h-35z" />
<glyph unicode="&#xc4;" horiz-adv-x="1441" d="M-92 0l20 76q81 6 139 46t117 132l777 1225h81l181 -1305q6 -51 40.5 -74.5t106.5 -23.5h49l-18 -76h-600l18 76h53q83 0 111.5 17t28.5 57q0 20 -2 34l-41 299h-535l-131 -207q-35 -56 -35 -108q0 -92 138 -92h49l-21 -76h-526zM489 571h467l-84 605zM748 1782 q0 43 30.5 73.5t73.5 30.5t73.5 -30.5t30.5 -73.5q0 -44 -30.5 -75.5t-73.5 -31.5t-73.5 31.5t-30.5 75.5zM1143 1782q0 43 30.5 73.5t73.5 30.5t74 -30.5t31 -73.5q0 -44 -31 -75.5t-74 -31.5t-73.5 31.5t-30.5 75.5z" />
<glyph unicode="&#xc5;" horiz-adv-x="1441" d="M-92 0l20 76q81 6 139 46t117 132l777 1225h81l181 -1305q6 -51 40.5 -74.5t106.5 -23.5h49l-18 -76h-600l18 76h53q83 0 111.5 17t28.5 57q0 20 -2 34l-41 299h-535l-131 -207q-35 -56 -35 -108q0 -92 138 -92h49l-21 -76h-526zM489 571h467l-84 605zM836 1755 q0 79 56 136t134 57q79 0 135 -56.5t56 -136.5q0 -79 -55.5 -134.5t-135.5 -55.5t-135 55.5t-55 134.5zM901 1755q0 -51 37 -88t88 -37t88 37t37 88t-37 88t-88 37t-88 -37t-37 -88z" />
<glyph unicode="&#xc6;" horiz-adv-x="1781" d="M-119 0l21 76q63 19 109.5 55t107.5 115l815 1059q16 26 16 55q0 45 -90 45h-117l21 74h1216l-102 -473h-72q13 102 13 145q0 130 -64 192t-194 62h-142q-53 0 -79.5 -16t-34.5 -48l-152 -542h27q148 0 230 59t136 205h72l-191 -670h-73q24 82 24 137q0 94 -48 145.5 t-138 51.5h-59l-150 -547q-6 -27 -6 -51t16 -37q26 -16 68 -16h176q162 0 283 92q116 89 217 330h75l-143 -498h-1155l23 76h94q109 0 133 80l96 358h-434l-215 -281q-45 -57 -45 -100q0 -27 20 -42t58 -15h45l-21 -76h-387zM492 600h391l221 793z" />
<glyph unicode="&#xc7;" horiz-adv-x="1478" d="M195 571q0 245 120 476q121 228 306 350q183 119 391 119q101 0 187 -38.5t181 -129.5l105 100h67l-108 -543h-64q-3 175 -28 262q-38 134 -123 205.5t-207 71.5q-160 0 -295 -125t-219 -379q-76 -224 -76 -440q0 -213 106 -331t291 -118q161 0 289 101t209 299l64 -25 q-82 -211 -207 -315q-155 -131 -365 -140l-4 -4q113 -52 113 -147q0 -50 -31 -92q-93 -112 -383 -125l21 75q119 7 175 36.5t56 70.5q0 26 -17 43t-71 41l88 102q-243 9 -404 170q-167 167 -167 430z" />
<glyph unicode="&#xc8;" horiz-adv-x="1478" d="M39 0l8 76h78q102 0 123 74l311 1159q4 24 4 34q0 31 -25 46.5t-85 15.5h-123l20 74h1182l-115 -478h-71q18 95 18 156q0 128 -69 188t-216 60h-205q-44 0 -65 -22.5t-41 -94.5l-129 -487h102q239 0 318 264h76l-181 -672h-71q20 87 20 135q0 97 -49 148t-141 51h-92 l-150 -557q-4 -24 -4 -35q0 -28 16 -41q24 -18 60 -18h235q186 0 319 103.5t230 334.5h72l-158 -514h-1202zM811 1903q0 31 24.5 56.5t55.5 25.5q45 0 96 -60l262 -311l-22 -23l-309 185q-107 61 -107 127z" />
<glyph unicode="&#xc9;" horiz-adv-x="1478" d="M39 0l8 76h78q102 0 123 74l311 1159q4 24 4 34q0 31 -25 46.5t-85 15.5h-123l20 74h1182l-115 -478h-71q18 95 18 156q0 128 -69 188t-216 60h-205q-44 0 -65 -22.5t-41 -94.5l-129 -487h102q239 0 318 264h76l-181 -672h-71q20 87 20 135q0 97 -49 148t-141 51h-92 l-150 -557q-4 -24 -4 -35q0 -28 16 -41q24 -18 60 -18h235q186 0 319 103.5t230 334.5h72l-158 -514h-1202zM893 1614l231 276q80 95 123 95q31 0 56.5 -24.5t25.5 -55.5q0 -66 -104 -127l-312 -187z" />
<glyph unicode="&#xca;" horiz-adv-x="1478" d="M39 0l8 76h78q102 0 123 74l311 1159q4 24 4 34q0 31 -25 46.5t-85 15.5h-123l20 74h1182l-115 -478h-71q18 95 18 156q0 128 -69 188t-216 60h-205q-44 0 -65 -22.5t-41 -94.5l-129 -487h102q239 0 318 264h76l-181 -672h-71q20 87 20 135q0 97 -49 148t-141 51h-92 l-150 -557q-4 -24 -4 -35q0 -28 16 -41q24 -18 60 -18h235q186 0 319 103.5t230 334.5h72l-158 -514h-1202zM692 1616l309 330h95l202 -330h-34l-230 182l-297 -182h-45z" />
<glyph unicode="&#xcb;" horiz-adv-x="1478" d="M39 0l8 76h78q102 0 123 74l311 1159q4 24 4 34q0 31 -25 46.5t-85 15.5h-123l20 74h1182l-115 -478h-71q18 95 18 156q0 128 -69 188t-216 60h-205q-44 0 -65 -22.5t-41 -94.5l-129 -487h102q239 0 318 264h76l-181 -672h-71q20 87 20 135q0 97 -49 148t-141 51h-92 l-150 -557q-4 -24 -4 -35q0 -28 16 -41q24 -18 60 -18h235q186 0 319 103.5t230 334.5h72l-158 -514h-1202zM739 1782q0 43 31 73.5t74 30.5t73.5 -30.5t30.5 -73.5q0 -44 -30.5 -75.5t-73.5 -31.5t-74 31.5t-31 75.5zM1135 1782q0 43 30.5 73.5t73.5 30.5t73.5 -30.5 t30.5 -73.5q0 -44 -30.5 -75.5t-73.5 -31.5t-73.5 31.5t-30.5 75.5z" />
<glyph unicode="&#xcc;" horiz-adv-x="833" d="M8 0l19 76h96q116 0 137 78l307 1169q4 16 4 25q0 57 -92 57h-147l14 74h670l-15 -74h-102q-51 0 -78.5 -21.5t-40.5 -72.5l-301 -1129q-4 -20 -4 -43q0 -32 25 -47.5t84 -15.5h123l-17 -76h-682zM502 1903q0 31 24.5 56.5t55.5 25.5q45 0 96 -60l262 -311l-22 -23 l-310 185q-106 60 -106 127z" />
<glyph unicode="&#xcd;" horiz-adv-x="833" d="M8 0l19 76h96q116 0 137 78l307 1169q4 16 4 25q0 57 -92 57h-147l14 74h670l-15 -74h-102q-51 0 -78.5 -21.5t-40.5 -72.5l-301 -1129q-4 -20 -4 -43q0 -32 25 -47.5t84 -15.5h123l-17 -76h-682zM584 1614l231 276q80 95 123 95q31 0 56.5 -24.5t25.5 -55.5 q0 -65 -105 -127l-311 -187z" />
<glyph unicode="&#xce;" horiz-adv-x="833" d="M8 0l19 76h96q116 0 137 78l307 1169q4 16 4 25q0 57 -92 57h-147l14 74h670l-15 -74h-102q-51 0 -78.5 -21.5t-40.5 -72.5l-301 -1129q-4 -20 -4 -43q0 -32 25 -47.5t84 -15.5h123l-17 -76h-682zM444 1616l310 330h94l203 -330h-35l-230 182l-297 -182h-45z" />
<glyph unicode="&#xcf;" horiz-adv-x="833" d="M8 0l19 76h96q116 0 137 78l307 1169q4 16 4 25q0 57 -92 57h-147l14 74h670l-15 -74h-102q-51 0 -78.5 -21.5t-40.5 -72.5l-301 -1129q-4 -20 -4 -43q0 -32 25 -47.5t84 -15.5h123l-17 -76h-682zM467 1782q0 43 30.5 73.5t73.5 30.5t74 -30.5t31 -73.5q0 -44 -31 -75.5 t-74 -31.5t-73.5 31.5t-30.5 75.5zM862 1782q0 43 31 73.5t74 30.5t73.5 -30.5t30.5 -73.5q0 -44 -30.5 -75.5t-73.5 -31.5t-74 31.5t-31 75.5z" />
<glyph unicode="&#xd0;" horiz-adv-x="1593" d="M-4 0l18 76h80q66 0 96 22t48 80l139 516h-232l29 90h225l146 539q2 6 2 23q0 59 -117 59h-111l19 74h668q279 0 433 -156t154 -438q0 -187 -67 -361q-68 -176 -168 -282q-102 -108 -268 -174q-171 -68 -338 -68h-756zM444 131q0 -55 78 -55h195q216 2 359.5 124 t223.5 390q68 242 68 420q0 225 -127 325q-90 72 -297 72q-120 0 -145 -14q-26 -17 -41 -82l-146 -527h275l-25 -90h-274l-137 -524q-7 -25 -7 -39z" />
<glyph unicode="&#xd1;" horiz-adv-x="1669" d="M18 0l19 76q116 15 162 55q44 41 82 184l268 988q2 6 2 16q0 35 -33 55q-51 31 -125 31h-57l14 74h418l516 -1135l229 868q7 28 7 52q0 67 -41.5 104t-122.5 37h-41l16 74h516l-16 -74q-170 -9 -217 -176l-330 -1229h-67l-580 1274l-254 -959q-18 -64 -18 -98 q0 -95 71 -121q61 -20 125 -20h35l-18 -76h-560zM862 1667q6 113 57 172t132 59q70 0 198 -49q109 -41 156 -41q77 0 98 88h35q-4 -108 -57.5 -167.5t-139.5 -59.5q-23 0 -71 10q-42 9 -170 56q-70 24 -107 24q-81 0 -96 -92h-35z" />
<glyph unicode="&#xd2;" horiz-adv-x="1593" d="M170 559q0 252 123 477q124 229 323 355q204 127 420 127q248 0 404 -164q159 -163 159 -428q0 -254 -122 -477q-120 -220 -328 -351q-207 -127 -424 -127q-241 0 -397 164q-158 166 -158 424zM399 438q0 -194 87 -295.5t243 -101.5q345 0 528 455q117 293 117 561 q0 186 -89 288.5t-241 102.5q-122 0 -225.5 -58.5t-197.5 -189.5q-95 -136 -160 -348q-62 -213 -62 -414zM883 1903q0 31 24.5 56.5t55.5 25.5q45 0 96 -60l262 -311l-23 -23l-309 185q-106 60 -106 127z" />
<glyph unicode="&#xd3;" horiz-adv-x="1593" d="M170 559q0 252 123 477q124 229 323 355q204 127 420 127q248 0 404 -164q159 -163 159 -428q0 -254 -122 -477q-120 -220 -328 -351q-207 -127 -424 -127q-241 0 -397 164q-158 166 -158 424zM399 438q0 -194 87 -295.5t243 -101.5q345 0 528 455q117 293 117 561 q0 186 -89 288.5t-241 102.5q-122 0 -225.5 -58.5t-197.5 -189.5q-95 -136 -160 -348q-62 -213 -62 -414zM965 1614l231 276q80 95 123 95q31 0 56.5 -24.5t25.5 -55.5q0 -65 -105 -127l-311 -187z" />
<glyph unicode="&#xd4;" horiz-adv-x="1593" d="M170 559q0 252 123 477q124 229 323 355q204 127 420 127q248 0 404 -164q159 -163 159 -428q0 -254 -122 -477q-120 -220 -328 -351q-207 -127 -424 -127q-241 0 -397 164q-158 166 -158 424zM399 438q0 -194 87 -295.5t243 -101.5q345 0 528 455q117 293 117 561 q0 186 -89 288.5t-241 102.5q-122 0 -225.5 -58.5t-197.5 -189.5q-95 -136 -160 -348q-62 -213 -62 -414zM776 1616l309 330h95l202 -330h-34l-230 182l-297 -182h-45z" />
<glyph unicode="&#xd5;" horiz-adv-x="1593" d="M170 559q0 252 123 477q124 229 323 355q204 127 420 127q248 0 404 -164q159 -163 159 -428q0 -254 -122 -477q-120 -220 -328 -351q-207 -127 -424 -127q-241 0 -397 164q-158 166 -158 424zM399 438q0 -194 87 -295.5t243 -101.5q345 0 528 455q117 293 117 561 q0 186 -89 288.5t-241 102.5q-122 0 -225.5 -58.5t-197.5 -189.5q-95 -136 -160 -348q-62 -213 -62 -414zM772 1667q6 113 57 172t132 59q70 0 198 -49q109 -41 156 -41q77 0 98 88h35q-4 -108 -57.5 -167.5t-139.5 -59.5q-23 0 -71 10q-42 9 -170 56q-70 24 -107 24 q-81 0 -96 -92h-35z" />
<glyph unicode="&#xd6;" horiz-adv-x="1593" d="M170 559q0 252 123 477q124 229 323 355q204 127 420 127q248 0 404 -164q159 -163 159 -428q0 -254 -122 -477q-120 -220 -328 -351q-207 -127 -424 -127q-241 0 -397 164q-158 166 -158 424zM399 438q0 -194 87 -295.5t243 -101.5q345 0 528 455q117 293 117 561 q0 186 -89 288.5t-241 102.5q-122 0 -225.5 -58.5t-197.5 -189.5q-95 -136 -160 -348q-62 -213 -62 -414zM825 1782q0 43 31 73.5t74 30.5t73.5 -30.5t30.5 -73.5q0 -44 -30.5 -75.5t-73.5 -31.5t-74 31.5t-31 75.5zM1221 1782q0 43 30.5 73.5t73.5 30.5t74 -30.5t31 -73.5 q0 -44 -31 -75.5t-74 -31.5t-73.5 31.5t-30.5 75.5z" />
<glyph unicode="&#xd7;" horiz-adv-x="1241" d="M209 1106l94 94l414 -414l411 414l95 -94l-414 -414l414 -411l-95 -95l-411 412l-414 -412l-92 95l412 411z" />
<glyph unicode="&#xd8;" horiz-adv-x="1593" d="M162 0l141 162q-135 159 -135 397q0 252 123 477q124 229 323 355q204 127 418 127q210 0 357 -117l67 78h105l-115 -133q151 -165 151 -420q0 -254 -122 -477q-120 -220 -328 -351q-207 -127 -424 -127q-214 0 -365 133l-92 -104h-104zM397 444q0 -87 17 -157l895 1024 q-88 137 -269 137q-121 0 -224.5 -58.5t-197.5 -189.5q-93 -130 -159 -346q-62 -213 -62 -410zM444 205q83 -164 283 -164q189 0 331 137t228 402q86 269 86 475q0 107 -24 180z" />
<glyph unicode="&#xd9;" horiz-adv-x="1669" d="M291 369q0 116 37 249l188 703q2 10 2 35q0 49 -76 49h-141l16 74h662l-18 -74h-127q-35 0 -62 -20.5t-37 -55.5l-219 -813q-18 -70 -18 -141q0 -149 89.5 -234.5t248.5 -85.5q186 0 307 103q147 129 211 389l151 620q13 50 13 82q0 73 -44 114.5t-120 41.5h-47l16 74 h535l-19 -74q-97 -3 -145 -45q-64 -52 -88 -154l-174 -690q-54 -198 -138 -316t-203 -171t-296 -58q-249 0 -376.5 104t-127.5 294zM920 1903q0 31 24 56.5t55 25.5q46 0 97 -60l262 -311l-23 -23l-309 185q-106 60 -106 127z" />
<glyph unicode="&#xda;" horiz-adv-x="1669" d="M291 369q0 116 37 249l188 703q2 10 2 35q0 49 -76 49h-141l16 74h662l-18 -74h-127q-35 0 -62 -20.5t-37 -55.5l-219 -813q-18 -70 -18 -141q0 -149 89.5 -234.5t248.5 -85.5q186 0 307 103q147 129 211 389l151 620q13 50 13 82q0 73 -44 114.5t-120 41.5h-47l16 74 h535l-19 -74q-97 -3 -145 -45q-64 -52 -88 -154l-174 -690q-54 -198 -138 -316t-203 -171t-296 -58q-249 0 -376.5 104t-127.5 294zM1001 1614l232 276q80 95 123 95q31 0 56.5 -24.5t25.5 -55.5q0 -65 -105 -127l-311 -187z" />
<glyph unicode="&#xdb;" horiz-adv-x="1669" d="M291 369q0 116 37 249l188 703q2 10 2 35q0 49 -76 49h-141l16 74h662l-18 -74h-127q-35 0 -62 -20.5t-37 -55.5l-219 -813q-18 -70 -18 -141q0 -149 89.5 -234.5t248.5 -85.5q186 0 307 103q147 129 211 389l151 620q13 50 13 82q0 73 -44 114.5t-120 41.5h-47l16 74 h535l-19 -74q-97 -3 -145 -45q-64 -52 -88 -154l-174 -690q-54 -198 -138 -316t-203 -171t-296 -58q-249 0 -376.5 104t-127.5 294zM825 1616l310 330h94l203 -330h-35l-230 182l-297 -182h-45z" />
<glyph unicode="&#xdc;" horiz-adv-x="1669" d="M291 369q0 116 37 249l188 703q2 10 2 35q0 49 -76 49h-141l16 74h662l-18 -74h-127q-35 0 -62 -20.5t-37 -55.5l-219 -813q-18 -70 -18 -141q0 -149 89.5 -234.5t248.5 -85.5q186 0 307 103q147 129 211 389l151 620q13 50 13 82q0 73 -44 114.5t-120 41.5h-47l16 74 h535l-19 -74q-97 -3 -145 -45q-64 -52 -88 -154l-174 -690q-54 -198 -138 -316t-203 -171t-296 -58q-249 0 -376.5 104t-127.5 294zM895 1782q0 43 30.5 73.5t73.5 30.5t74 -30.5t31 -73.5q0 -44 -31 -75.5t-74 -31.5t-73.5 31.5t-30.5 75.5zM1290 1782q0 43 31 73.5 t74 30.5t73.5 -30.5t30.5 -73.5q0 -44 -30.5 -75.5t-73.5 -31.5t-74 31.5t-31 75.5z" />
<glyph unicode="&#xdd;" horiz-adv-x="1402" d="M256 1405l18 74h578l-14 -74h-80q-119 0 -119 -57q0 -14 8 -27l240 -578l381 480q55 70 55 106q0 67 -170 76l25 74h454l-18 -74q-111 -15 -193 -123l-489 -614l-137 -516q-2 -6 -2 -17q0 -25 22 -41q27 -18 86 -18h111l-21 -76h-665l16 76h104q110 0 125 61l140 502 l-293 707q-27 59 -111 59h-51zM891 1614l231 276q80 95 123 95q31 0 56.5 -24.5t25.5 -55.5q0 -66 -104 -127l-312 -187z" />
<glyph unicode="&#xde;" horiz-adv-x="1366" d="M-6 0l16 76h76q104 0 125 69l315 1172q2 8 2 26q0 31 -23.5 46.5t-82.5 15.5h-113l21 74h661l-20 -74h-97q-53 0 -76.5 -8t-41.5 -29q-12 -16 -23 -59l-28 -115h118q209 0 324.5 -41.5t177.5 -130.5q59 -86 59 -197q0 -191 -141 -305q-183 -145 -518 -145q-78 0 -231 12 l-62 -225q-4 -20 -4 -27q0 -30 22.5 -44.5t75.5 -14.5h123l-16 -76h-639zM512 461q108 -15 182 -15q230 0 342 109q125 122 125 328q0 133 -96 192q-71 45 -279 45h-98z" />
<glyph unicode="&#xdf;" horiz-adv-x="1138" d="M-109 -387q0 10 23 51q39 59 86 184q76 198 147 455l166 588q40 139 88 245.5t97.5 175.5t107.5 113t114.5 62.5t121.5 21.5q145 0 237 -86t92 -213q0 -87 -31.5 -154t-112 -123t-210.5 -91q112 -47 171 -137t59 -209q0 -220 -144 -373q-143 -152 -311 -152 q-105 0 -160 47.5t-55 133.5q0 66 34 110.5t78 44.5q35 0 59.5 -27t24.5 -65q0 -51 -59 -78q-43 -18 -43 -39q0 -19 18.5 -33t47.5 -14q72 0 146.5 65.5t131.5 198.5q59 145 59 273q0 62 -29 114.5t-73 73.5q-48 23 -135 23l18 69q120 15 179 56q78 55 125 145t47 182 q0 87 -42.5 136t-115.5 49q-63 0 -119 -41q-54 -40 -137 -199q-81 -158 -133 -360l-197 -717q-75 -279 -141 -465q-69 -10 -144 -39q-38 -14 -63 -14q-23 0 -23 12z" />
<glyph unicode="&#xe0;" horiz-adv-x="1175" d="M68 354q0 156 79 299q81 147 205 228q128 84 248 84q94 0 168 -56.5t100 -148.5l58 176l157 18l-219 -761q-8 -27 -8 -64q0 -26 11 -41.5t28 -15.5q27 0 68 41q74 80 139 213l57 -27q-156 -328 -321 -328q-54 0 -88.5 40t-34.5 106l2 41q-59 -90 -137 -138.5t-158 -48.5 q-149 0 -252 109q-102 108 -102 274zM250 305q0 -242 194 -242q86 0 156 58q72 57 143 231q72 179 72 307q0 98 -61 162q-60 66 -142 66q-85 0 -164 -67.5t-137 -209.5q-61 -146 -61 -305zM430 1399q0 31 24.5 56.5t55.5 25.5q45 0 96 -60l262 -311l-22 -23l-309 185 q-107 61 -107 127z" />
<glyph unicode="&#xe1;" horiz-adv-x="1175" d="M68 354q0 156 79 299q81 147 205 228q128 84 248 84q94 0 168 -56.5t100 -148.5l58 176l157 18l-219 -761q-8 -27 -8 -64q0 -26 11 -41.5t28 -15.5q27 0 68 41q74 80 139 213l57 -27q-156 -328 -321 -328q-54 0 -88.5 40t-34.5 106l2 41q-59 -90 -137 -138.5t-158 -48.5 q-149 0 -252 109q-102 108 -102 274zM250 305q0 -242 194 -242q86 0 156 58q72 57 143 231q72 179 72 307q0 98 -61 162q-60 66 -142 66q-85 0 -164 -67.5t-137 -209.5q-61 -146 -61 -305zM565 1110l232 276q80 95 123 95q31 0 56 -24.5t25 -55.5q0 -66 -104 -127l-311 -187 z" />
<glyph unicode="&#xe2;" horiz-adv-x="1175" d="M68 354q0 156 79 299q81 147 205 228q128 84 248 84q94 0 168 -56.5t100 -148.5l58 176l157 18l-219 -761q-8 -27 -8 -64q0 -26 11 -41.5t28 -15.5q27 0 68 41q74 80 139 213l57 -27q-156 -328 -321 -328q-54 0 -88.5 40t-34.5 106l2 41q-59 -90 -137 -138.5t-158 -48.5 q-149 0 -252 109q-102 108 -102 274zM250 305q0 -242 194 -242q86 0 156 58q72 57 143 231q72 179 72 307q0 98 -61 162q-60 66 -142 66q-85 0 -164 -67.5t-137 -209.5q-61 -146 -61 -305zM420 1112l309 330h94l203 -330h-35l-229 182l-297 -182h-45z" />
<glyph unicode="&#xe3;" horiz-adv-x="1175" d="M68 354q0 156 79 299q81 147 205 228q128 84 248 84q94 0 168 -56.5t100 -148.5l58 176l157 18l-219 -761q-8 -27 -8 -64q0 -26 11 -41.5t28 -15.5q27 0 68 41q74 80 139 213l57 -27q-156 -328 -321 -328q-54 0 -88.5 40t-34.5 106l2 41q-59 -90 -137 -138.5t-158 -48.5 q-149 0 -252 109q-102 108 -102 274zM250 305q0 -242 194 -242q86 0 156 58q72 57 143 231q72 179 72 307q0 98 -61 162q-60 66 -142 66q-85 0 -164 -67.5t-137 -209.5q-61 -146 -61 -305zM438 1163q6 114 57 173t132 59q70 0 198 -49q109 -41 156 -41q77 0 98 88h35 q-4 -109 -57 -168.5t-139 -59.5q-19 0 -72 11q-48 10 -170 55q-71 24 -107 24q-81 0 -96 -92h-35z" />
<glyph unicode="&#xe4;" horiz-adv-x="1175" d="M68 354q0 156 79 299q81 147 205 228q128 84 248 84q94 0 168 -56.5t100 -148.5l58 176l157 18l-219 -761q-8 -27 -8 -64q0 -26 11 -41.5t28 -15.5q27 0 68 41q74 80 139 213l57 -27q-156 -328 -321 -328q-54 0 -88.5 40t-34.5 106l2 41q-59 -90 -137 -138.5t-158 -48.5 q-149 0 -252 109q-102 108 -102 274zM250 305q0 -242 194 -242q86 0 156 58q72 57 143 231q72 179 72 307q0 98 -61 162q-60 66 -142 66q-85 0 -164 -67.5t-137 -209.5q-61 -146 -61 -305zM479 1278q0 43 31 73.5t74 30.5t73.5 -30.5t30.5 -73.5q0 -44 -30.5 -75.5 t-73.5 -31.5t-74 31.5t-31 75.5zM874 1278q0 43 31 73.5t74 30.5t73.5 -30.5t30.5 -73.5q0 -44 -30.5 -75.5t-73.5 -31.5t-74 31.5t-31 75.5z" />
<glyph unicode="&#xe5;" horiz-adv-x="1175" d="M68 354q0 156 79 299q81 147 205 228q128 84 248 84q94 0 168 -56.5t100 -148.5l58 176l157 18l-219 -761q-8 -27 -8 -64q0 -26 11 -41.5t28 -15.5q27 0 68 41q74 80 139 213l57 -27q-156 -328 -321 -328q-54 0 -88.5 40t-34.5 106l2 41q-59 -90 -137 -138.5t-158 -48.5 q-149 0 -252 109q-102 108 -102 274zM250 305q0 -242 194 -242q86 0 156 58q72 57 143 231q72 179 72 307q0 98 -61 162q-60 66 -142 66q-85 0 -164 -67.5t-137 -209.5q-61 -146 -61 -305zM569 1251q0 79 56.5 136t134.5 57q79 0 134.5 -56.5t55.5 -136.5q0 -79 -55 -134.5 t-135 -55.5t-135.5 55.5t-55.5 134.5zM635 1251q0 -51 37 -88t88 -37t88 37t37 88t-37 88t-88 37t-88 -37t-37 -88z" />
<glyph unicode="&#xe6;" horiz-adv-x="1478" d="M31 326q0 161 78 317q76 156 196 238q122 84 236 84q186 0 272 -177l37 158l149 19l-41 -158q67 89 129.5 123.5t145.5 34.5q103 0 169 -57t66 -144q0 -126 -114 -211q-156 -124 -494 -186q-10 -55 -10 -84q0 -108 54 -167t147 -59q153 0 317 191l47 -45 q-191 -232 -405 -232q-131 0 -219 76q-68 59 -97 156q-105 -129 -189.5 -180.5t-176.5 -51.5q-126 0 -211 99q-86 100 -86 256zM211 279q0 -110 43 -166t119 -56q190 0 309 305q72 182 72 318q0 87 -53.5 143t-135.5 56q-182 0 -293 -285q-61 -155 -61 -315zM872 432 q433 79 433 336q0 61 -29.5 94t-81.5 33q-66 0 -135 -59.5t-117 -167.5q-23 -54 -70 -236z" />
<glyph unicode="&#xe7;" horiz-adv-x="909" d="M72 344q0 158 82 307q82 150 208 232q128 82 263 82q109 0 174 -57t65 -150q0 -70 -31.5 -110t-82.5 -40q-42 0 -72.5 29t-30.5 68q0 69 72 90q39 12 39 34q0 26 -35 48t-84 22q-91 0 -177 -69t-145 -205q-59 -142 -59 -301q0 -132 54 -200.5t149 -68.5q145 0 295 191 l49 -37q-94 -129 -193 -184q-91 -51 -192 -54l-2 -4q112 -52 112 -147q0 -52 -30 -92q-93 -112 -383 -125l20 75q119 7 175.5 36.5t56.5 70.5q0 26 -17 43t-71 41l88 104q-120 12 -203 101q-94 104 -94 270z" />
<glyph unicode="&#xe8;" horiz-adv-x="909" d="M70 354q0 149 83 292t220 231t260 88q102 0 167.5 -59t65.5 -146q0 -78 -53 -149t-164 -126q-102 -52 -395 -120q-4 -62 -4 -80q0 -109 53 -168.5t146 -59.5q71 0 141 37q70 40 176 152l45 -41q-187 -234 -399 -234q-146 0 -244 107t-98 276zM268 428q198 45 271 88 q83 46 123 111q43 67 43 141q0 60 -30.5 93.5t-84.5 33.5q-104 0 -190.5 -116t-131.5 -351zM436 1399q0 31 24.5 56.5t55.5 25.5q45 0 96 -60l262 -311l-22 -23l-309 185q-107 61 -107 127z" />
<glyph unicode="&#xe9;" horiz-adv-x="909" d="M70 354q0 149 83 292t220 231t260 88q102 0 167.5 -59t65.5 -146q0 -78 -53 -149t-164 -126q-102 -52 -395 -120q-4 -62 -4 -80q0 -109 53 -168.5t146 -59.5q71 0 141 37q70 40 176 152l45 -41q-187 -234 -399 -234q-146 0 -244 107t-98 276zM268 428q198 45 271 88 q83 46 123 111q43 67 43 141q0 60 -30.5 93.5t-84.5 33.5q-104 0 -190.5 -116t-131.5 -351zM489 1110l232 276q80 95 123 95q31 0 56.5 -24.5t25.5 -55.5q0 -65 -105 -127l-311 -187z" />
<glyph unicode="&#xea;" horiz-adv-x="909" d="M70 354q0 149 83 292t220 231t260 88q102 0 167.5 -59t65.5 -146q0 -78 -53 -149t-164 -126q-102 -52 -395 -120q-4 -62 -4 -80q0 -109 53 -168.5t146 -59.5q71 0 141 37q70 40 176 152l45 -41q-187 -234 -399 -234q-146 0 -244 107t-98 276zM268 428q198 45 271 88 q83 46 123 111q43 67 43 141q0 60 -30.5 93.5t-84.5 33.5q-104 0 -190.5 -116t-131.5 -351zM324 1112l309 330h94l203 -330h-35l-229 182l-297 -182h-45z" />
<glyph unicode="&#xeb;" horiz-adv-x="909" d="M70 354q0 149 83 292t220 231t260 88q102 0 167.5 -59t65.5 -146q0 -78 -53 -149t-164 -126q-102 -52 -395 -120q-4 -62 -4 -80q0 -109 53 -168.5t146 -59.5q71 0 141 37q70 40 176 152l45 -41q-187 -234 -399 -234q-146 0 -244 107t-98 276zM268 428q198 45 271 88 q83 46 123 111q43 67 43 141q0 60 -30.5 93.5t-84.5 33.5q-104 0 -190.5 -116t-131.5 -351zM373 1278q0 43 30.5 73.5t73.5 30.5t74 -30.5t31 -73.5q0 -44 -31 -75.5t-74 -31.5t-73.5 31.5t-30.5 75.5zM768 1278q0 43 30.5 73.5t73.5 30.5t74 -30.5t31 -73.5 q0 -44 -31 -75.5t-74 -31.5t-73.5 31.5t-30.5 75.5z" />
<glyph unicode="&#xec;" d="M141 866l21 70l364 18l-221 -784q-8 -24 -8 -51q0 -49 41 -49q38 0 86 45q77 74 156 217l53 -33q-71 -152 -171 -240t-186 -88q-55 0 -92 43t-37 111q0 59 23 143l147 512q5 20 5 25q0 27 -23 43q-35 18 -94 18h-64zM227 1399q0 31 24.5 56.5t55.5 25.5q45 0 96 -60 l263 -311l-23 -23l-309 185q-107 61 -107 127z" />
<glyph unicode="&#xed;" d="M141 866l21 70l364 18l-221 -784q-8 -24 -8 -51q0 -49 41 -49q38 0 86 45q77 74 156 217l53 -33q-71 -152 -171 -240t-186 -88q-55 0 -92 43t-37 111q0 59 23 143l147 512q5 20 5 25q0 27 -23 43q-35 18 -94 18h-64zM338 1110l231 276q80 95 123 95q31 0 56.5 -24.5 t25.5 -55.5q0 -66 -104 -127l-312 -187z" />
<glyph unicode="&#xee;" d="M141 866l21 70l364 18l-221 -784q-8 -24 -8 -51q0 -49 41 -49q38 0 86 45q77 74 156 217l53 -33q-71 -152 -171 -240t-186 -88q-55 0 -92 43t-37 111q0 59 23 143l147 512q5 20 5 25q0 27 -23 43q-35 18 -94 18h-64zM160 1112l309 330h94l203 -330h-35l-229 182 l-297 -182h-45z" />
<glyph unicode="&#xef;" d="M141 866l21 70l364 18l-221 -784q-8 -24 -8 -51q0 -49 41 -49q38 0 86 45q77 74 156 217l53 -33q-71 -152 -171 -240t-186 -88q-55 0 -92 43t-37 111q0 59 23 143l147 512q5 20 5 25q0 27 -23 43q-35 18 -94 18h-64zM164 1278q0 43 30.5 73.5t73.5 30.5t74 -30.5 t31 -73.5q0 -44 -31 -75.5t-74 -31.5t-73.5 31.5t-30.5 75.5zM559 1278q0 43 31 73.5t74 30.5t73.5 -30.5t30.5 -73.5q0 -44 -30.5 -75.5t-73.5 -31.5t-74 31.5t-31 75.5z" />
<glyph unicode="&#xf0;" horiz-adv-x="1024" d="M61 379q0 142 78 289q74 139 199 219q122 78 246 78q106 0 178 -60q-55 247 -207 402l-152 -64l-63 49l160 66q-96 72 -187 106l37 47q144 -47 240 -116l131 55l74 -45l-142 -59q147 -128 230.5 -311t83.5 -380q0 -195 -78 -362q-76 -163 -195 -242q-121 -80 -258 -80 q-155 0 -266 117q-109 118 -109 291zM242 293q0 -120 51 -187t135 -67q92 0 168 76q91 91 143 276q41 146 41 256q0 121 -50.5 185.5t-137.5 64.5q-77 0 -141 -55q-86 -71 -148 -232q-61 -155 -61 -317z" />
<glyph unicode="&#xf1;" horiz-adv-x="1251" d="M104 -8l222 778q6 18 6 35q0 30 -21 45q-24 18 -71 18h-90l20 68l356 18l-86 -325q231 325 430 325q76 0 125 -52t49 -138q0 -77 -34 -178l-107 -334l-26 -82q-7 -31 -7 -47q0 -20 12 -34.5t29 -14.5q48 0 114 70t116 194l61 -21q-60 -157 -157.5 -246t-188.5 -89 q-58 0 -97.5 44.5t-39.5 112.5q0 53 22 127l119 363q21 59 21 116q0 48 -25.5 76.5t-64.5 28.5q-87 0 -226 -148q-135 -147 -209 -403l-86 -299zM461 1163q6 114 56.5 173t131.5 59q71 0 199 -49q109 -41 156 -41q77 0 98 88h35q-4 -109 -57.5 -168.5t-139.5 -59.5 q-19 0 -72 11q-48 10 -170 55q-70 24 -106 24q-81 0 -96 -92h-35z" />
<glyph unicode="&#xf2;" horiz-adv-x="1024" d="M61 379q0 142 78 289q74 139 199 219q125 78 250 78q151 0 260 -115q108 -114 108 -291q0 -154 -75 -295q-76 -140 -197 -217q-119 -76 -250 -76q-153 0 -264 117q-109 118 -109 291zM242 293q0 -120 51 -187t135 -67q182 0 289 287q63 163 63 323q0 115 -52.5 181.5 t-135.5 66.5q-81 0 -156 -68t-133 -219q-61 -155 -61 -317zM498 1399q0 31 24.5 56.5t55.5 25.5q45 0 96 -60l262 -311l-23 -23l-309 185q-106 60 -106 127z" />
<glyph unicode="&#xf3;" horiz-adv-x="1024" d="M61 379q0 142 78 289q74 139 199 219q125 78 250 78q151 0 260 -115q108 -114 108 -291q0 -154 -75 -295q-76 -140 -197 -217q-119 -76 -250 -76q-153 0 -264 117q-109 118 -109 291zM242 293q0 -120 51 -187t135 -67q182 0 289 287q63 163 63 323q0 115 -52.5 181.5 t-135.5 66.5q-81 0 -156 -68t-133 -219q-61 -155 -61 -317zM530 1110l232 276q80 95 123 95q31 0 56.5 -24.5t25.5 -55.5q0 -65 -105 -127l-311 -187z" />
<glyph unicode="&#xf4;" horiz-adv-x="1024" d="M61 379q0 142 78 289q74 139 199 219q125 78 250 78q151 0 260 -115q108 -114 108 -291q0 -154 -75 -295q-76 -140 -197 -217q-119 -76 -250 -76q-153 0 -264 117q-109 118 -109 291zM242 293q0 -120 51 -187t135 -67q182 0 289 287q63 163 63 323q0 115 -52.5 181.5 t-135.5 66.5q-81 0 -156 -68t-133 -219q-61 -155 -61 -317zM367 1112l309 330h94l203 -330h-35l-229 182l-297 -182h-45z" />
<glyph unicode="&#xf5;" horiz-adv-x="1024" d="M61 379q0 142 78 289q74 139 199 219q125 78 250 78q151 0 260 -115q108 -114 108 -291q0 -154 -75 -295q-76 -140 -197 -217q-119 -76 -250 -76q-153 0 -264 117q-109 118 -109 291zM242 293q0 -120 51 -187t135 -67q182 0 289 287q63 163 63 323q0 115 -52.5 181.5 t-135.5 66.5q-81 0 -156 -68t-133 -219q-61 -155 -61 -317zM362 1163q6 114 57 173t132 59q71 0 199 -49q109 -41 155 -41q78 0 99 88h34q-4 -109 -57 -168.5t-139 -59.5q-19 0 -72 11q-48 10 -170 55q-70 24 -106 24q-82 0 -97 -92h-35z" />
<glyph unicode="&#xf6;" horiz-adv-x="1024" d="M61 379q0 142 78 289q74 139 199 219q125 78 250 78q151 0 260 -115q108 -114 108 -291q0 -154 -75 -295q-76 -140 -197 -217q-119 -76 -250 -76q-153 0 -264 117q-109 118 -109 291zM242 293q0 -120 51 -187t135 -67q182 0 289 287q63 163 63 323q0 115 -52.5 181.5 t-135.5 66.5q-81 0 -156 -68t-133 -219q-61 -155 -61 -317zM414 1278q0 43 30.5 73.5t73.5 30.5t74 -30.5t31 -73.5q0 -44 -31 -75.5t-74 -31.5t-73.5 31.5t-30.5 75.5zM809 1278q0 43 30.5 73.5t73.5 30.5t74 -30.5t31 -73.5q0 -44 -31 -75.5t-74 -31.5t-73.5 31.5 t-30.5 75.5z" />
<glyph unicode="&#xf7;" horiz-adv-x="1124" d="M152 627v133h1026v-133h-1026zM567 279q0 39 28.5 67.5t68.5 28.5t69 -29t29 -67q0 -40 -29 -69.5t-67 -29.5q-40 0 -69.5 29.5t-29.5 69.5zM567 1108q0 40 28.5 69t68.5 29t69 -29t29 -69q0 -38 -29 -67t-67 -29q-40 0 -69.5 29t-29.5 67z" />
<glyph unicode="&#xf8;" horiz-adv-x="1024" d="M53 0l97 113q-89 112 -89 266q0 143 78 287q76 142 199 221q125 78 248 78q130 0 233 -86l49 57h93l-95 -107q90 -116 90 -270q0 -150 -77 -295q-76 -140 -197 -217q-119 -76 -248 -76q-134 0 -235 88l-54 -59h-92zM240 293q0 -37 6 -72l502 578q-52 98 -156 98 q-81 0 -156.5 -68t-134.5 -219q-61 -155 -61 -317zM270 143q52 -104 158 -104q179 0 289 287q63 163 63 323q0 37 -6 74z" />
<glyph unicode="&#xf9;" horiz-adv-x="1251" d="M156 150q0 68 43 198l135 422q4 20 4 31q0 27 -25 43q-29 20 -92 20h-53l18 72l369 18l-201 -616q-30 -102 -30 -164q0 -47 25.5 -72.5t68.5 -25.5q86 0 215 129q131 131 213 385l112 346h162l-237 -739q-17 -56 -17 -84q0 -54 45 -54q93 0 230 260l55 -20 q-75 -165 -165 -246.5t-179 -81.5q-60 0 -94.5 36t-34.5 102q0 48 22 147q-122 -157 -216.5 -221t-184.5 -64q-86 0 -137 49.5t-51 129.5zM467 1399q0 31 24.5 56.5t55.5 25.5q45 0 96 -60l262 -311l-22 -23l-310 185q-106 60 -106 127z" />
<glyph unicode="&#xfa;" horiz-adv-x="1251" d="M156 150q0 68 43 198l135 422q4 20 4 31q0 27 -25 43q-29 20 -92 20h-53l18 72l369 18l-201 -616q-30 -102 -30 -164q0 -47 25.5 -72.5t68.5 -25.5q86 0 215 129q131 131 213 385l112 346h162l-237 -739q-17 -56 -17 -84q0 -54 45 -54q93 0 230 260l55 -20 q-75 -165 -165 -246.5t-179 -81.5q-60 0 -94.5 36t-34.5 102q0 48 22 147q-122 -157 -216.5 -221t-184.5 -64q-86 0 -137 49.5t-51 129.5zM655 1110l232 276q80 95 123 95q31 0 56.5 -24.5t25.5 -55.5q0 -65 -105 -127l-311 -187z" />
<glyph unicode="&#xfb;" horiz-adv-x="1251" d="M156 150q0 68 43 198l135 422q4 20 4 31q0 27 -25 43q-29 20 -92 20h-53l18 72l369 18l-201 -616q-30 -102 -30 -164q0 -47 25.5 -72.5t68.5 -25.5q86 0 215 129q131 131 213 385l112 346h162l-237 -739q-17 -56 -17 -84q0 -54 45 -54q93 0 230 260l55 -20 q-75 -165 -165 -246.5t-179 -81.5q-60 0 -94.5 36t-34.5 102q0 48 22 147q-122 -157 -216.5 -221t-184.5 -64q-86 0 -137 49.5t-51 129.5zM485 1112l310 330h94l203 -330h-35l-230 182l-297 -182h-45z" />
<glyph unicode="&#xfc;" horiz-adv-x="1251" d="M156 150q0 68 43 198l135 422q4 20 4 31q0 27 -25 43q-29 20 -92 20h-53l18 72l369 18l-201 -616q-30 -102 -30 -164q0 -47 25.5 -72.5t68.5 -25.5q86 0 215 129q131 131 213 385l112 346h162l-237 -739q-17 -56 -17 -84q0 -54 45 -54q93 0 230 260l55 -20 q-75 -165 -165 -246.5t-179 -81.5q-60 0 -94.5 36t-34.5 102q0 48 22 147q-122 -157 -216.5 -221t-184.5 -64q-86 0 -137 49.5t-51 129.5zM504 1278q0 43 30.5 73.5t73.5 30.5t74 -30.5t31 -73.5q0 -44 -31 -75.5t-74 -31.5t-73.5 31.5t-30.5 75.5zM899 1278q0 43 31 73.5 t74 30.5t73.5 -30.5t30.5 -73.5q0 -44 -30.5 -75.5t-73.5 -31.5t-74 31.5t-31 75.5z" />
<glyph unicode="&#xfd;" horiz-adv-x="1024" d="M-82 -256q0 47 31.5 81t73.5 34q37 0 64.5 -27.5t27.5 -64.5l-2 -35v-13q0 -17 12 -26q10 -10 33 -10q57 0 127 61q107 98 219 287l-66 340q-57 294 -112 395q-34 61 -64 61q-52 0 -117 -182l-59 25q57 163 131 237q52 58 113 58q59 0 94 -54q50 -69 121 -352l82 -321 q105 156 164 307q36 88 36 157q0 30 -12 91q-12 49 -12 73q0 42 25.5 70.5t62.5 28.5q38 0 62 -28.5t24 -76.5q0 -46 -37 -147q-50 -139 -133 -287l-236 -414q-82 -142 -182 -254q-71 -78 -149 -117.5t-144 -39.5q-75 0 -126.5 41.5t-51.5 101.5zM469 1110l231 276 q80 95 123 95q31 0 56.5 -24.5t25.5 -55.5q0 -66 -104 -127l-312 -187z" />
<glyph unicode="&#xfe;" horiz-adv-x="1175" d="M-168 -385l23 74h34q47 0 83 27t48 71l453 1530q4 16 4 26q0 28 -23.5 45t-72.5 17h-74l23 74l354 18l-233 -745q82 117 158.5 165t168.5 48q125 0 211 -99q88 -98 88 -258t-82 -315q-81 -159 -202 -240q-122 -82 -244 -82q-186 0 -256 193l-109 -377q-6 -18 -6 -37 q0 -61 101 -61h63l-20 -74h-490zM344 268q0 -96 49.5 -151.5t134.5 -55.5q184 0 303 287q66 163 66 314q0 96 -48.5 154t-123.5 58q-90 0 -181 -89.5t-145 -245.5q-55 -162 -55 -271z" />
<glyph unicode="&#xff;" horiz-adv-x="1024" d="M-82 -256q0 47 31.5 81t73.5 34q37 0 64.5 -27.5t27.5 -64.5l-2 -35v-13q0 -17 12 -26q10 -10 33 -10q57 0 127 61q107 98 219 287l-66 340q-57 294 -112 395q-34 61 -64 61q-52 0 -117 -182l-59 25q57 163 131 237q52 58 113 58q59 0 94 -54q50 -69 121 -352l82 -321 q105 156 164 307q36 88 36 157q0 30 -12 91q-12 49 -12 73q0 42 25.5 70.5t62.5 28.5q38 0 62 -28.5t24 -76.5q0 -46 -37 -147q-50 -139 -133 -287l-236 -414q-82 -142 -182 -254q-71 -78 -149 -117.5t-144 -39.5q-75 0 -126.5 41.5t-51.5 101.5zM352 1278q0 43 31 73.5 t74 30.5t73.5 -30.5t30.5 -73.5q0 -44 -30.5 -75.5t-73.5 -31.5t-74 31.5t-31 75.5zM748 1278q0 43 30.5 73.5t73.5 30.5t73.5 -30.5t30.5 -73.5q0 -44 -30.5 -75.5t-73.5 -31.5t-73.5 31.5t-30.5 75.5z" />
<glyph unicode="&#x152;" horiz-adv-x="2009" d="M131 575q0 179 88 383q111 260 307.5 399.5t434.5 139.5q60 0 167 -8q140 -10 152 -10h866l-108 -473h-72q19 93 19 143q0 126 -58 191t-141 65h-262q-34 0 -52 -17t-30 -65l-144 -524h43q140 0 225 64.5t128 203.5h69l-182 -674h-70q23 87 23 135q0 99 -49.5 150 t-143.5 51h-61l-154 -582q-4 -12 -4 -20q0 -24 18.5 -37.5t53.5 -13.5h229q162 0 280.5 101t201.5 331h75l-143 -508h-698q-115 0 -248 -8q-117 -8 -197 -8q-337 0 -487 282q-76 143 -76 309zM352 444q0 -184 90.5 -287.5t245.5 -103.5q106 0 163.5 50.5t92.5 179.5l236 872 q12 46 12 84q0 91 -52.5 139.5t-152.5 48.5q-166 0 -311 -133q-167 -153 -254 -444q-70 -223 -70 -406z" />
<glyph unicode="&#x153;" horiz-adv-x="1593" d="M78 387q0 150 74.5 287.5t197.5 212.5q125 78 254 78q96 0 171 -44t143 -145q107 103 195 146t179 43q107 0 173.5 -56.5t66.5 -142.5q0 -120 -139 -229t-475 -170q-1 -11 -2 -26t-2 -25.5t-1 -18.5q0 -114 53.5 -178t137.5 -64q168 0 328 195l47 -43q-95 -116 -201 -176 t-205 -60q-159 0 -280 160q-100 -90 -181 -125t-176 -35q-150 0 -254 119t-104 297zM252 293q0 -120 53 -188t137 -68q80 0 154.5 68.5t132.5 218.5q64 158 64 317q0 126 -51 192t-140 66q-77 0 -141 -55q-82 -70 -146 -232q-63 -155 -63 -319zM930 428q223 41 329.5 131.5 t106.5 212.5q0 60 -29.5 91.5t-85.5 31.5q-89 0 -170 -96q-96 -119 -151 -371z" />
<glyph unicode="&#x178;" horiz-adv-x="1402" d="M256 1405l18 74h578l-14 -74h-80q-119 0 -119 -57q0 -14 8 -27l240 -578l381 480q55 70 55 106q0 67 -170 76l25 74h454l-18 -74q-111 -15 -193 -123l-489 -614l-137 -516q-2 -6 -2 -17q0 -25 22 -41q27 -18 86 -18h111l-21 -76h-665l16 76h104q110 0 125 61l140 502 l-293 707q-27 59 -111 59h-51zM762 1782q0 43 30.5 73.5t73.5 30.5t74 -30.5t31 -73.5q0 -44 -31 -75.5t-74 -31.5t-73.5 31.5t-30.5 75.5zM1157 1782q0 43 31 73.5t74 30.5t73.5 -30.5t30.5 -73.5q0 -44 -30.5 -75.5t-73.5 -31.5t-74 31.5t-31 75.5z" />
<glyph unicode="&#x2c6;" d="M150 1112l309 330h94l203 -330h-35l-229 182l-297 -182h-45z" />
<glyph unicode="&#x2dc;" d="M170 1163q6 114 56.5 173t131.5 59q71 0 199 -49q109 -41 156 -41q77 0 98 88h35q-4 -109 -57.5 -168.5t-139.5 -59.5q-18 0 -71 11q-48 10 -170 55q-70 24 -107 24q-81 0 -96 -92h-35z" />
<glyph unicode="&#x2000;" horiz-adv-x="992" />
<glyph unicode="&#x2001;" horiz-adv-x="1985" />
<glyph unicode="&#x2002;" horiz-adv-x="992" />
<glyph unicode="&#x2003;" horiz-adv-x="1985" />
<glyph unicode="&#x2004;" horiz-adv-x="661" />
<glyph unicode="&#x2005;" horiz-adv-x="496" />
<glyph unicode="&#x2006;" horiz-adv-x="330" />
<glyph unicode="&#x2007;" horiz-adv-x="330" />
<glyph unicode="&#x2008;" horiz-adv-x="248" />
<glyph unicode="&#x2009;" horiz-adv-x="397" />
<glyph unicode="&#x200a;" horiz-adv-x="110" />
<glyph unicode="&#x2010;" d="M129 389l43 154h406l-43 -154h-406z" />
<glyph unicode="&#x2011;" d="M129 389l43 154h406l-43 -154h-406z" />
<glyph unicode="&#x2012;" d="M129 389l43 154h406l-43 -154h-406z" />
<glyph unicode="&#x2013;" horiz-adv-x="1024" d="M-12 440v103h1048v-103h-1048z" />
<glyph unicode="&#x2014;" horiz-adv-x="2048" d="M-12 440v103h2072v-103h-2072z" />
<glyph unicode="&#x2018;" horiz-adv-x="417" d="M258 1143q0 112 80.5 207t243.5 159l30 -53q-119 -55 -180 -119q-45 -48 -45 -86q0 -12 6.5 -16.5t36.5 -11.5q44 -10 63 -35t19 -70q0 -51 -36 -88t-87 -37q-55 0 -93 42.5t-38 107.5z" />
<glyph unicode="&#x2019;" horiz-adv-x="417" d="M236 1044q119 58 180 119q45 45 45 84q0 13 -7.5 19t-35.5 12q-44 10 -63 34.5t-19 69.5q0 51 36 88t87 37q55 0 92 -42t37 -107q0 -113 -79.5 -208.5t-244.5 -160.5z" />
<glyph unicode="&#x201a;" horiz-adv-x="417" d="M-59 -250q121 59 180 121q45 45 45 86q0 11 -7 16.5t-36 12.5q-44 10 -63 34t-19 68q0 54 36 90.5t87 36.5q55 0 93 -42t38 -107q0 -112 -80.5 -207.5t-243.5 -161.5z" />
<glyph unicode="&#x201c;" horiz-adv-x="796" d="M236 1151q0 109 81 204.5t246 160.5l31 -62q-110 -45 -178 -113q-47 -47 -47 -86q0 -13 7 -18t40 -12q78 -21 78 -105q0 -54 -39 -91.5t-95 -37.5q-55 0 -89.5 43.5t-34.5 116.5zM659 1151q0 109 80.5 204t245.5 161l31 -62q-110 -45 -178 -113q-47 -47 -47 -84 q0 -13 6 -17t41 -15q77 -21 77 -105q0 -54 -38.5 -91.5t-92.5 -37.5q-56 0 -90.5 43t-34.5 117z" />
<glyph unicode="&#x201d;" horiz-adv-x="796" d="M217 1055q113 49 178 114q47 47 47 84q0 12 -7.5 17.5t-39.5 15.5q-78 21 -78 105q0 54 39 90.5t95 36.5q55 0 88.5 -42.5t33.5 -115.5q0 -111 -80 -205.5t-245 -159.5zM639 1055q117 51 180 114q45 45 45 84q0 13 -6.5 18t-40.5 15q-76 21 -76 105q0 54 37.5 90.5 t93.5 36.5t90.5 -42.5t34.5 -115.5q0 -110 -80.5 -205t-244.5 -160z" />
<glyph unicode="&#x201e;" horiz-adv-x="796" d="M-102 -248q110 45 178 113q47 47 47 86q0 9 -1.5 12.5t-12 8.5t-33.5 10q-76 21 -76 104q0 54 38.5 91.5t92.5 37.5q55 0 90 -44t35 -116q0 -109 -81 -203t-247 -161zM322 -248q110 45 178 113q47 47 47 86q0 12 -8.5 18t-38.5 13q-78 21 -78 104q0 54 38.5 91.5 t94.5 37.5q55 0 89 -43.5t34 -116.5q0 -109 -80 -203t-246 -161z" />
<glyph unicode="&#x2022;" horiz-adv-x="1241" d="M395 686q0 106 74 180q77 74 180 74q106 0 180 -74q76 -73 76 -180q0 -104 -76 -180q-74 -74 -180 -74q-103 0 -180 74q-74 77 -74 180z" />
<glyph unicode="&#x2026;" horiz-adv-x="2048" d="M203 113q0 57 41 98t98 41t97 -41t40 -98q0 -59 -41.5 -100.5t-97.5 -41.5t-96.5 41.5t-40.5 100.5zM887 113q0 57 40.5 98t96.5 41q59 0 99 -40.5t40 -98.5q0 -59 -41.5 -100.5t-97.5 -41.5t-96.5 41.5t-40.5 100.5zM1571 109q0 60 39 99.5t96 39.5q58 0 97.5 -40 t39.5 -99q0 -57 -40 -97.5t-97 -40.5q-56 0 -95.5 40.5t-39.5 97.5z" />
<glyph unicode="&#x202f;" horiz-adv-x="397" />
<glyph unicode="&#x2039;" d="M199 559l346 434h92l-244 -465l82 -403h-92z" />
<glyph unicode="&#x203a;" d="M145 125l240 465l-82 403h94l183 -436l-347 -432h-88z" />
<glyph unicode="&#x205f;" horiz-adv-x="496" />
<glyph unicode="&#x20ac;" horiz-adv-x="1138" d="M92 555l41 84h105q2 7 9 55t9 56h-119l41 84h96q74 256 230 417.5t332 161.5q82 0 150 -35t108 -96l55 70h59l-55 -385h-66q-7 102 -37.5 183t-89 133t-137.5 52q-130 0 -212.5 -124.5t-127.5 -376.5h621l-41 -84h-598q-11 -63 -16 -111h569l-41 -84h-537 q-10 -148 12.5 -257.5t85 -175t160.5 -65.5q49 0 93.5 18.5t76 45t62 68.5t49 76t39.5 79l67 -33q-36 -80 -73.5 -137t-88 -105t-116.5 -72t-148 -24q-125 0 -224.5 76t-151.5 198t-52 263v12.5t0.5 6t1.5 2.5t1.5 2.5t1.5 7t2 14.5h-146z" />
<glyph unicode="&#x2122;" horiz-adv-x="1945" d="M94 1274l23 205h737l23 -205h-35q-11 76 -55.5 108.5t-141.5 32.5h-76v-608q0 -65 21 -86.5t88 -26.5v-35h-381v35q63 3 84 27q18 24 18 106v588h-77q-94 0 -136.5 -31.5t-56.5 -109.5h-35zM926 659v35q72 1 93 24t21 97v510q0 72 -21 93.5t-93 21.5v39h288l279 -582 l266 582h285v-39q-70 -1 -91.5 -22.5t-21.5 -84.5v-506q0 -85 20 -108t93 -25v-35h-404v35q76 9 91 18q19 12 24 59q1 11 4 56v498l-309 -666h-35l-311 658v-512q0 -62 21.5 -86.5t72.5 -24.5h37v-35h-309z" />
<glyph unicode="&#x25fc;" horiz-adv-x="962" d="M0 0v963h963v-963h-963z" />
</font>
</defs>
</svg>
